<svg xmlns="http://www.w3.org/2000/svg" xmlns:xlink="http://www.w3.org/1999/xlink" width="1080" zoomAndPan="magnify" viewBox="0 0 810 809.999993" height="1080" preserveAspectRatio="xMidYMid meet" version="1.0"><defs><clipPath id="e7958275ad"><path d="M 96.617188 96.617188 L 713.382812 96.617188 L 713.382812 713.382812 L 96.617188 713.382812 Z M 96.617188 96.617188 " clip-rule="nonzero"/></clipPath><clipPath id="9af3b5d856"><path d="M 405 96.617188 C 234.683594 96.617188 96.617188 234.683594 96.617188 405 C 96.617188 575.316406 234.683594 713.382812 405 713.382812 C 575.316406 713.382812 713.382812 575.316406 713.382812 405 C 713.382812 234.683594 575.316406 96.617188 405 96.617188 Z M 405 96.617188 " clip-rule="nonzero"/></clipPath></defs><g clip-path="url(#e7958275ad)"><g clip-path="url(#9af3b5d856)"><path fill="#ff712b" d="M 96.617188 96.617188 L 713.382812 96.617188 L 713.382812 713.382812 L 96.617188 713.382812 Z M 96.617188 96.617188 " fill-opacity="1" fill-rule="nonzero"/></g></g><path fill="#ffffff" d="M 437.097656 612.0625 L 407.378906 590.464844 C 407.035156 590.214844 406.660156 590.023438 406.253906 589.890625 C 405.851562 589.757812 405.433594 589.691406 405.007812 589.691406 C 404.582031 589.691406 404.167969 589.757812 403.761719 589.890625 C 403.359375 590.023438 402.984375 590.214844 402.640625 590.464844 L 372.921875 612.0625 C 372.109375 612.652344 371.257812 613.171875 370.363281 613.628906 C 369.46875 614.082031 368.546875 614.464844 367.59375 614.773438 C 366.640625 615.082031 365.667969 615.3125 364.675781 615.46875 C 363.6875 615.625 362.691406 615.703125 361.6875 615.703125 C 360.6875 615.703125 359.691406 615.625 358.699219 615.46875 C 357.710938 615.3125 356.738281 615.078125 355.785156 614.765625 C 354.832031 614.457031 353.910156 614.074219 353.015625 613.621094 C 352.125 613.164062 351.269531 612.644531 350.460938 612.054688 C 349.648438 611.464844 348.890625 610.816406 348.179688 610.109375 C 347.472656 609.402344 346.820312 608.640625 346.230469 607.832031 C 345.640625 607.019531 345.121094 606.167969 344.664062 605.277344 C 344.207031 604.382812 343.824219 603.460938 343.511719 602.507812 C 343.203125 601.554688 342.96875 600.585938 342.808594 599.59375 C 342.652344 598.605469 342.570312 597.609375 342.570312 596.605469 C 342.570312 595.605469 342.644531 594.609375 342.800781 593.617188 C 342.957031 592.628906 343.1875 591.65625 343.496094 590.703125 L 354.898438 555.757812 C 355.027344 555.355469 355.09375 554.941406 355.089844 554.515625 C 355.089844 554.09375 355.023438 553.679688 354.890625 553.277344 C 354.757812 552.875 354.566406 552.5 354.316406 552.15625 C 354.066406 551.816406 353.769531 551.519531 353.425781 551.273438 L 323.707031 529.671875 C 322.898438 529.082031 322.144531 528.433594 321.4375 527.722656 C 320.734375 527.011719 320.085938 526.253906 319.5 525.441406 C 318.914062 524.628906 318.394531 523.777344 317.941406 522.886719 C 317.492188 521.992188 317.109375 521.070312 316.804688 520.117188 C 316.496094 519.167969 316.265625 518.195312 316.109375 517.207031 C 315.953125 516.21875 315.875 515.222656 315.878906 514.222656 C 315.878906 513.222656 315.957031 512.230469 316.113281 511.242188 C 316.269531 510.253906 316.503906 509.28125 316.8125 508.332031 C 317.121094 507.378906 317.503906 506.457031 317.957031 505.566406 C 318.410156 504.671875 318.933594 503.824219 319.519531 503.011719 C 320.105469 502.203125 320.753906 501.441406 321.460938 500.734375 C 322.167969 500.027344 322.921875 499.378906 323.730469 498.789062 C 324.539062 498.199219 325.390625 497.675781 326.28125 497.21875 C 327.171875 496.761719 328.089844 496.378906 329.042969 496.066406 C 329.992188 495.753906 330.960938 495.519531 331.949219 495.359375 C 332.9375 495.199219 333.933594 495.117188 334.933594 495.113281 L 371.714844 495.113281 C 372.140625 495.113281 372.554688 495.050781 372.960938 494.917969 C 373.363281 494.789062 373.738281 494.597656 374.082031 494.347656 C 374.425781 494.097656 374.722656 493.800781 374.972656 493.457031 C 375.21875 493.113281 375.410156 492.738281 375.539062 492.332031 L 386.898438 457.390625 C 387.210938 456.4375 387.59375 455.519531 388.050781 454.628906 C 388.507812 453.738281 389.03125 452.886719 389.625 452.082031 C 390.214844 451.273438 390.863281 450.515625 391.574219 449.808594 C 392.28125 449.101562 393.042969 448.457031 393.851562 447.871094 C 394.664062 447.28125 395.515625 446.761719 396.40625 446.308594 C 397.300781 445.855469 398.222656 445.476562 399.171875 445.167969 C 400.125 444.859375 401.09375 444.625 402.085938 444.46875 C 403.074219 444.3125 404.066406 444.234375 405.066406 444.234375 C 406.070312 444.234375 407.0625 444.3125 408.050781 444.46875 C 409.039062 444.625 410.011719 444.859375 410.964844 445.167969 C 411.914062 445.476562 412.835938 445.855469 413.730469 446.308594 C 414.621094 446.761719 415.472656 447.28125 416.285156 447.871094 C 417.09375 448.457031 417.855469 449.101562 418.5625 449.808594 C 419.273438 450.515625 419.921875 451.273438 420.511719 452.082031 C 421.101562 452.886719 421.628906 453.738281 422.085938 454.628906 C 422.539062 455.519531 422.925781 456.4375 423.238281 457.390625 L 434.597656 492.332031 C 434.726562 492.738281 434.914062 493.113281 435.164062 493.457031 C 435.414062 493.800781 435.710938 494.097656 436.054688 494.347656 C 436.398438 494.597656 436.773438 494.789062 437.175781 494.917969 C 437.582031 495.050781 437.996094 495.113281 438.421875 495.113281 L 475.203125 495.113281 C 476.203125 495.117188 477.199219 495.199219 478.1875 495.359375 C 479.171875 495.519531 480.144531 495.753906 481.09375 496.066406 C 482.042969 496.378906 482.964844 496.761719 483.855469 497.21875 C 484.746094 497.675781 485.59375 498.199219 486.402344 498.789062 C 487.210938 499.378906 487.96875 500.027344 488.675781 500.734375 C 489.382812 501.441406 490.03125 502.203125 490.617188 503.011719 C 491.203125 503.824219 491.726562 504.671875 492.179688 505.566406 C 492.632812 506.457031 493.015625 507.378906 493.324219 508.332031 C 493.632812 509.28125 493.863281 510.253906 494.023438 511.242188 C 494.179688 512.230469 494.257812 513.222656 494.257812 514.222656 C 494.257812 515.222656 494.183594 516.21875 494.027344 517.207031 C 493.871094 518.195312 493.640625 519.167969 493.332031 520.117188 C 493.023438 521.070312 492.644531 521.992188 492.191406 522.886719 C 491.742188 523.777344 491.222656 524.628906 490.636719 525.441406 C 490.050781 526.253906 489.402344 527.011719 488.699219 527.722656 C 487.992188 528.433594 487.238281 529.082031 486.429688 529.671875 L 456.710938 551.273438 C 456.363281 551.519531 456.066406 551.8125 455.8125 552.15625 C 455.5625 552.496094 455.371094 552.871094 455.238281 553.273438 C 455.105469 553.675781 455.039062 554.089844 455.039062 554.515625 C 455.039062 554.941406 455.105469 555.355469 455.238281 555.757812 L 466.582031 590.703125 C 466.808594 591.414062 466.988281 592.140625 467.128906 592.875 C 467.269531 593.613281 467.367188 594.351562 467.421875 595.101562 C 467.476562 595.847656 467.484375 596.59375 467.453125 597.34375 C 467.417969 598.089844 467.34375 598.835938 467.222656 599.574219 C 467.101562 600.3125 466.9375 601.042969 466.734375 601.765625 C 466.527344 602.484375 466.28125 603.191406 465.992188 603.882812 C 465.703125 604.574219 465.375 605.246094 465.011719 605.898438 C 464.644531 606.550781 464.238281 607.179688 463.800781 607.785156 C 463.359375 608.390625 462.886719 608.96875 462.378906 609.519531 C 461.871094 610.070312 461.332031 610.589844 460.765625 611.078125 C 460.195312 611.566406 459.601562 612.019531 458.980469 612.4375 C 458.359375 612.855469 457.714844 613.234375 457.046875 613.578125 C 456.382812 613.921875 455.699219 614.226562 454.996094 614.488281 C 454.296875 614.75 453.582031 614.972656 452.855469 615.152344 C 452.128906 615.332031 451.394531 615.46875 450.648438 615.5625 C 449.90625 615.65625 449.160156 615.707031 448.410156 615.714844 C 446.378906 615.726562 444.394531 615.417969 442.460938 614.796875 C 440.527344 614.171875 438.738281 613.261719 437.097656 612.0625 Z M 438.363281 510.195312 C 437.359375 510.191406 436.363281 510.113281 435.371094 509.953125 C 434.378906 509.796875 433.40625 509.558594 432.453125 509.25 C 431.5 508.9375 430.578125 508.554688 429.683594 508.097656 C 428.789062 507.640625 427.9375 507.117188 427.125 506.523438 C 426.316406 505.933594 425.554688 505.28125 424.847656 504.574219 C 424.140625 503.863281 423.492188 503.101562 422.902344 502.289062 C 422.3125 501.476562 421.792969 500.621094 421.335938 499.726562 C 420.882812 498.832031 420.5 497.90625 420.191406 496.953125 L 408.835938 462.007812 C 408.703125 461.605469 408.515625 461.230469 408.265625 460.882812 C 408.015625 460.539062 407.722656 460.242188 407.378906 459.988281 C 407.035156 459.738281 406.660156 459.546875 406.253906 459.414062 C 405.851562 459.285156 405.433594 459.21875 405.007812 459.21875 C 404.582031 459.21875 404.167969 459.285156 403.765625 459.414062 C 403.359375 459.546875 402.984375 459.738281 402.640625 459.988281 C 402.296875 460.242188 402 460.539062 401.753906 460.882812 C 401.503906 461.230469 401.3125 461.605469 401.183594 462.007812 L 389.824219 496.953125 C 389.515625 497.90625 389.136719 498.832031 388.679688 499.726562 C 388.226562 500.621094 387.707031 501.476562 387.117188 502.289062 C 386.527344 503.101562 385.878906 503.863281 385.171875 504.574219 C 384.460938 505.28125 383.703125 505.933594 382.890625 506.523438 C 382.082031 507.117188 381.230469 507.640625 380.335938 508.097656 C 379.441406 508.554688 378.519531 508.9375 377.5625 509.25 C 376.609375 509.558594 375.636719 509.796875 374.648438 509.953125 C 373.65625 510.113281 372.660156 510.191406 371.65625 510.195312 L 334.875 510.195312 C 334.449219 510.195312 334.035156 510.261719 333.632812 510.394531 C 333.230469 510.527344 332.855469 510.71875 332.511719 510.96875 C 332.171875 511.21875 331.875 511.515625 331.625 511.859375 C 331.375 512.199219 331.1875 512.574219 331.054688 512.976562 C 330.921875 513.382812 330.859375 513.796875 330.855469 514.21875 C 330.855469 514.644531 330.921875 515.058594 331.050781 515.460938 C 331.183594 515.867188 331.371094 516.238281 331.621094 516.585938 C 331.867188 516.929688 332.164062 517.226562 332.503906 517.476562 L 362.253906 539.058594 C 363.0625 539.648438 363.824219 540.300781 364.53125 541.007812 C 365.238281 541.71875 365.886719 542.480469 366.476562 543.289062 C 367.0625 544.101562 367.585938 544.953125 368.039062 545.847656 C 368.492188 546.742188 368.875 547.664062 369.183594 548.617188 C 369.492188 549.570312 369.726562 550.542969 369.882812 551.53125 C 370.039062 552.523438 370.117188 553.519531 370.117188 554.519531 C 370.117188 555.523438 370.039062 556.519531 369.882812 557.507812 C 369.726562 558.5 369.492188 559.46875 369.183594 560.421875 L 357.839844 595.367188 C 357.707031 595.769531 357.640625 596.183594 357.640625 596.609375 C 357.636719 597.03125 357.703125 597.449219 357.832031 597.851562 C 357.964844 598.257812 358.152344 598.628906 358.402344 598.976562 C 358.652344 599.320312 358.949219 599.617188 359.289062 599.867188 C 359.632812 600.117188 360.007812 600.308594 360.410156 600.4375 C 360.816406 600.570312 361.230469 600.636719 361.65625 600.636719 C 362.078125 600.636719 362.496094 600.570312 362.898438 600.441406 C 363.300781 600.308594 363.675781 600.117188 364.019531 599.867188 L 393.753906 578.269531 C 394.5625 577.679688 395.414062 577.15625 396.308594 576.699219 C 397.199219 576.242188 398.121094 575.855469 399.074219 575.546875 C 400.027344 575.234375 401 575 401.992188 574.84375 C 402.980469 574.6875 403.976562 574.609375 404.980469 574.609375 C 405.980469 574.609375 406.980469 574.6875 407.96875 574.84375 C 408.960938 575 409.929688 575.234375 410.882812 575.546875 C 411.835938 575.855469 412.761719 576.242188 413.652344 576.699219 C 414.542969 577.15625 415.394531 577.679688 416.207031 578.269531 L 445.941406 599.867188 C 446.285156 600.117188 446.65625 600.308594 447.0625 600.441406 C 447.464844 600.570312 447.878906 600.636719 448.304688 600.636719 C 448.730469 600.636719 449.144531 600.570312 449.546875 600.4375 C 449.953125 600.308594 450.324219 600.117188 450.667969 599.867188 C 451.011719 599.617188 451.308594 599.320312 451.558594 598.976562 C 451.808594 598.628906 451.996094 598.257812 452.125 597.851562 C 452.257812 597.449219 452.320312 597.03125 452.320312 596.609375 C 452.320312 596.183594 452.253906 595.769531 452.121094 595.367188 L 440.777344 560.421875 C 440.464844 559.46875 440.234375 558.5 440.078125 557.507812 C 439.921875 556.519531 439.84375 555.523438 439.839844 554.519531 C 439.839844 553.519531 439.921875 552.523438 440.078125 551.53125 C 440.234375 550.542969 440.464844 549.570312 440.773438 548.617188 C 441.085938 547.664062 441.464844 546.742188 441.921875 545.847656 C 442.375 544.953125 442.894531 544.101562 443.484375 543.289062 C 444.074219 542.480469 444.722656 541.71875 445.429688 541.007812 C 446.136719 540.300781 446.894531 539.648438 447.707031 539.058594 L 477.441406 517.476562 C 477.78125 517.226562 478.078125 516.929688 478.324219 516.585938 C 478.574219 516.238281 478.761719 515.867188 478.894531 515.460938 C 479.023438 515.058594 479.089844 514.644531 479.089844 514.21875 C 479.085938 513.796875 479.023438 513.382812 478.890625 512.976562 C 478.757812 512.574219 478.570312 512.199219 478.320312 511.859375 C 478.070312 511.515625 477.773438 511.21875 477.429688 510.96875 C 477.089844 510.71875 476.714844 510.527344 476.3125 510.394531 C 475.910156 510.261719 475.496094 510.195312 475.070312 510.195312 Z M 438.363281 510.195312 " fill-opacity="1" fill-rule="nonzero"/><path fill="#ffffff" d="M 247.40625 531.527344 C 246.675781 531.003906 245.988281 530.429688 245.347656 529.796875 C 244.707031 529.164062 244.121094 528.488281 243.585938 527.761719 C 243.054688 527.039062 242.582031 526.273438 242.171875 525.476562 C 241.761719 524.675781 241.414062 523.847656 241.136719 522.992188 C 240.859375 522.136719 240.648438 521.265625 240.507812 520.375 C 240.367188 519.488281 240.300781 518.59375 240.300781 517.695312 C 240.304688 516.792969 240.378906 515.902344 240.523438 515.011719 C 240.667969 514.125 240.882812 513.253906 241.167969 512.402344 L 250.601562 483.386719 C 250.742188 482.960938 250.742188 482.535156 250.605469 482.109375 C 250.464844 481.683594 250.214844 481.339844 249.847656 481.078125 L 225.175781 463.054688 C 224.449219 462.527344 223.765625 461.945312 223.128906 461.308594 C 222.492188 460.671875 221.910156 459.988281 221.378906 459.261719 C 220.851562 458.535156 220.382812 457.769531 219.972656 456.96875 C 219.5625 456.167969 219.21875 455.339844 218.941406 454.484375 C 218.664062 453.625 218.453125 452.753906 218.3125 451.867188 C 218.171875 450.976562 218.101562 450.082031 218.101562 449.183594 C 218.101562 448.28125 218.171875 447.390625 218.3125 446.5 C 218.453125 445.609375 218.660156 444.738281 218.941406 443.882812 C 219.21875 443.027344 219.5625 442.199219 219.96875 441.398438 C 220.378906 440.59375 220.847656 439.832031 221.375 439.101562 C 221.90625 438.375 222.488281 437.691406 223.125 437.054688 C 223.761719 436.421875 224.445312 435.839844 225.171875 435.308594 C 225.898438 434.78125 226.664062 434.3125 227.46875 433.902344 C 228.269531 433.496094 229.097656 433.152344 229.953125 432.875 C 230.808594 432.597656 231.683594 432.390625 232.570312 432.25 C 233.460938 432.109375 234.355469 432.039062 235.253906 432.039062 L 265.753906 432.039062 C 266.207031 432.039062 266.613281 431.902344 266.976562 431.628906 C 267.339844 431.355469 267.582031 431.003906 267.710938 430.570312 L 277.140625 401.554688 C 277.421875 400.699219 277.765625 399.871094 278.171875 399.070312 C 278.582031 398.269531 279.050781 397.507812 279.582031 396.78125 C 280.109375 396.054688 280.691406 395.371094 281.328125 394.738281 C 281.964844 394.101562 282.648438 393.519531 283.375 392.992188 C 284.101562 392.464844 284.867188 391.996094 285.667969 391.585938 C 286.46875 391.179688 287.296875 390.835938 288.152344 390.558594 C 289.007812 390.28125 289.882812 390.074219 290.769531 389.933594 C 291.65625 389.792969 292.550781 389.722656 293.449219 389.722656 C 294.347656 389.722656 295.242188 389.792969 296.132812 389.933594 C 297.019531 390.074219 297.890625 390.28125 298.746094 390.558594 C 299.601562 390.835938 300.429688 391.179688 301.230469 391.585938 C 302.03125 391.996094 302.796875 392.464844 303.527344 392.992188 C 304.253906 393.519531 304.933594 394.101562 305.570312 394.738281 C 306.207031 395.371094 306.789062 396.054688 307.320312 396.78125 C 307.847656 397.507812 308.316406 398.269531 308.726562 399.070312 C 309.136719 399.871094 309.480469 400.699219 309.757812 401.554688 L 319.191406 430.570312 C 319.316406 431.003906 319.5625 431.355469 319.925781 431.628906 C 320.285156 431.902344 320.695312 432.039062 321.148438 432.039062 L 351.644531 432.039062 C 352.546875 432.039062 353.441406 432.109375 354.328125 432.25 C 355.21875 432.390625 356.089844 432.597656 356.945312 432.875 C 357.800781 433.152344 358.632812 433.496094 359.433594 433.902344 C 360.234375 434.3125 361 434.78125 361.730469 435.308594 C 362.457031 435.839844 363.140625 436.421875 363.777344 437.054688 C 364.414062 437.691406 364.996094 438.375 365.523438 439.101562 C 366.054688 439.832031 366.523438 440.59375 366.929688 441.398438 C 367.339844 442.199219 367.683594 443.027344 367.960938 443.882812 C 368.238281 444.738281 368.449219 445.609375 368.589844 446.5 C 368.730469 447.390625 368.800781 448.28125 368.800781 449.183594 C 368.800781 450.082031 368.730469 450.976562 368.589844 451.867188 C 368.449219 452.753906 368.238281 453.625 367.960938 454.484375 C 367.679688 455.339844 367.335938 456.167969 366.929688 456.96875 C 366.519531 457.769531 366.050781 458.535156 365.519531 459.261719 C 364.992188 459.988281 364.410156 460.671875 363.773438 461.308594 C 363.136719 461.945312 362.453125 462.527344 361.722656 463.054688 L 337.050781 480.972656 C 336.6875 481.234375 336.433594 481.578125 336.296875 482.007812 C 336.15625 482.433594 336.160156 482.859375 336.300781 483.285156 L 341.832031 500.351562 C 341.925781 500.628906 342 500.914062 342.058594 501.199219 C 342.117188 501.488281 342.15625 501.777344 342.179688 502.070312 C 342.203125 502.363281 342.210938 502.65625 342.203125 502.949219 C 342.191406 503.242188 342.164062 503.53125 342.121094 503.824219 C 342.078125 504.113281 342.015625 504.398438 341.9375 504.683594 C 341.859375 504.964844 341.765625 505.242188 341.65625 505.515625 C 341.546875 505.785156 341.421875 506.050781 341.28125 506.308594 C 341.136719 506.566406 340.984375 506.8125 340.8125 507.050781 C 340.644531 507.289062 340.460938 507.519531 340.261719 507.738281 C 340.066406 507.953125 339.855469 508.160156 339.636719 508.351562 C 339.414062 508.546875 339.183594 508.722656 338.941406 508.890625 C 338.699219 509.054688 338.449219 509.207031 338.191406 509.34375 C 337.929688 509.480469 337.664062 509.601562 337.390625 509.707031 C 337.117188 509.8125 336.835938 509.902344 336.554688 509.972656 C 336.269531 510.046875 335.980469 510.101562 335.691406 510.140625 C 335.398438 510.179688 335.109375 510.203125 334.816406 510.207031 C 334.398438 510.21875 333.988281 510.296875 333.59375 510.433594 C 333.199219 510.574219 332.835938 510.769531 332.5 511.019531 C 332.167969 511.273438 331.878906 511.570312 331.640625 511.914062 C 331.398438 512.253906 331.214844 512.625 331.089844 513.027344 C 330.964844 513.425781 330.90625 513.835938 330.910156 514.253906 C 330.910156 514.671875 330.980469 515.078125 331.109375 515.476562 C 331.242188 515.875 331.429688 516.242188 331.675781 516.582031 C 331.921875 516.921875 332.210938 517.214844 332.550781 517.460938 L 336.964844 520.625 C 337.523438 521.027344 338.019531 521.5 338.449219 522.042969 C 338.882812 522.582031 339.230469 523.171875 339.5 523.808594 C 339.769531 524.445312 339.945312 525.105469 340.03125 525.792969 C 340.121094 526.476562 340.113281 527.164062 340.011719 527.847656 C 339.910156 528.53125 339.714844 529.1875 339.433594 529.816406 C 339.152344 530.449219 338.789062 531.03125 338.34375 531.558594 C 337.902344 532.089844 337.398438 532.550781 336.828125 532.945312 C 336.257812 533.335938 335.644531 533.644531 334.992188 533.867188 C 333.691406 534.328125 332.355469 534.625 330.980469 534.753906 C 329.605469 534.886719 328.238281 534.851562 326.871094 534.648438 C 325.507812 534.445312 324.1875 534.078125 322.914062 533.550781 C 321.640625 533.023438 320.445312 532.347656 319.335938 531.527344 L 294.664062 513.535156 C 294.300781 513.269531 293.898438 513.136719 293.449219 513.136719 C 293.003906 513.136719 292.597656 513.269531 292.238281 513.535156 L 267.546875 531.527344 C 266.824219 532.066406 266.066406 532.542969 265.265625 532.960938 C 264.464844 533.375 263.636719 533.726562 262.78125 534.007812 C 261.925781 534.292969 261.054688 534.507812 260.164062 534.648438 C 259.273438 534.792969 258.378906 534.863281 257.476562 534.863281 C 256.578125 534.863281 255.679688 534.792969 254.792969 534.648438 C 253.902344 534.507812 253.027344 534.292969 252.171875 534.007812 C 251.316406 533.726562 250.488281 533.375 249.691406 532.960938 C 248.890625 532.542969 248.128906 532.066406 247.40625 531.527344 Z M 303.519531 501.394531 L 316.175781 510.578125 C 316.3125 509.902344 316.484375 509.234375 316.6875 508.574219 C 317.363281 506.296875 318.429688 504.214844 319.886719 502.335938 C 321.34375 500.457031 323.09375 498.910156 325.132812 497.6875 L 321.957031 487.890625 C 321.679688 487.035156 321.46875 486.164062 321.328125 485.277344 C 321.1875 484.390625 321.117188 483.5 321.117188 482.601562 C 321.117188 481.703125 321.1875 480.8125 321.328125 479.925781 C 321.46875 479.039062 321.675781 478.167969 321.953125 477.3125 C 322.230469 476.460938 322.574219 475.632812 322.984375 474.832031 C 323.390625 474.03125 323.859375 473.269531 324.386719 472.542969 C 324.917969 471.816406 325.5 471.136719 326.136719 470.503906 C 326.769531 469.871094 327.453125 469.289062 328.179688 468.761719 L 352.867188 450.828125 C 353.226562 450.566406 353.476562 450.222656 353.613281 449.796875 C 353.75 449.371094 353.746094 448.949219 353.609375 448.523438 C 353.46875 448.101562 353.21875 447.757812 352.859375 447.496094 C 352.496094 447.234375 352.09375 447.105469 351.644531 447.105469 L 321.148438 447.105469 C 320.25 447.109375 319.355469 447.042969 318.46875 446.902344 C 317.582031 446.765625 316.714844 446.558594 315.859375 446.285156 C 315.003906 446.011719 314.175781 445.671875 313.375 445.265625 C 312.574219 444.859375 311.808594 444.394531 311.082031 443.871094 C 310.355469 443.34375 309.671875 442.765625 309.035156 442.132812 C 308.398438 441.5 307.816406 440.820312 307.289062 440.097656 C 306.757812 439.371094 306.289062 438.609375 305.878906 437.8125 C 305.46875 437.015625 305.125 436.1875 304.84375 435.335938 L 295.414062 406.320312 C 295.277344 405.894531 295.03125 405.546875 294.667969 405.28125 C 294.304688 405.015625 293.898438 404.882812 293.449219 404.882812 C 293 404.882812 292.59375 405.015625 292.234375 405.28125 C 291.871094 405.546875 291.621094 405.894531 291.484375 406.320312 L 282.054688 435.335938 C 281.777344 436.1875 281.429688 437.015625 281.023438 437.8125 C 280.613281 438.609375 280.140625 439.371094 279.613281 440.097656 C 279.082031 440.820312 278.5 441.5 277.863281 442.132812 C 277.226562 442.765625 276.546875 443.34375 275.816406 443.871094 C 275.089844 444.394531 274.324219 444.859375 273.523438 445.265625 C 272.722656 445.671875 271.894531 446.011719 271.042969 446.285156 C 270.1875 446.558594 269.316406 446.765625 268.429688 446.902344 C 267.542969 447.042969 266.652344 447.109375 265.753906 447.105469 L 235.253906 447.105469 C 234.808594 447.105469 234.40625 447.234375 234.042969 447.496094 C 233.679688 447.757812 233.429688 448.101562 233.292969 448.523438 C 233.152344 448.949219 233.152344 449.371094 233.289062 449.796875 C 233.425781 450.222656 233.671875 450.566406 234.03125 450.828125 L 258.722656 468.761719 C 259.449219 469.289062 260.128906 469.871094 260.765625 470.503906 C 261.402344 471.136719 261.984375 471.816406 262.511719 472.542969 C 263.039062 473.269531 263.507812 474.03125 263.917969 474.832031 C 264.324219 475.632812 264.667969 476.460938 264.945312 477.3125 C 265.222656 478.167969 265.433594 479.039062 265.574219 479.925781 C 265.714844 480.8125 265.785156 481.703125 265.785156 482.601562 C 265.785156 483.5 265.714844 484.390625 265.574219 485.277344 C 265.433594 486.164062 265.222656 487.035156 264.945312 487.890625 L 255.515625 516.960938 C 255.371094 517.386719 255.367188 517.816406 255.503906 518.242188 C 255.640625 518.671875 255.890625 519.015625 256.257812 519.28125 C 256.621094 519.546875 257.027344 519.675781 257.476562 519.675781 C 257.925781 519.671875 258.332031 519.539062 258.691406 519.273438 L 283.378906 501.335938 C 284.105469 500.808594 284.871094 500.335938 285.671875 499.929688 C 286.472656 499.519531 287.300781 499.175781 288.15625 498.898438 C 289.007812 498.617188 289.882812 498.410156 290.769531 498.265625 C 291.65625 498.125 292.550781 498.054688 293.449219 498.054688 C 294.347656 498.054688 295.242188 498.125 296.132812 498.265625 C 297.019531 498.410156 297.890625 498.617188 298.746094 498.898438 C 299.601562 499.175781 300.429688 499.519531 301.230469 499.929688 C 302.03125 500.335938 302.792969 500.808594 303.519531 501.335938 Z M 303.519531 501.394531 " fill-opacity="1" fill-rule="nonzero"/><path fill="#ffffff" d="M 542.46875 531.527344 L 517.78125 513.59375 C 517.421875 513.328125 517.015625 513.195312 516.566406 513.195312 C 516.121094 513.195312 515.714844 513.328125 515.355469 513.59375 L 490.679688 531.527344 C 489.578125 532.34375 488.390625 533.019531 487.125 533.546875 C 485.855469 534.074219 484.542969 534.445312 483.1875 534.652344 C 481.828125 534.859375 480.464844 534.902344 479.097656 534.773438 C 477.730469 534.648438 476.398438 534.363281 475.101562 533.910156 C 474.445312 533.6875 473.835938 533.378906 473.265625 532.988281 C 472.695312 532.597656 472.1875 532.136719 471.746094 531.605469 C 471.304688 531.074219 470.941406 530.492188 470.660156 529.863281 C 470.375 529.230469 470.183594 528.574219 470.082031 527.890625 C 469.980469 527.207031 469.972656 526.523438 470.058594 525.835938 C 470.144531 525.152344 470.324219 524.488281 470.59375 523.851562 C 470.859375 523.214844 471.210938 522.625 471.640625 522.085938 C 472.070312 521.546875 472.566406 521.074219 473.128906 520.667969 L 477.46875 517.519531 C 477.808594 517.273438 478.105469 516.980469 478.351562 516.640625 C 478.601562 516.300781 478.792969 515.933594 478.925781 515.535156 C 479.058594 515.136719 479.125 514.726562 479.128906 514.304688 C 479.132812 513.886719 479.070312 513.472656 478.945312 513.074219 C 478.820312 512.671875 478.636719 512.296875 478.394531 511.953125 C 478.152344 511.609375 477.863281 511.3125 477.527344 511.058594 C 477.195312 510.808594 476.828125 510.613281 476.429688 510.472656 C 476.03125 510.335938 475.625 510.261719 475.203125 510.253906 C 474.910156 510.246094 474.617188 510.226562 474.328125 510.1875 C 474.035156 510.148438 473.75 510.089844 473.464844 510.019531 C 473.179688 509.945312 472.902344 509.855469 472.628906 509.75 C 472.355469 509.644531 472.089844 509.523438 471.828125 509.386719 C 471.570312 509.25 471.316406 509.101562 471.078125 508.933594 C 470.835938 508.769531 470.601562 508.589844 470.382812 508.394531 C 470.160156 508.203125 469.953125 507.996094 469.757812 507.78125 C 469.558594 507.5625 469.375 507.335938 469.207031 507.097656 C 469.035156 506.855469 468.878906 506.609375 468.738281 506.351562 C 468.597656 506.09375 468.472656 505.828125 468.363281 505.558594 C 468.25 505.285156 468.15625 505.007812 468.082031 504.726562 C 468.003906 504.441406 467.941406 504.15625 467.898438 503.867188 C 467.851562 503.578125 467.828125 503.285156 467.816406 502.992188 C 467.804688 502.699219 467.8125 502.40625 467.835938 502.113281 C 467.863281 501.820312 467.902344 501.53125 467.960938 501.246094 C 468.019531 500.957031 468.09375 500.675781 468.183594 500.394531 L 473.71875 483.328125 C 473.859375 482.90625 473.863281 482.480469 473.722656 482.054688 C 473.585938 481.632812 473.332031 481.289062 472.96875 481.035156 L 448.292969 463.097656 C 447.566406 462.570312 446.882812 461.988281 446.246094 461.351562 C 445.609375 460.714844 445.027344 460.035156 444.496094 459.304688 C 443.96875 458.578125 443.5 457.8125 443.089844 457.011719 C 442.679688 456.210938 442.335938 455.382812 442.058594 454.527344 C 441.78125 453.671875 441.570312 452.796875 441.429688 451.910156 C 441.289062 451.019531 441.21875 450.125 441.21875 449.226562 C 441.21875 448.328125 441.289062 447.433594 441.429688 446.542969 C 441.570312 445.65625 441.78125 444.78125 442.058594 443.925781 C 442.335938 443.070312 442.679688 442.242188 443.085938 441.441406 C 443.496094 440.640625 443.964844 439.875 444.492188 439.148438 C 445.023438 438.417969 445.605469 437.738281 446.242188 437.101562 C 446.878906 436.464844 447.5625 435.882812 448.289062 435.351562 C 449.019531 434.824219 449.78125 434.355469 450.585938 433.949219 C 451.386719 433.539062 452.214844 433.199219 453.070312 432.917969 C 453.925781 432.640625 454.800781 432.433594 455.6875 432.292969 C 456.578125 432.152344 457.472656 432.082031 458.371094 432.085938 L 488.871094 432.085938 C 489.324219 432.082031 489.734375 431.945312 490.097656 431.671875 C 490.460938 431.402344 490.710938 431.046875 490.84375 430.613281 L 500.257812 401.597656 C 500.539062 400.746094 500.882812 399.917969 501.292969 399.117188 C 501.699219 398.316406 502.167969 397.550781 502.699219 396.824219 C 503.226562 396.097656 503.808594 395.417969 504.445312 394.78125 C 505.082031 394.144531 505.765625 393.5625 506.492188 393.035156 C 507.222656 392.507812 507.984375 392.039062 508.785156 391.632812 C 509.589844 391.222656 510.417969 390.882812 511.273438 390.601562 C 512.128906 390.324219 513 390.117188 513.886719 389.976562 C 514.773438 389.835938 515.667969 389.765625 516.566406 389.765625 C 517.46875 389.765625 518.359375 389.835938 519.25 389.976562 C 520.136719 390.117188 521.007812 390.324219 521.863281 390.601562 C 522.71875 390.878906 523.546875 391.222656 524.347656 391.632812 C 525.152344 392.039062 525.914062 392.507812 526.644531 393.035156 C 527.371094 393.5625 528.054688 394.144531 528.691406 394.78125 C 529.324219 395.417969 529.910156 396.097656 530.4375 396.824219 C 530.96875 397.550781 531.4375 398.316406 531.84375 399.117188 C 532.253906 399.917969 532.597656 400.746094 532.878906 401.597656 L 542.308594 430.613281 C 542.433594 431.046875 542.679688 431.402344 543.042969 431.671875 C 543.402344 431.945312 543.8125 432.082031 544.265625 432.085938 L 574.765625 432.085938 C 575.664062 432.082031 576.558594 432.152344 577.445312 432.292969 C 578.335938 432.433594 579.207031 432.640625 580.066406 432.917969 C 580.921875 433.199219 581.75 433.539062 582.550781 433.949219 C 583.351562 434.355469 584.117188 434.824219 584.847656 435.355469 C 585.574219 435.882812 586.257812 436.464844 586.894531 437.101562 C 587.53125 437.738281 588.113281 438.417969 588.640625 439.148438 C 589.171875 439.875 589.640625 440.640625 590.046875 441.441406 C 590.457031 442.242188 590.800781 443.070312 591.078125 443.925781 C 591.355469 444.78125 591.566406 445.65625 591.707031 446.542969 C 591.847656 447.433594 591.917969 448.328125 591.917969 449.226562 C 591.917969 450.125 591.847656 451.019531 591.707031 451.910156 C 591.566406 452.796875 591.355469 453.671875 591.078125 454.527344 C 590.796875 455.382812 590.457031 456.210938 590.046875 457.011719 C 589.636719 457.8125 589.167969 458.578125 588.640625 459.304688 C 588.109375 460.035156 587.527344 460.714844 586.890625 461.351562 C 586.253906 461.988281 585.570312 462.570312 584.84375 463.097656 L 560.167969 481.035156 C 559.804688 481.289062 559.550781 481.632812 559.414062 482.054688 C 559.273438 482.480469 559.277344 482.90625 559.417969 483.328125 L 568.851562 512.339844 C 569.136719 513.195312 569.351562 514.066406 569.496094 514.953125 C 569.644531 515.839844 569.71875 516.734375 569.722656 517.636719 C 569.722656 518.535156 569.65625 519.429688 569.515625 520.320312 C 569.378906 521.207031 569.167969 522.078125 568.890625 522.933594 C 568.609375 523.789062 568.265625 524.617188 567.851562 525.417969 C 567.441406 526.21875 566.96875 526.980469 566.4375 527.707031 C 565.902344 528.429688 565.316406 529.109375 564.675781 529.738281 C 564.03125 530.371094 563.34375 530.945312 562.613281 531.46875 C 561.886719 532.007812 561.128906 532.484375 560.328125 532.898438 C 559.527344 533.316406 558.699219 533.667969 557.84375 533.949219 C 556.988281 534.234375 556.117188 534.449219 555.226562 534.589844 C 554.335938 534.734375 553.441406 534.804688 552.539062 534.804688 C 551.640625 534.804688 550.742188 534.734375 549.855469 534.589844 C 548.964844 534.449219 548.089844 534.234375 547.234375 533.949219 C 546.378906 533.667969 545.554688 533.316406 544.753906 532.898438 C 543.953125 532.484375 543.191406 532.007812 542.46875 531.46875 Z M 544.265625 447.179688 C 543.363281 447.179688 542.46875 447.113281 541.582031 446.972656 C 540.691406 446.832031 539.820312 446.625 538.960938 446.347656 C 538.105469 446.070312 537.277344 445.726562 536.476562 445.316406 C 535.671875 444.910156 534.90625 444.441406 534.179688 443.914062 C 533.449219 443.382812 532.769531 442.800781 532.132812 442.164062 C 531.496094 441.527344 530.914062 440.847656 530.382812 440.117188 C 529.855469 439.390625 529.386719 438.625 528.976562 437.824219 C 528.570312 437.019531 528.226562 436.191406 527.949219 435.335938 L 518.53125 406.320312 C 518.398438 405.894531 518.148438 405.546875 517.785156 405.28125 C 517.421875 405.015625 517.015625 404.882812 516.566406 404.882812 C 516.117188 404.882812 515.714844 405.015625 515.351562 405.28125 C 514.988281 405.546875 514.738281 405.894531 514.605469 406.320312 L 505.1875 435.335938 C 504.910156 436.191406 504.566406 437.019531 504.160156 437.824219 C 503.75 438.625 503.28125 439.390625 502.753906 440.117188 C 502.222656 440.847656 501.640625 441.527344 501.003906 442.164062 C 500.367188 442.800781 499.6875 443.382812 498.957031 443.914062 C 498.230469 444.441406 497.464844 444.910156 496.660156 445.316406 C 495.859375 445.726562 495.03125 446.070312 494.171875 446.347656 C 493.316406 446.625 492.445312 446.832031 491.554688 446.972656 C 490.667969 447.113281 489.773438 447.179688 488.871094 447.179688 L 458.371094 447.179688 C 457.925781 447.179688 457.523438 447.308594 457.160156 447.570312 C 456.800781 447.832031 456.550781 448.171875 456.410156 448.597656 C 456.269531 449.019531 456.269531 449.445312 456.40625 449.871094 C 456.542969 450.292969 456.789062 450.636719 457.152344 450.902344 L 481.839844 468.835938 C 482.566406 469.363281 483.246094 469.945312 483.882812 470.578125 C 484.519531 471.210938 485.101562 471.890625 485.628906 472.617188 C 486.160156 473.34375 486.625 474.105469 487.035156 474.90625 C 487.441406 475.707031 487.785156 476.53125 488.0625 477.386719 C 488.34375 478.242188 488.550781 479.109375 488.691406 479.996094 C 488.832031 480.882812 488.902344 481.777344 488.902344 482.675781 C 488.902344 483.574219 488.832031 484.464844 488.691406 485.351562 C 488.550781 486.238281 488.339844 487.109375 488.0625 487.964844 L 484.882812 497.6875 C 486.914062 498.894531 488.65625 500.425781 490.113281 502.285156 C 491.570312 504.140625 492.640625 506.199219 493.328125 508.457031 C 493.535156 509.117188 493.707031 509.78125 493.84375 510.457031 L 506.496094 501.277344 C 507.222656 500.746094 507.988281 500.277344 508.789062 499.867188 C 509.589844 499.457031 510.417969 499.113281 511.269531 498.832031 C 512.125 498.554688 512.996094 498.34375 513.886719 498.203125 C 514.773438 498.058594 515.667969 497.988281 516.566406 497.988281 C 517.46875 497.988281 518.363281 498.058594 519.25 498.203125 C 520.136719 498.34375 521.011719 498.554688 521.863281 498.832031 C 522.71875 499.113281 523.546875 499.457031 524.347656 499.867188 C 525.148438 500.277344 525.914062 500.746094 526.640625 501.277344 L 551.328125 519.210938 C 551.6875 519.480469 552.09375 519.613281 552.542969 519.617188 C 552.992188 519.617188 553.398438 519.488281 553.761719 519.222656 C 554.125 518.957031 554.375 518.613281 554.511719 518.183594 C 554.648438 517.757812 554.648438 517.328125 554.503906 516.902344 L 545.074219 487.890625 C 544.796875 487.035156 544.585938 486.164062 544.445312 485.277344 C 544.304688 484.390625 544.234375 483.5 544.234375 482.601562 C 544.234375 481.703125 544.304688 480.8125 544.445312 479.925781 C 544.585938 479.039062 544.792969 478.167969 545.070312 477.3125 C 545.351562 476.460938 545.691406 475.632812 546.101562 474.832031 C 546.507812 474.03125 546.976562 473.269531 547.507812 472.542969 C 548.035156 471.816406 548.617188 471.136719 549.253906 470.503906 C 549.886719 469.871094 550.570312 469.289062 551.296875 468.761719 L 575.984375 450.828125 C 576.34375 450.566406 576.59375 450.222656 576.730469 449.796875 C 576.867188 449.371094 576.867188 448.949219 576.726562 448.523438 C 576.585938 448.101562 576.335938 447.757812 575.976562 447.496094 C 575.613281 447.234375 575.210938 447.105469 574.765625 447.105469 Z M 544.265625 447.179688 " fill-opacity="1" fill-rule="nonzero"/><path fill="#ffffff" d="M 265.386719 375.574219 C 264.9375 375.570312 264.492188 375.53125 264.050781 375.449219 C 263.609375 375.367188 263.175781 375.25 262.757812 375.09375 C 262.335938 374.933594 261.933594 374.742188 261.546875 374.511719 C 261.160156 374.28125 260.796875 374.019531 260.457031 373.726562 C 260.117188 373.433594 259.808594 373.113281 259.523438 372.761719 C 259.242188 372.414062 258.992188 372.042969 258.777344 371.648438 C 258.5625 371.253906 258.382812 370.84375 258.238281 370.417969 C 258.097656 369.992188 257.992188 369.558594 257.925781 369.113281 C 256.925781 362.082031 256.4375 355.015625 256.457031 347.914062 C 256.457031 344.917969 256.550781 341.925781 256.734375 338.9375 C 256.921875 335.949219 257.195312 332.972656 257.566406 330 C 257.933594 327.027344 258.394531 324.070312 258.945312 321.128906 C 259.496094 318.183594 260.136719 315.261719 260.867188 312.359375 C 261.597656 309.453125 262.417969 306.578125 263.324219 303.722656 C 264.234375 300.871094 265.226562 298.046875 266.308594 295.253906 C 267.390625 292.464844 268.558594 289.707031 269.808594 286.988281 C 271.058594 284.265625 272.394531 281.589844 273.808594 278.949219 C 275.226562 276.3125 276.722656 273.71875 278.296875 271.175781 C 279.875 268.628906 281.527344 266.132812 283.253906 263.6875 C 284.984375 261.246094 286.789062 258.855469 288.664062 256.523438 C 290.539062 254.191406 292.488281 251.917969 294.503906 249.703125 C 296.519531 247.488281 298.601562 245.339844 300.75 243.253906 C 302.898438 241.171875 305.109375 239.152344 307.382812 237.203125 C 309.65625 235.253906 311.984375 233.378906 314.375 231.570312 C 316.761719 229.765625 319.203125 228.035156 321.699219 226.378906 C 324.195312 224.722656 326.738281 223.148438 329.328125 221.648438 C 331.921875 220.148438 334.554688 218.730469 337.234375 217.394531 C 339.914062 216.058594 342.632812 214.804688 345.390625 213.636719 C 348.144531 212.46875 350.933594 211.382812 353.757812 210.386719 C 356.582031 209.386719 359.433594 208.480469 362.3125 207.65625 C 365.191406 206.835938 368.089844 206.101562 371.015625 205.457031 C 373.941406 204.816406 376.882812 204.261719 379.839844 203.800781 C 382.796875 203.335938 385.765625 202.964844 388.75 202.6875 C 391.730469 202.40625 394.714844 202.21875 397.707031 202.125 C 400.699219 202.027344 403.695312 202.023438 406.6875 202.113281 C 409.679688 202.199219 412.667969 202.382812 415.648438 202.652344 C 418.628906 202.925781 421.601562 203.289062 424.558594 203.746094 C 427.519531 204.199219 430.460938 204.746094 433.386719 205.382812 C 436.3125 206.019531 439.214844 206.746094 442.097656 207.558594 C 444.980469 208.375 447.832031 209.277344 450.65625 210.269531 C 453.484375 211.257812 456.273438 212.335938 459.035156 213.496094 C 459.488281 213.691406 459.921875 213.925781 460.332031 214.207031 C 460.742188 214.484375 461.121094 214.800781 461.46875 215.152344 C 461.816406 215.503906 462.125 215.890625 462.394531 216.304688 C 462.667969 216.71875 462.898438 217.152344 463.082031 217.613281 C 463.269531 218.070312 463.40625 218.542969 463.5 219.03125 C 463.59375 219.515625 463.636719 220.007812 463.632812 220.503906 C 463.628906 221 463.578125 221.488281 463.476562 221.972656 C 463.375 222.457031 463.230469 222.929688 463.035156 223.382812 C 462.84375 223.839844 462.605469 224.273438 462.328125 224.683594 C 462.050781 225.09375 461.734375 225.472656 461.382812 225.816406 C 461.027344 226.164062 460.644531 226.476562 460.230469 226.746094 C 459.816406 227.019531 459.378906 227.246094 458.921875 227.433594 C 458.460938 227.617188 457.988281 227.757812 457.503906 227.851562 C 457.015625 227.945312 456.527344 227.988281 456.03125 227.984375 C 455.535156 227.980469 455.046875 227.929688 454.558594 227.828125 C 454.074219 227.726562 453.605469 227.578125 453.148438 227.386719 C 450.675781 226.34375 448.171875 225.378906 445.636719 224.492188 C 443.105469 223.601562 440.546875 222.792969 437.960938 222.0625 C 435.378906 221.332031 432.777344 220.683594 430.152344 220.113281 C 427.527344 219.542969 424.890625 219.050781 422.238281 218.644531 C 419.582031 218.234375 416.917969 217.910156 414.246094 217.664062 C 411.574219 217.421875 408.894531 217.257812 406.210938 217.179688 C 403.527344 217.101562 400.84375 217.105469 398.160156 217.191406 C 395.476562 217.277344 392.800781 217.445312 390.125 217.695312 C 387.453125 217.945312 384.789062 218.277344 382.136719 218.691406 C 379.484375 219.109375 376.847656 219.601562 374.226562 220.179688 C 371.605469 220.757812 369.003906 221.414062 366.421875 222.152344 C 363.839844 222.886719 361.28125 223.703125 358.75 224.597656 C 356.21875 225.492188 353.71875 226.464844 351.246094 227.511719 C 348.777344 228.558594 346.339844 229.683594 343.9375 230.882812 C 341.535156 232.078125 339.171875 233.351562 336.847656 234.695312 C 334.523438 236.039062 332.242188 237.453125 330.003906 238.9375 C 327.765625 240.421875 325.578125 241.972656 323.433594 243.589844 C 321.292969 245.210938 319.203125 246.890625 317.164062 248.640625 C 315.128906 250.386719 313.144531 252.195312 311.21875 254.066406 C 309.292969 255.933594 307.421875 257.859375 305.617188 259.84375 C 303.808594 261.828125 302.0625 263.867188 300.378906 265.960938 C 298.695312 268.050781 297.078125 270.191406 295.527344 272.382812 C 293.976562 274.574219 292.496094 276.8125 291.082031 279.09375 C 289.667969 281.378906 288.324219 283.703125 287.054688 286.066406 C 285.785156 288.433594 284.589844 290.832031 283.464844 293.273438 C 282.34375 295.710938 281.296875 298.183594 280.328125 300.683594 C 279.355469 303.1875 278.464844 305.71875 277.648438 308.277344 C 276.835938 310.835938 276.097656 313.414062 275.441406 316.019531 C 274.785156 318.621094 274.210938 321.242188 273.71875 323.882812 C 273.222656 326.519531 272.808594 329.171875 272.476562 331.835938 C 272.148438 334.5 271.898438 337.171875 271.730469 339.851562 C 271.5625 342.53125 271.480469 345.214844 271.476562 347.898438 C 271.480469 354.273438 271.941406 360.613281 272.859375 366.921875 C 272.933594 367.410156 272.953125 367.90625 272.929688 368.398438 C 272.902344 368.894531 272.832031 369.382812 272.707031 369.863281 C 272.585938 370.34375 272.417969 370.808594 272.207031 371.253906 C 271.992188 371.703125 271.738281 372.125 271.441406 372.519531 C 271.144531 372.917969 270.8125 373.28125 270.445312 373.613281 C 270.074219 373.945312 269.679688 374.238281 269.25 374.492188 C 268.824219 374.742188 268.378906 374.953125 267.910156 375.117188 C 267.445312 375.28125 266.964844 375.398438 266.476562 375.46875 C 266.113281 375.53125 265.75 375.566406 265.386719 375.574219 Z M 265.386719 375.574219 " fill-opacity="1" fill-rule="nonzero"/><path fill="#ffffff" d="M 539.144531 375.574219 C 538.773438 375.574219 538.40625 375.542969 538.042969 375.484375 C 537.550781 375.414062 537.074219 375.296875 536.605469 375.128906 C 536.140625 374.964844 535.695312 374.753906 535.269531 374.5 C 534.84375 374.246094 534.445312 373.957031 534.078125 373.625 C 533.710938 373.292969 533.378906 372.929688 533.082031 372.53125 C 532.789062 372.132812 532.535156 371.710938 532.320312 371.265625 C 532.109375 370.816406 531.941406 370.355469 531.820312 369.875 C 531.699219 369.394531 531.625 368.90625 531.601562 368.414062 C 531.574219 367.917969 531.597656 367.425781 531.671875 366.9375 C 532.585938 360.628906 533.039062 354.285156 533.039062 347.914062 C 533.046875 334.648438 531.085938 321.679688 527.152344 309.011719 C 526.984375 308.535156 526.863281 308.042969 526.789062 307.539062 C 526.71875 307.035156 526.699219 306.527344 526.730469 306.019531 C 526.761719 305.511719 526.84375 305.011719 526.976562 304.523438 C 527.109375 304.03125 527.289062 303.558594 527.519531 303.101562 C 527.746094 302.648438 528.019531 302.222656 528.332031 301.820312 C 528.648438 301.421875 529 301.058594 529.386719 300.730469 C 529.777344 300.402344 530.195312 300.117188 530.640625 299.871094 C 531.085938 299.628906 531.554688 299.429688 532.039062 299.28125 C 532.527344 299.132812 533.023438 299.035156 533.53125 298.984375 C 534.035156 298.9375 534.542969 298.941406 535.046875 298.992188 C 535.554688 299.046875 536.050781 299.152344 536.535156 299.304688 C 537.019531 299.460938 537.484375 299.660156 537.929688 299.910156 C 538.371094 300.160156 538.785156 300.449219 539.171875 300.78125 C 539.558594 301.113281 539.90625 301.480469 540.214844 301.882812 C 540.527344 302.289062 540.792969 302.71875 541.015625 303.175781 C 541.238281 303.632812 541.414062 304.105469 541.542969 304.597656 C 545.929688 318.730469 548.117188 333.191406 548.105469 347.988281 C 548.125 355.089844 547.632812 362.15625 546.632812 369.1875 C 546.566406 369.628906 546.457031 370.0625 546.3125 370.484375 C 546.164062 370.910156 545.984375 371.316406 545.765625 371.707031 C 545.546875 372.097656 545.292969 372.46875 545.011719 372.8125 C 544.726562 373.160156 544.414062 373.476562 544.074219 373.769531 C 543.730469 374.058594 543.367188 374.316406 542.980469 374.542969 C 542.59375 374.769531 542.191406 374.957031 541.769531 375.113281 C 541.351562 375.265625 540.917969 375.382812 540.476562 375.460938 C 540.035156 375.535156 539.59375 375.574219 539.144531 375.574219 Z M 539.144531 375.574219 " fill-opacity="1" fill-rule="nonzero"/><path fill="#ffffff" d="M 402.257812 418.445312 C 400.476562 418.449219 398.710938 418.285156 396.957031 417.957031 C 395.207031 417.628906 393.5 417.140625 391.839844 416.496094 C 390.183594 415.847656 388.597656 415.050781 387.085938 414.109375 C 385.574219 413.164062 384.164062 412.089844 382.851562 410.882812 L 305.65625 339.453125 C 304.960938 338.820312 304.300781 338.152344 303.671875 337.453125 C 303.042969 336.75 302.449219 336.023438 301.894531 335.265625 C 301.335938 334.503906 300.820312 333.722656 300.339844 332.914062 C 299.859375 332.101562 299.421875 331.273438 299.023438 330.417969 C 298.628906 329.566406 298.273438 328.695312 297.960938 327.808594 C 297.652344 326.921875 297.382812 326.019531 297.160156 325.105469 C 296.9375 324.191406 296.761719 323.269531 296.628906 322.339844 C 296.496094 321.40625 296.414062 320.472656 296.371094 319.53125 C 296.332031 318.59375 296.339844 317.652344 296.394531 316.714844 C 296.445312 315.777344 296.546875 314.839844 296.691406 313.910156 C 296.835938 312.984375 297.027344 312.0625 297.261719 311.152344 C 297.5 310.242188 297.78125 309.34375 298.105469 308.460938 C 298.429688 307.578125 298.796875 306.714844 299.207031 305.867188 C 299.617188 305.019531 300.066406 304.195312 300.558594 303.394531 C 301.046875 302.59375 301.578125 301.816406 302.144531 301.066406 C 302.710938 300.316406 303.316406 299.597656 303.953125 298.90625 C 304.59375 298.214844 305.261719 297.558594 305.96875 296.933594 C 306.671875 296.308594 307.402344 295.71875 308.164062 295.167969 C 308.925781 294.617188 309.710938 294.101562 310.523438 293.628906 C 311.335938 293.152344 312.171875 292.71875 313.023438 292.328125 C 313.878906 291.933594 314.75 291.585938 315.640625 291.277344 C 316.53125 290.972656 317.433594 290.710938 318.347656 290.492188 C 319.261719 290.277344 320.1875 290.105469 321.117188 289.976562 C 322.050781 289.851562 322.988281 289.769531 323.925781 289.738281 C 324.867188 289.703125 325.804688 289.714844 326.746094 289.773438 C 327.683594 289.832031 328.617188 289.9375 329.546875 290.085938 C 330.472656 290.238281 331.390625 290.433594 332.300781 290.675781 C 333.210938 290.914062 334.105469 291.199219 334.988281 291.53125 C 335.867188 291.859375 336.730469 292.230469 337.574219 292.644531 C 338.417969 293.0625 339.242188 293.515625 340.039062 294.011719 C 340.839844 294.507812 341.613281 295.039062 342.359375 295.613281 C 343.105469 296.183594 343.824219 296.792969 344.511719 297.433594 L 398.757812 347.617188 L 507.484375 207.171875 C 508.0625 206.449219 508.679688 205.757812 509.328125 205.097656 C 509.976562 204.4375 510.652344 203.808594 511.363281 203.210938 C 512.070312 202.617188 512.808594 202.058594 513.570312 201.53125 C 514.335938 201.007812 515.121094 200.523438 515.933594 200.074219 C 516.742188 199.628906 517.574219 199.21875 518.421875 198.851562 C 519.273438 198.484375 520.140625 198.160156 521.019531 197.878906 C 521.902344 197.59375 522.796875 197.355469 523.699219 197.160156 C 524.605469 196.960938 525.519531 196.808594 526.4375 196.703125 C 527.355469 196.59375 528.28125 196.53125 529.207031 196.511719 C 530.132812 196.492188 531.054688 196.519531 531.980469 196.589844 C 532.902344 196.664062 533.820312 196.777344 534.730469 196.9375 C 535.644531 197.097656 536.546875 197.304688 537.4375 197.550781 C 538.332031 197.796875 539.210938 198.089844 540.074219 198.421875 C 540.9375 198.753906 541.78125 199.128906 542.609375 199.542969 C 543.4375 199.960938 544.242188 200.414062 545.027344 200.90625 C 545.8125 201.402344 546.570312 201.929688 547.300781 202.496094 C 548.035156 203.0625 548.738281 203.664062 549.410156 204.300781 C 550.085938 204.933594 550.726562 205.601562 551.335938 206.296875 C 551.945312 206.996094 552.519531 207.722656 553.058594 208.472656 C 553.597656 209.226562 554.097656 210.003906 554.5625 210.804688 C 555.023438 211.609375 555.449219 212.429688 555.832031 213.273438 C 556.214844 214.117188 556.558594 214.976562 556.859375 215.851562 C 557.160156 216.726562 557.417969 217.617188 557.628906 218.515625 C 557.84375 219.417969 558.015625 220.328125 558.140625 221.242188 C 558.265625 222.160156 558.347656 223.082031 558.382812 224.007812 C 558.421875 224.933594 558.414062 225.859375 558.359375 226.78125 C 558.304688 227.707031 558.207031 228.625 558.066406 229.542969 C 557.921875 230.457031 557.738281 231.363281 557.507812 232.257812 C 557.277344 233.15625 557.003906 234.039062 556.6875 234.910156 C 556.371094 235.78125 556.011719 236.632812 555.613281 237.46875 C 555.214844 238.304688 554.777344 239.121094 554.300781 239.914062 C 553.820312 240.707031 553.304688 241.472656 552.753906 242.21875 L 424.886719 407.351562 C 423.667969 408.917969 422.304688 410.34375 420.792969 411.628906 C 419.28125 412.910156 417.652344 414.023438 415.910156 414.972656 C 414.164062 415.917969 412.34375 416.675781 410.441406 417.242188 C 408.542969 417.808594 406.601562 418.175781 404.625 418.34375 C 403.847656 418.417969 403.050781 418.445312 402.257812 418.445312 Z M 325.089844 304.953125 L 324.546875 304.953125 C 323.199219 304.996094 321.890625 305.238281 320.617188 305.675781 C 319.34375 306.109375 318.160156 306.722656 317.070312 307.511719 C 315.980469 308.300781 315.027344 309.234375 314.214844 310.304688 C 313.402344 311.378906 312.761719 312.546875 312.296875 313.8125 C 311.832031 315.074219 311.5625 316.378906 311.488281 317.722656 C 311.414062 319.066406 311.535156 320.390625 311.855469 321.699219 C 312.175781 323.007812 312.679688 324.238281 313.367188 325.398438 C 314.058594 326.554688 314.898438 327.585938 315.894531 328.492188 L 393.152344 399.761719 C 394.539062 401.050781 396.132812 402.007812 397.925781 402.628906 C 399.71875 403.246094 401.558594 403.480469 403.449219 403.320312 C 405.339844 403.15625 407.121094 402.621094 408.789062 401.71875 C 410.457031 400.8125 411.875 399.609375 413.042969 398.113281 L 540.894531 232.960938 C 541.453125 232.261719 541.9375 231.511719 542.347656 230.714844 C 542.757812 229.917969 543.085938 229.085938 543.332031 228.222656 C 543.578125 227.359375 543.734375 226.480469 543.804688 225.585938 C 543.875 224.695312 543.855469 223.800781 543.75 222.910156 C 543.644531 222.019531 543.449219 221.148438 543.167969 220.296875 C 542.890625 219.445312 542.527344 218.628906 542.085938 217.847656 C 541.644531 217.066406 541.128906 216.339844 540.539062 215.660156 C 539.953125 214.984375 539.304688 214.371094 538.59375 213.820312 C 537.886719 213.273438 537.128906 212.796875 536.324219 212.398438 C 535.523438 212 534.6875 211.6875 533.820312 211.453125 C 532.953125 211.21875 532.074219 211.074219 531.179688 211.019531 C 530.285156 210.960938 529.390625 210.992188 528.503906 211.113281 C 527.613281 211.230469 526.746094 211.4375 525.898438 211.730469 C 525.050781 212.023438 524.238281 212.394531 523.464844 212.847656 C 522.691406 213.300781 521.96875 213.828125 521.300781 214.425781 C 520.632812 215.023438 520.027344 215.679688 519.488281 216.394531 L 405.714844 363.347656 C 405.394531 363.757812 405.035156 364.136719 404.636719 364.472656 C 404.238281 364.8125 403.8125 365.105469 403.351562 365.355469 C 402.890625 365.605469 402.414062 365.804688 401.910156 365.953125 C 401.410156 366.101562 400.902344 366.199219 400.378906 366.242188 C 399.859375 366.285156 399.339844 366.277344 398.820312 366.210938 C 398.300781 366.148438 397.796875 366.03125 397.300781 365.859375 C 396.808594 365.691406 396.335938 365.472656 395.886719 365.207031 C 395.4375 364.9375 395.019531 364.628906 394.636719 364.273438 L 334.300781 308.496094 C 333.042969 307.347656 331.621094 306.464844 330.03125 305.851562 C 328.441406 305.238281 326.792969 304.941406 325.089844 304.953125 Z M 325.089844 304.953125 " fill-opacity="1" fill-rule="nonzero"/></svg>