<svg xmlns="http://www.w3.org/2000/svg" xmlns:xlink="http://www.w3.org/1999/xlink" width="1080" zoomAndPan="magnify" viewBox="0 0 810 809.999993" height="1080" preserveAspectRatio="xMidYMid meet" version="1.0"><defs><clipPath id="6f7a83a45c"><path d="M 96.617188 96.617188 L 713.382812 96.617188 L 713.382812 713.382812 L 96.617188 713.382812 Z M 96.617188 96.617188 " clip-rule="nonzero"/></clipPath><clipPath id="c448032100"><path d="M 405 96.617188 C 234.683594 96.617188 96.617188 234.683594 96.617188 405 C 96.617188 575.316406 234.683594 713.382812 405 713.382812 C 575.316406 713.382812 713.382812 575.316406 713.382812 405 C 713.382812 234.683594 575.316406 96.617188 405 96.617188 Z M 405 96.617188 " clip-rule="nonzero"/></clipPath><clipPath id="f127ca56bd"><path d="M 233.332031 189.746094 L 576.832031 189.746094 L 576.832031 620.246094 L 233.332031 620.246094 Z M 233.332031 189.746094 " clip-rule="nonzero"/></clipPath></defs><g clip-path="url(#6f7a83a45c)"><g clip-path="url(#c448032100)"><path fill="#ff712b" d="M 96.617188 96.617188 L 713.382812 96.617188 L 713.382812 713.382812 L 96.617188 713.382812 Z M 96.617188 96.617188 " fill-opacity="1" fill-rule="nonzero"/></g></g><g clip-path="url(#f127ca56bd)"><path fill="#ffffff" d="M 267.171875 270.765625 L 280.613281 327.992188 L 267.171875 384.964844 L 317.203125 415.816406 L 347.824219 465.828125 L 405.078125 452.390625 L 462.332031 465.828125 L 492.949219 415.816406 L 542.984375 384.964844 L 529.539062 327.992188 L 542.984375 270.765625 L 493.199219 239.914062 L 462.332031 189.90625 L 405.078125 203.589844 L 348.070312 190.15625 L 316.957031 239.914062 Z M 405.324219 428.507812 C 378.917969 428.507812 353.589844 418.019531 334.917969 399.359375 C 316.246094 380.695312 305.753906 355.378906 305.753906 328.984375 C 305.753906 302.589844 316.246094 277.277344 334.917969 258.613281 C 353.589844 239.949219 378.917969 229.464844 405.324219 229.464844 C 460.089844 229.464844 504.648438 274 504.648438 328.738281 C 504.648438 383.972656 460.089844 428.507812 405.324219 428.507812 Z M 404.828125 403.625 C 363.503906 403.625 330.398438 370.285156 330.398438 328.984375 C 330.398438 287.933594 363.503906 254.347656 404.828125 254.347656 C 446.148438 254.347656 479.753906 287.933594 479.753906 328.984375 C 479.753906 370.285156 446.148438 403.625 404.828125 403.625 Z M 502.074219 435.105469 L 468.554688 486.726562 L 416.777344 475.03125 L 479.753906 620.082031 L 514.605469 565.347656 L 576.835938 565.347656 Z M 305.753906 435.105469 L 339.855469 488.714844 L 392.878906 476.027344 L 330.398438 620.082031 L 295.546875 565.347656 L 233.316406 565.347656 Z M 305.753906 435.105469 " fill-opacity="1" fill-rule="nonzero"/></g></svg>