<svg xmlns="http://www.w3.org/2000/svg" xmlns:xlink="http://www.w3.org/1999/xlink" width="1080" zoomAndPan="magnify" viewBox="0 0 810 809.999993" height="1080" preserveAspectRatio="xMidYMid meet" version="1.0"><defs><clipPath id="f51d8b8b85"><path d="M 96.617188 96.617188 L 713.382812 96.617188 L 713.382812 713.382812 L 96.617188 713.382812 Z M 96.617188 96.617188 " clip-rule="nonzero"/></clipPath><clipPath id="5165a39ac8"><path d="M 405 96.617188 C 234.683594 96.617188 96.617188 234.6875 96.617188 405 C 96.617188 575.316406 234.683594 713.382812 405 713.382812 C 575.316406 713.382812 713.382812 575.316406 713.382812 405 C 713.382812 234.6875 575.316406 96.617188 405 96.617188 Z M 405 96.617188 " clip-rule="nonzero"/></clipPath><clipPath id="9898fd37b1"><path d="M 504 445 L 634.046875 445 L 634.046875 541 L 504 541 Z M 504 445 " clip-rule="nonzero"/></clipPath></defs><g clip-path="url(#f51d8b8b85)"><g clip-path="url(#5165a39ac8)"><path fill="#ff712b" d="M 96.617188 96.617188 L 713.382812 96.617188 L 713.382812 713.382812 L 96.617188 713.382812 Z M 96.617188 96.617188 " fill-opacity="1" fill-rule="nonzero"/></g></g><path fill="#ffffff" d="M 385.550781 415.785156 C 430.660156 429.195312 479.574219 393.441406 478.867188 345.101562 C 474.84375 247.769531 335.964844 247.773438 331.949219 345.101562 C 331.949219 378.6875 354.664062 407.121094 385.550781 415.785156 Z M 385.550781 415.785156 " fill-opacity="1" fill-rule="nonzero"/><path fill="#ffffff" d="M 523.808594 533.449219 C 514.164062 476.902344 464.730469 433.761719 405.40625 433.761719 C 338.40625 433.265625 282.316406 490.976562 285.699219 556.492188 C 286.761719 559.757812 289.867188 561.964844 293.378906 561.964844 L 517.433594 561.964844 C 530.914062 560.828125 524.246094 542.019531 523.808594 533.449219 Z M 523.808594 533.449219 " fill-opacity="1" fill-rule="nonzero"/><path fill="#ffffff" d="M 547.996094 440.132812 C 577.574219 440.132812 601.679688 416.027344 601.679688 386.449219 C 598.984375 315.4375 496.992188 315.457031 494.308594 386.449219 C 494.308594 416.027344 518.414062 440.132812 547.996094 440.132812 Z M 547.996094 440.132812 " fill-opacity="1" fill-rule="nonzero"/><g clip-path="url(#9898fd37b1)"><path fill="#ffffff" d="M 547.996094 445.855469 C 532.796875 445.855469 517.761719 449.855469 504.6875 457.457031 C 508.527344 461.460938 512.039062 465.792969 515.308594 470.285156 C 530.050781 490.175781 539.253906 514.894531 541.046875 540.148438 C 541.046875 540.148438 626.027344 540.148438 626.027344 540.148438 C 630.523438 540.148438 634.199219 536.472656 634.199219 531.976562 C 634.199219 484.503906 595.550781 445.855469 547.996094 445.855469 Z M 547.996094 445.855469 " fill-opacity="1" fill-rule="nonzero"/></g><path fill="#ffffff" d="M 262.820312 440.132812 C 292.398438 440.132812 316.503906 416.027344 316.503906 386.449219 C 313.808594 315.4375 211.820312 315.457031 209.136719 386.449219 C 209.136719 416.027344 233.242188 440.132812 262.820312 440.132812 Z M 262.820312 440.132812 " fill-opacity="1" fill-rule="nonzero"/><path fill="#ffffff" d="M 306.128906 457.457031 C 250.410156 423.863281 175.453125 466.8125 176.617188 531.980469 C 176.613281 536.472656 180.292969 540.148438 184.785156 540.148438 L 269.765625 540.148438 C 271.976562 509.140625 285.128906 479.710938 306.128906 457.457031 Z M 306.128906 457.457031 " fill-opacity="1" fill-rule="nonzero"/></svg>