<svg xmlns="http://www.w3.org/2000/svg" xmlns:xlink="http://www.w3.org/1999/xlink" width="1080" zoomAndPan="magnify" viewBox="0 0 810 809.999993" height="1080" preserveAspectRatio="xMidYMid meet" version="1.0"><defs><clipPath id="6db62aceb4"><path d="M 96.617188 96.617188 L 713.382812 96.617188 L 713.382812 713.382812 L 96.617188 713.382812 Z M 96.617188 96.617188 " clip-rule="nonzero"/></clipPath><clipPath id="425cc20b32"><path d="M 405 96.617188 C 234.683594 96.617188 96.617188 234.683594 96.617188 405 C 96.617188 575.316406 234.683594 713.382812 405 713.382812 C 575.316406 713.382812 713.382812 575.316406 713.382812 405 C 713.382812 234.683594 575.316406 96.617188 405 96.617188 Z M 405 96.617188 " clip-rule="nonzero"/></clipPath><clipPath id="29ba6b8ca5"><path d="M 217 225.132812 L 595 225.132812 L 595 585 L 217 585 Z M 217 225.132812 " clip-rule="nonzero"/></clipPath></defs><g clip-path="url(#6db62aceb4)"><g clip-path="url(#425cc20b32)"><path fill="#ff712b" d="M 96.617188 96.617188 L 713.382812 96.617188 L 713.382812 713.382812 L 96.617188 713.382812 Z M 96.617188 96.617188 " fill-opacity="1" fill-rule="nonzero"/></g></g><g clip-path="url(#29ba6b8ca5)"><path fill="#ffffff" d="M 385.09375 559.507812 L 283.777344 559.507812 L 283.777344 420.28125 C 287.675781 421.539062 291.636719 422.457031 295.617188 423.039062 L 295.617188 544.707031 L 370.289062 544.707031 Z M 467.476562 559.507812 L 551.347656 559.507812 L 551.347656 475.621094 L 539.507812 487.460938 L 539.507812 544.707031 L 482.277344 544.707031 Z M 551.347656 393.613281 L 551.347656 225.039062 L 283.777344 225.039062 L 283.777344 280.679688 C 287.636719 279.433594 291.597656 278.507812 295.617188 277.910156 L 295.617188 239.839844 L 539.507812 239.839844 L 539.507812 405.453125 Z M 487.367188 457.601562 L 333.570312 457.601562 C 328.335938 457.601562 324.234375 453.5 324.234375 448.269531 C 324.234375 443.039062 328.335938 438.9375 333.570312 438.9375 L 501.554688 438.9375 C 502.886719 438.9375 504.144531 439.203125 505.28125 439.683594 Z M 357.617188 494.929688 L 333.570312 494.929688 C 328.335938 494.929688 324.234375 490.832031 324.234375 485.597656 C 324.234375 480.367188 328.335938 476.265625 333.570312 476.265625 L 468.703125 476.265625 L 450.039062 494.929688 L 402.53125 494.929688 L 390.839844 483.246094 C 384.90625 477.3125 375.210938 477.3125 369.285156 483.253906 Z M 366.347656 308.277344 L 501.554688 308.277344 C 506.789062 308.277344 510.890625 304.175781 510.890625 298.945312 C 510.890625 293.714844 506.789062 289.613281 501.554688 289.613281 L 347.300781 289.613281 C 354.929688 294.738281 361.316406 301.101562 366.347656 308.277344 Z M 379.511719 345.609375 L 501.554688 345.609375 C 506.789062 345.609375 510.890625 341.507812 510.890625 336.277344 C 510.890625 331.046875 506.789062 326.945312 501.554688 326.945312 L 375.789062 326.945312 C 377.824219 332.96875 379.082031 339.246094 379.511719 345.609375 Z M 372.105469 382.941406 L 501.554688 382.941406 C 506.789062 382.941406 510.890625 378.839844 510.890625 373.605469 C 510.890625 368.375 506.789062 364.273438 501.554688 364.273438 L 378.382812 364.273438 C 377.171875 370.628906 375.089844 376.90625 372.105469 382.941406 Z M 358.925781 401.605469 L 501.554688 401.605469 C 506.789062 401.605469 510.890625 405.707031 510.890625 410.9375 C 510.890625 416.167969 506.789062 420.269531 501.554688 420.269531 L 333.570312 420.269531 C 332.445312 420.269531 331.375 420.082031 330.386719 419.734375 C 341.019531 416.046875 350.84375 409.921875 358.925781 401.605469 Z M 251.019531 318.289062 C 268.808594 287.492188 308.34375 276.898438 339.152344 294.6875 C 369.960938 312.480469 380.542969 352.007812 362.761719 382.804688 C 347.449219 409.332031 315.992188 420.867188 287.871094 412.179688 L 243.957031 488.242188 C 240.003906 495.082031 231.222656 497.453125 224.351562 493.496094 C 217.496094 489.535156 215.15625 480.734375 219.097656 473.890625 L 263.015625 397.835938 C 241.445312 377.835938 235.699219 344.828125 251.019531 318.289062 Z M 285.75 389.519531 C 305.960938 401.1875 331.878906 394.246094 343.546875 374.03125 C 355.222656 353.828125 348.273438 327.902344 328.0625 316.242188 C 307.859375 304.566406 281.933594 311.515625 270.273438 331.714844 C 258.589844 351.921875 265.546875 377.847656 285.75 389.519531 Z M 592.726562 412.671875 C 594.773438 414.722656 594.773438 418.109375 592.722656 420.160156 L 430.027344 582.882812 C 427.984375 584.929688 424.605469 584.929688 422.554688 582.882812 L 356.878906 517.222656 C 354.832031 515.179688 354.832031 511.796875 356.878906 509.75 L 376.332031 490.285156 C 378.371094 488.238281 381.757812 488.238281 383.804688 490.285156 L 415.515625 521.984375 C 421.433594 527.925781 431.125 527.925781 437.066406 521.984375 L 565.800781 393.234375 C 567.84375 391.1875 571.226562 391.1875 573.277344 393.238281 Z M 592.726562 412.671875 " fill-opacity="1" fill-rule="evenodd"/></g></svg>