<svg xmlns="http://www.w3.org/2000/svg" xmlns:xlink="http://www.w3.org/1999/xlink" width="1080" zoomAndPan="magnify" viewBox="0 0 810 809.999993" height="1080" preserveAspectRatio="xMidYMid meet" version="1.0"><defs><clipPath id="4e37a20bcb"><path d="M 96.617188 96.617188 L 713.382812 96.617188 L 713.382812 713.382812 L 96.617188 713.382812 Z M 96.617188 96.617188 " clip-rule="nonzero"/></clipPath><clipPath id="d0570c2cd9"><path d="M 405 96.617188 C 234.683594 96.617188 96.617188 234.683594 96.617188 405 C 96.617188 575.316406 234.683594 713.382812 405 713.382812 C 575.316406 713.382812 713.382812 575.316406 713.382812 405 C 713.382812 234.683594 575.316406 96.617188 405 96.617188 Z M 405 96.617188 " clip-rule="nonzero"/></clipPath><clipPath id="eec843fb34"><path d="M 195.066406 196 L 615 196 L 615 615 L 195.066406 615 Z M 195.066406 196 " clip-rule="nonzero"/></clipPath><clipPath id="08746f4b26"><path d="M 273 195.066406 L 302 195.066406 L 302 255 L 273 255 Z M 273 195.066406 " clip-rule="nonzero"/></clipPath></defs><g clip-path="url(#4e37a20bcb)"><g clip-path="url(#d0570c2cd9)"><path fill="#ff712b" d="M 96.617188 96.617188 L 713.382812 96.617188 L 713.382812 713.382812 L 96.617188 713.382812 Z M 96.617188 96.617188 " fill-opacity="1" fill-rule="nonzero"/></g></g><g clip-path="url(#eec843fb34)"><path fill="#ffffff" d="M 608.953125 305.191406 L 581.867188 301.320312 C 577.59375 300.714844 576.382812 297.210938 576.109375 296.160156 C 575.835938 295.101562 575.21875 291.449219 578.671875 288.855469 L 600.5625 272.445312 C 602.046875 271.339844 603.019531 269.6875 603.285156 267.863281 C 603.542969 266.03125 603.070312 264.179688 601.960938 262.703125 L 576.890625 229.28125 C 575.78125 227.800781 574.132812 226.824219 572.308594 226.5625 C 570.441406 226.296875 568.625 226.777344 567.148438 227.882812 L 545.265625 244.296875 C 541.804688 246.878906 538.46875 245.277344 537.527344 244.710938 C 536.589844 244.15625 533.582031 242.011719 534.191406 237.742188 L 538.0625 210.65625 C 538.609375 206.847656 535.960938 203.320312 532.152344 202.777344 L 490.785156 196.878906 C 488.960938 196.613281 487.101562 197.09375 485.628906 198.199219 C 484.144531 199.308594 483.167969 200.957031 482.90625 202.78125 L 479.035156 229.867188 C 478.425781 234.144531 474.925781 235.355469 473.875 235.625 C 472.808594 235.90625 469.167969 236.515625 466.570312 233.0625 L 450.160156 211.171875 C 449.050781 209.691406 447.402344 208.714844 445.578125 208.449219 C 443.765625 208.1875 441.894531 208.667969 440.417969 209.773438 L 419.488281 225.472656 C 409.898438 224.492188 400.320312 224.457031 391.007812 225.480469 C 329.261719 232.296875 280.203125 282.195312 274.359375 344.101562 C 274.171875 346.0625 274.109375 348.019531 274.003906 349.984375 L 271.910156 349.984375 C 268.617188 349.984375 265.769531 352.289062 265.09375 355.519531 L 260.289062 378.398438 L 241.042969 365.140625 C 238.285156 363.226562 234.539062 363.574219 232.171875 365.949219 L 211.285156 386.839844 C 208.910156 389.210938 208.5625 392.945312 210.476562 395.707031 L 223.734375 414.949219 L 200.847656 419.765625 C 197.625 420.449219 195.320312 423.289062 195.320312 426.582031 L 195.320312 454.433594 C 195.320312 457.726562 197.625 460.566406 200.847656 461.25 L 223.734375 466.0625 L 210.476562 485.300781 C 208.570312 488.0625 208.910156 491.804688 211.285156 494.171875 L 232.171875 515.058594 C 234.546875 517.433594 238.285156 517.789062 241.042969 515.867188 L 260.289062 502.601562 L 265.09375 525.488281 C 265.769531 528.71875 268.625 531.023438 271.910156 531.023438 L 299.761719 531.023438 C 303.054688 531.023438 305.894531 528.71875 306.578125 525.496094 L 311.390625 502.609375 L 330.628906 515.867188 C 333.382812 517.78125 337.125 517.433594 339.5 515.058594 L 350.339844 504.21875 L 350.339844 524.0625 C 350.339844 534.324219 355.980469 543.210938 364.265625 548.042969 L 364.265625 586.726562 C 364.265625 602.085938 376.757812 614.578125 392.117188 614.578125 L 419.96875 614.578125 C 435.328125 614.578125 447.820312 602.085938 447.820312 586.726562 L 447.820312 548.042969 C 456.105469 543.210938 461.746094 534.324219 461.746094 524.0625 L 461.746094 496.503906 C 461.746094 485.238281 467.765625 474.605469 477.851562 468.082031 C 483.609375 464.347656 489.121094 460.128906 494.242188 455.546875 L 484.953125 445.171875 C 480.371094 449.28125 475.433594 453.054688 470.28125 456.390625 C 456.214844 465.496094 447.820312 480.496094 447.820312 496.503906 L 447.820312 524.0625 C 447.820312 531.742188 441.574219 537.988281 433.894531 537.988281 L 378.191406 537.988281 C 370.511719 537.988281 364.265625 531.742188 364.265625 524.0625 L 364.265625 495.925781 C 364.265625 480.195312 356.007812 465.511719 342.179688 456.625 C 304.691406 432.554688 284.011719 389.945312 288.214844 345.410156 C 293.445312 290.046875 337.320312 245.429688 392.535156 239.332031 C 396.496094 238.890625 400.507812 238.703125 404.542969 238.675781 C 404.476562 238.941406 404.316406 239.164062 404.28125 239.433594 C 404.023438 241.265625 404.496094 243.117188 405.601562 244.59375 L 422.015625 266.480469 C 424.605469 269.9375 422.996094 273.273438 422.4375 274.207031 C 421.875 275.148438 419.695312 278.128906 415.460938 277.550781 L 388.378906 273.679688 C 384.570312 273.15625 381.039062 275.78125 380.496094 279.589844 L 374.582031 320.941406 C 374.328125 322.773438 374.800781 324.625 375.90625 326.101562 C 377.015625 327.585938 378.664062 328.558594 380.488281 328.824219 L 407.574219 332.695312 C 411.847656 333.300781 413.066406 336.804688 413.339844 337.855469 C 413.605469 338.90625 414.222656 342.570312 410.769531 345.160156 L 388.886719 361.570312 C 385.808594 363.875 385.1875 368.242188 387.492188 371.3125 L 412.558594 404.734375 C 414.855469 407.808594 419.230469 408.421875 422.300781 406.125 L 444.199219 389.714844 C 447.644531 387.125 450.972656 388.730469 451.914062 389.289062 C 452.851562 389.847656 455.867188 391.996094 455.253906 396.265625 L 451.382812 423.351562 C 450.839844 427.160156 453.488281 430.691406 457.296875 431.234375 L 498.648438 437.144531 C 498.976562 437.195312 499.308594 437.214844 499.636719 437.214844 C 501.132812 437.214844 502.601562 436.734375 503.8125 435.820312 C 505.296875 434.714844 506.273438 433.066406 506.535156 431.242188 L 510.40625 404.15625 C 511.015625 399.878906 514.515625 398.667969 515.566406 398.398438 C 516.625 398.117188 520.265625 397.503906 522.871094 400.957031 L 539.28125 422.84375 C 541.582031 425.921875 545.945312 426.535156 549.023438 424.234375 L 582.445312 399.167969 C 585.523438 396.863281 586.148438 392.5 583.839844 389.429688 L 567.425781 367.539062 C 564.84375 364.082031 566.453125 360.75 567.007812 359.816406 C 567.558594 358.867188 569.691406 355.847656 573.980469 356.472656 L 601.0625 360.34375 C 604.90625 360.894531 608.402344 358.242188 608.945312 354.433594 L 614.859375 313.082031 C 615.113281 311.25 614.640625 309.398438 613.535156 307.921875 C 612.425781 306.429688 610.777344 305.457031 608.953125 305.191406 Z M 286.101562 412.683594 C 292.464844 426.40625 301.167969 439.003906 311.945312 449.90625 C 308.027344 460.769531 297.609375 468.359375 285.835938 468.359375 C 270.476562 468.359375 257.984375 455.867188 257.984375 440.507812 C 257.984375 425.148438 270.476562 412.65625 285.835938 412.65625 C 285.925781 412.65625 286.007812 412.683594 286.101562 412.683594 Z M 419.96875 600.652344 L 392.117188 600.652344 C 384.4375 600.652344 378.191406 594.40625 378.191406 586.726562 L 378.191406 579.765625 L 433.894531 579.765625 L 433.894531 586.726562 C 433.894531 594.40625 427.648438 600.652344 419.96875 600.652344 Z M 433.894531 551.914062 L 433.894531 565.839844 L 378.191406 565.839844 L 378.191406 551.914062 Z M 348.6875 486.175781 L 333.753906 501.113281 L 319.292969 491.140625 C 315.449219 488.480469 310.558594 487.933594 306.214844 489.671875 C 301.878906 491.40625 298.722656 495.171875 297.761719 499.734375 L 294.113281 517.097656 L 277.5625 517.097656 L 273.921875 499.742188 C 272.953125 495.171875 269.792969 491.414062 265.460938 489.679688 C 261.125 487.953125 256.242188 488.488281 252.386719 491.148438 L 237.925781 501.121094 L 225.238281 488.433594 L 235.203125 473.976562 C 237.863281 470.136719 238.410156 465.246094 236.683594 460.902344 C 234.949219 456.5625 231.183594 453.402344 226.617188 452.441406 L 209.257812 448.792969 L 209.257812 432.242188 L 226.609375 428.59375 C 231.183594 427.632812 234.949219 424.472656 236.683594 420.132812 C 238.410156 415.789062 237.863281 410.902344 235.207031 407.066406 L 225.238281 392.605469 L 237.925781 379.917969 L 252.394531 389.886719 C 256.238281 392.539062 261.125 393.078125 265.457031 391.355469 C 269.792969 389.628906 272.953125 385.863281 273.921875 381.289062 L 275.140625 375.488281 C 276.277344 383.558594 278.101562 391.460938 280.660156 399.101562 C 260.058594 401.648438 244.058594 419.230469 244.058594 440.507812 C 244.058594 463.546875 262.796875 482.285156 285.835938 482.285156 C 301.597656 482.285156 315.691406 473.175781 322.753906 459.65625 C 326.546875 462.734375 330.480469 465.671875 334.660156 468.351562 C 341.476562 472.730469 346.328125 479.0625 348.6875 486.175781 Z M 596.148438 345.5625 L 575.964844 342.679688 C 567.363281 341.449219 559.425781 345.3125 555.039062 352.714844 C 550.644531 360.121094 551.125 369.007812 556.300781 375.886719 L 568.535156 392.207031 L 546.257812 408.910156 L 534.019531 392.605469 C 528.851562 385.710938 520.46875 382.738281 512.121094 384.902344 C 503.785156 387.039062 497.839844 393.660156 496.621094 402.175781 L 493.738281 422.363281 L 466.171875 418.429688 L 469.054688 398.242188 C 470.273438 389.714844 466.421875 381.699219 459.015625 377.3125 C 451.613281 372.925781 442.730469 373.398438 435.851562 378.582031 L 419.527344 390.8125 L 402.824219 368.539062 L 419.132812 356.300781 C 426.023438 351.132812 428.976562 342.742188 426.832031 334.402344 C 424.695312 326.058594 418.074219 320.121094 409.558594 318.902344 L 389.371094 316.019531 L 393.308594 288.453125 L 413.492188 291.335938 C 422.050781 292.539062 430.035156 288.703125 434.421875 281.300781 C 438.808594 273.894531 438.328125 265.007812 433.15625 258.125 L 420.921875 241.808594 L 443.195312 225.097656 L 455.4375 241.414062 C 460.601562 248.296875 468.980469 251.257812 477.335938 249.113281 C 485.667969 246.976562 491.617188 240.355469 492.832031 231.839844 L 495.714844 211.652344 L 523.28125 215.585938 L 520.398438 235.773438 C 519.179688 244.296875 523.03125 252.308594 530.433594 256.695312 C 537.835938 261.089844 546.726562 260.601562 553.613281 255.4375 L 569.925781 243.203125 L 586.636719 265.476562 L 570.324219 277.714844 C 563.4375 282.882812 560.484375 291.265625 562.621094 299.613281 C 564.761719 307.949219 571.382812 313.894531 579.898438 315.113281 L 600.082031 317.996094 Z M 596.148438 345.5625 " fill-opacity="1" fill-rule="nonzero"/></g><path fill="#ffffff" d="M 494.71875 261.3125 C 464.007812 261.3125 439.019531 286.300781 439.019531 317.015625 C 439.019531 347.726562 464.007812 372.71875 494.71875 372.71875 C 525.433594 372.71875 550.421875 347.726562 550.421875 317.015625 C 550.421875 286.300781 525.433594 261.3125 494.71875 261.3125 Z M 494.71875 358.792969 C 471.679688 358.792969 452.945312 340.054688 452.945312 317.015625 C 452.945312 293.976562 471.679688 275.238281 494.71875 275.238281 C 517.761719 275.238281 536.496094 293.976562 536.496094 317.015625 C 536.496094 340.054688 517.761719 358.792969 494.71875 358.792969 Z M 494.71875 358.792969 " fill-opacity="1" fill-rule="nonzero"/><path fill="#ffffff" d="M 399.078125 503.171875 L 413.003906 503.171875 L 413.003906 524.0625 L 399.078125 524.0625 Z M 399.078125 503.171875 " fill-opacity="1" fill-rule="nonzero"/><path fill="#ffffff" d="M 375.585938 434.792969 C 343.328125 422.148438 322.488281 391.601562 322.488281 356.953125 C 322.488281 328.101562 337.074219 301.675781 361.507812 286.253906 L 354.070312 274.480469 C 325.574219 292.464844 308.5625 323.296875 308.5625 356.953125 C 308.5625 397.375 332.875 433.015625 370.503906 447.75 C 387.863281 454.558594 399.078125 470.839844 399.078125 489.246094 L 413.003906 489.246094 C 413.003906 465.066406 398.320312 443.691406 375.585938 434.792969 Z M 375.585938 434.792969 " fill-opacity="1" fill-rule="nonzero"/><path fill="#ffffff" d="M 538.335938 454.433594 L 587.074219 454.433594 L 587.074219 468.359375 L 538.335938 468.359375 Z M 538.335938 454.433594 " fill-opacity="1" fill-rule="nonzero"/><path fill="#ffffff" d="M 526.917969 501.554688 L 535.832031 490.855469 L 577.609375 525.664062 L 568.699219 536.363281 Z M 526.917969 501.554688 " fill-opacity="1" fill-rule="nonzero"/><path fill="#ffffff" d="M 496.558594 510.136719 L 510.484375 510.136719 L 510.484375 558.875 L 496.558594 558.875 Z M 496.558594 510.136719 " fill-opacity="1" fill-rule="nonzero"/><path fill="#ffffff" d="M 202.425781 315.386719 L 258.128906 301.460938 L 261.503906 314.964844 L 205.800781 328.890625 Z M 202.425781 315.386719 " fill-opacity="1" fill-rule="nonzero"/><path fill="#ffffff" d="M 214 244.253906 L 222.089844 232.925781 L 270.828125 267.738281 L 262.738281 279.066406 Z M 214 244.253906 " fill-opacity="1" fill-rule="nonzero"/><g clip-path="url(#08746f4b26)"><path fill="#ffffff" d="M 273.652344 198.523438 L 287.144531 195.074219 L 301.386719 250.773438 L 287.894531 254.222656 Z M 273.652344 198.523438 " fill-opacity="1" fill-rule="nonzero"/></g></svg>