<svg xmlns="http://www.w3.org/2000/svg" xmlns:xlink="http://www.w3.org/1999/xlink" width="1080" zoomAndPan="magnify" viewBox="0 0 810 809.999993" height="1080" preserveAspectRatio="xMidYMid meet" version="1.0"><defs><clipPath id="a8abbf26cd"><path d="M 96.617188 96.617188 L 713.382812 96.617188 L 713.382812 713.382812 L 96.617188 713.382812 Z M 96.617188 96.617188 " clip-rule="nonzero"/></clipPath><clipPath id="7245890565"><path d="M 405 96.617188 C 234.683594 96.617188 96.617188 234.683594 96.617188 405 C 96.617188 575.316406 234.683594 713.382812 405 713.382812 C 575.316406 713.382812 713.382812 575.316406 713.382812 405 C 713.382812 234.683594 575.316406 96.617188 405 96.617188 Z M 405 96.617188 " clip-rule="nonzero"/></clipPath><clipPath id="540666e0aa"><path d="M 207 205.75 L 602.992188 205.75 L 602.992188 604 L 207 604 Z M 207 205.75 " clip-rule="nonzero"/></clipPath></defs><g clip-path="url(#a8abbf26cd)"><g clip-path="url(#7245890565)"><path fill="#ff712b" d="M 96.617188 96.617188 L 713.382812 96.617188 L 713.382812 713.382812 L 96.617188 713.382812 Z M 96.617188 96.617188 " fill-opacity="1" fill-rule="nonzero"/></g></g><g clip-path="url(#540666e0aa)"><path fill="#ffffff" d="M 407.457031 260.980469 L 420.28125 294.753906 C 420.667969 295.769531 421.566406 296.421875 422.648438 296.472656 L 458.734375 298.230469 C 459.863281 298.289062 460.792969 299 461.144531 300.074219 C 461.492188 301.152344 461.160156 302.273438 460.277344 302.984375 L 432.117188 325.613281 C 431.273438 326.296875 430.929688 327.351562 431.214844 328.398438 L 440.691406 363.257812 C 440.988281 364.351562 440.597656 365.457031 439.683594 366.121094 C 438.769531 366.785156 437.597656 366.8125 436.648438 366.195312 L 406.425781 346.410156 C 405.515625 345.8125 404.40625 345.8125 403.496094 346.410156 L 373.273438 366.195312 C 372.324219 366.8125 371.15625 366.785156 370.238281 366.121094 C 369.324219 365.457031 368.933594 364.351562 369.230469 363.257812 L 378.710938 328.398438 C 378.996094 327.351562 378.652344 326.296875 377.804688 325.613281 L 349.648438 302.984375 C 348.765625 302.273438 348.429688 301.152344 348.78125 300.074219 C 349.128906 299 350.0625 298.289062 351.191406 298.230469 L 387.273438 296.472656 C 388.359375 296.421875 389.257812 295.769531 389.640625 294.753906 L 402.464844 260.980469 C 402.867188 259.921875 403.828125 259.257812 404.960938 259.257812 C 406.09375 259.257812 407.058594 259.921875 407.457031 260.980469 Z M 337.574219 250.355469 L 360.144531 270.675781 C 362.753906 273.023438 366.769531 272.8125 369.117188 270.203125 C 371.464844 267.597656 371.253906 263.578125 368.644531 261.230469 L 346.074219 240.910156 C 343.46875 238.5625 339.449219 238.773438 337.101562 241.382812 C 334.753906 243.988281 334.964844 248.007812 337.574219 250.355469 Z M 463.847656 240.910156 L 441.144531 261.351562 C 438.539062 263.695312 438.324219 267.714844 440.671875 270.320312 C 443.019531 272.929688 447.039062 273.140625 449.644531 270.792969 L 472.347656 250.355469 C 474.953125 248.007812 475.167969 243.988281 472.820312 241.382812 C 470.472656 238.773438 466.453125 238.5625 463.847656 240.910156 Z M 411.324219 235.621094 C 411.324219 239.132812 408.476562 241.984375 404.960938 241.984375 C 401.449219 241.984375 398.597656 239.132812 398.597656 235.621094 L 398.597656 212.269531 C 398.597656 208.753906 401.449219 205.90625 404.960938 205.90625 C 408.476562 205.90625 411.324219 208.753906 411.324219 212.269531 Z M 404.960938 386.609375 C 429.617188 386.609375 449.605469 406.597656 449.605469 431.253906 C 449.605469 455.910156 429.617188 475.894531 404.960938 475.894531 C 380.304688 475.894531 360.320312 455.910156 360.320312 431.253906 C 360.320312 406.597656 380.304688 386.609375 404.960938 386.609375 Z M 492.746094 562.644531 C 488.007812 518.347656 450.515625 483.847656 404.960938 483.847656 C 359.40625 483.847656 321.914062 518.347656 317.175781 562.644531 L 317.175781 580.492188 C 317.175781 593.488281 327.773438 604.085938 340.769531 604.085938 L 469.152344 604.085938 C 482.148438 604.085938 492.746094 593.488281 492.746094 580.492188 Z M 538.382812 419.03125 C 556.828125 419.03125 571.78125 433.984375 571.78125 452.429688 C 571.78125 470.875 556.828125 485.824219 538.382812 485.824219 C 519.9375 485.824219 504.984375 470.875 504.984375 452.429688 C 504.984375 433.984375 519.9375 419.03125 538.382812 419.03125 Z M 271.539062 419.03125 C 289.984375 419.03125 304.9375 433.984375 304.9375 452.429688 C 304.9375 470.875 289.984375 485.824219 271.539062 485.824219 C 253.09375 485.824219 238.140625 470.875 238.140625 452.429688 C 238.140625 433.984375 253.09375 419.03125 271.539062 419.03125 Z M 271.539062 494.746094 C 291.003906 494.746094 308.5 503.164062 320.589844 516.558594 C 312.058594 529.476562 306.402344 544.511719 304.578125 560.804688 L 222.851562 560.804688 C 217.898438 560.804688 213.636719 558.652344 210.699219 554.664062 C 207.757812 550.679688 206.964844 545.972656 208.429688 541.238281 C 216.769531 514.308594 241.871094 494.746094 271.539062 494.746094 Z M 538.382812 494.746094 C 568.050781 494.746094 593.152344 514.308594 601.492188 541.238281 C 602.957031 545.972656 602.160156 550.679688 599.222656 554.664062 C 596.285156 558.652344 592.023438 560.804688 587.070312 560.804688 L 505.34375 560.804688 C 503.519531 544.511719 497.863281 529.480469 489.332031 516.558594 C 501.421875 503.164062 518.917969 494.746094 538.382812 494.746094 Z M 266.527344 260.980469 L 279.347656 294.753906 C 279.734375 295.769531 280.632812 296.421875 281.714844 296.472656 L 317.800781 298.230469 C 318.929688 298.289062 319.859375 299 320.210938 300.074219 C 320.558594 301.152344 320.226562 302.273438 319.34375 302.984375 L 291.183594 325.613281 C 290.339844 326.296875 289.996094 327.351562 290.28125 328.398438 L 299.757812 363.257812 C 300.054688 364.351562 299.667969 365.457031 298.75 366.121094 C 297.835938 366.785156 296.664062 366.8125 295.71875 366.195312 L 265.492188 346.410156 C 264.582031 345.8125 263.472656 345.8125 262.566406 346.410156 L 232.339844 366.195312 C 231.394531 366.8125 230.222656 366.785156 229.308594 366.121094 C 228.390625 365.457031 228.003906 364.351562 228.300781 363.257812 L 237.777344 328.398438 C 238.0625 327.351562 237.71875 326.296875 236.871094 325.613281 L 208.714844 302.980469 C 207.832031 302.273438 207.496094 301.152344 207.847656 300.074219 C 208.195312 299 209.128906 298.289062 210.257812 298.230469 L 246.339844 296.472656 C 247.425781 296.421875 248.324219 295.769531 248.707031 294.753906 L 261.53125 260.980469 C 261.933594 259.921875 262.898438 259.257812 264.027344 259.257812 C 265.160156 259.257812 266.125 259.921875 266.527344 260.980469 Z M 547.96875 260.980469 L 560.792969 294.753906 C 561.179688 295.769531 562.074219 296.421875 563.160156 296.472656 L 599.242188 298.230469 C 600.375 298.289062 601.304688 299 601.65625 300.074219 C 602.003906 301.152344 601.671875 302.273438 600.789062 302.984375 L 572.628906 325.613281 C 571.785156 326.296875 571.441406 327.351562 571.726562 328.398438 L 581.203125 363.257812 C 581.5 364.351562 581.109375 365.457031 580.195312 366.121094 C 579.28125 366.785156 578.109375 366.8125 577.164062 366.195312 L 546.9375 346.410156 C 546.027344 345.8125 544.917969 345.8125 544.011719 346.410156 L 513.785156 366.195312 C 512.839844 366.8125 511.667969 366.785156 510.75 366.121094 C 509.835938 365.457031 509.445312 364.351562 509.742188 363.257812 L 519.222656 328.398438 C 519.503906 327.351562 519.164062 326.296875 518.316406 325.613281 L 490.160156 302.984375 C 489.277344 302.273438 488.941406 301.152344 489.292969 300.074219 C 489.640625 299 490.570312 298.289062 491.703125 298.230469 L 527.785156 296.472656 C 528.871094 296.421875 529.765625 295.769531 530.152344 294.753906 L 542.976562 260.980469 C 543.378906 259.921875 544.339844 259.257812 545.472656 259.257812 C 546.605469 259.257812 547.570312 259.921875 547.96875 260.980469 Z M 547.96875 260.980469 " fill-opacity="1" fill-rule="evenodd"/></g></svg>