<svg width="27" height="17" viewBox="0 0 27 17" fill="none" xmlns="http://www.w3.org/2000/svg">
<path d="M7.62939e-06 2.57251C-0.000320435 2.90997 0.0619545 3.24417 0.18326 3.55592C0.304564 3.86767 0.482504 4.15082 0.70686 4.3891L11.7946 16.1982C12.0184 16.437 12.2843 16.6265 12.577 16.7557C12.8696 16.885 13.1833 16.9516 13.5002 16.9516C13.817 16.9516 14.1308 16.885 14.4234 16.7557C14.7161 16.6265 14.982 16.437 15.2058 16.1982L26.2935 4.3891C26.5175 4.15054 26.6952 3.86733 26.8164 3.55564C26.9376 3.24395 27 2.90988 27 2.57251C27 2.23514 26.9376 1.90107 26.8164 1.58938C26.6952 1.27769 26.5175 0.994486 26.2935 0.755928C26.0695 0.51737 25.8036 0.328133 25.511 0.199026C25.2183 0.0699196 24.9047 0.00346947 24.5879 0.00346947C24.2711 0.00346947 23.9575 0.0699196 23.6648 0.199026C23.3722 0.328133 23.1063 0.51737 22.8823 0.755928L13.5002 10.7484L4.1181 0.755928C3.78116 0.395439 3.35126 0.149689 2.88296 0.049881C2.41466 -0.0499268 1.92908 0.000701904 1.48784 0.195341C1.0466 0.38998 0.669611 0.719856 0.404711 1.1431C0.139812 1.56634 -0.00104713 2.06386 7.62939e-06 2.57251Z" fill="white"/>
</svg>
