<svg xmlns="http://www.w3.org/2000/svg" xmlns:xlink="http://www.w3.org/1999/xlink" width="1080" zoomAndPan="magnify" viewBox="0 0 810 809.999993" height="1080" preserveAspectRatio="xMidYMid meet" version="1.0"><defs><clipPath id="ba7e24a4ef"><path d="M 112.238281 112.238281 L 729 112.238281 L 729 729 L 112.238281 729 Z M 112.238281 112.238281 " clip-rule="nonzero"/></clipPath><clipPath id="bc3f2ac2b5"><path d="M 420.617188 112.238281 C 250.304688 112.238281 112.238281 250.304688 112.238281 420.617188 C 112.238281 590.933594 250.304688 729 420.617188 729 C 590.933594 729 729 590.933594 729 420.617188 C 729 250.304688 590.933594 112.238281 420.617188 112.238281 Z M 420.617188 112.238281 " clip-rule="nonzero"/></clipPath></defs><g clip-path="url(#ba7e24a4ef)"><g clip-path="url(#bc3f2ac2b5)"><path fill="#ff712b" d="M 112.238281 112.238281 L 729 112.238281 L 729 729 L 112.238281 729 Z M 112.238281 112.238281 " fill-opacity="1" fill-rule="nonzero"/></g></g><path fill="#ffffff" d="M 452.714844 627.683594 L 422.996094 606.085938 C 422.652344 605.832031 422.277344 605.640625 421.875 605.507812 C 421.46875 605.378906 421.054688 605.3125 420.628906 605.3125 C 420.203125 605.3125 419.785156 605.378906 419.382812 605.507812 C 418.976562 605.640625 418.601562 605.832031 418.257812 606.085938 L 388.539062 627.683594 C 387.726562 628.269531 386.875 628.792969 385.980469 629.246094 C 385.089844 629.699219 384.164062 630.082031 383.210938 630.390625 C 382.257812 630.699219 381.285156 630.933594 380.296875 631.089844 C 379.304688 631.246094 378.308594 631.324219 377.308594 631.320312 C 376.304688 631.320312 375.308594 631.242188 374.320312 631.085938 C 373.328125 630.929688 372.359375 630.695312 371.40625 630.386719 C 370.453125 630.074219 369.527344 629.695312 368.636719 629.238281 C 367.742188 628.785156 366.890625 628.261719 366.078125 627.671875 C 365.269531 627.085938 364.507812 626.4375 363.796875 625.726562 C 363.089844 625.019531 362.441406 624.261719 361.851562 623.449219 C 361.261719 622.640625 360.738281 621.789062 360.28125 620.894531 C 359.824219 620.003906 359.441406 619.078125 359.132812 618.125 C 358.820312 617.171875 358.585938 616.203125 358.429688 615.210938 C 358.269531 614.222656 358.191406 613.226562 358.1875 612.226562 C 358.1875 611.222656 358.265625 610.226562 358.417969 609.234375 C 358.574219 608.246094 358.804688 607.273438 359.113281 606.320312 L 370.515625 571.378906 C 370.644531 570.972656 370.710938 570.558594 370.710938 570.136719 C 370.707031 569.710938 370.640625 569.296875 370.507812 568.894531 C 370.378906 568.492188 370.1875 568.117188 369.9375 567.777344 C 369.6875 567.433594 369.390625 567.136719 369.046875 566.890625 L 339.324219 545.292969 C 338.519531 544.699219 337.761719 544.050781 337.054688 543.339844 C 336.351562 542.628906 335.707031 541.871094 335.117188 541.058594 C 334.53125 540.25 334.015625 539.398438 333.5625 538.503906 C 333.109375 537.613281 332.730469 536.6875 332.421875 535.738281 C 332.113281 534.785156 331.882812 533.8125 331.726562 532.824219 C 331.570312 531.835938 331.496094 530.84375 331.496094 529.84375 C 331.496094 528.839844 331.574219 527.847656 331.730469 526.859375 C 331.890625 525.871094 332.121094 524.902344 332.429688 523.949219 C 332.742188 522.996094 333.121094 522.074219 333.574219 521.183594 C 334.03125 520.292969 334.550781 519.441406 335.136719 518.632812 C 335.726562 517.820312 336.371094 517.0625 337.078125 516.351562 C 337.785156 515.644531 338.542969 514.996094 339.351562 514.40625 C 340.160156 513.816406 341.007812 513.292969 341.898438 512.835938 C 342.789062 512.378906 343.710938 511.996094 344.660156 511.683594 C 345.613281 511.371094 346.582031 511.136719 347.570312 510.976562 C 348.554688 510.816406 349.550781 510.734375 350.550781 510.730469 L 387.332031 510.730469 C 387.757812 510.734375 388.171875 510.667969 388.578125 510.539062 C 388.980469 510.40625 389.355469 510.214844 389.699219 509.964844 C 390.042969 509.714844 390.339844 509.417969 390.589844 509.074219 C 390.839844 508.730469 391.027344 508.355469 391.15625 507.949219 L 402.515625 473.007812 C 402.828125 472.058594 403.214844 471.136719 403.671875 470.246094 C 404.128906 469.355469 404.652344 468.507812 405.242188 467.699219 C 405.832031 466.890625 406.480469 466.132812 407.191406 465.425781 C 407.898438 464.722656 408.660156 464.074219 409.46875 463.488281 C 410.28125 462.902344 411.132812 462.378906 412.023438 461.925781 C 412.917969 461.472656 413.839844 461.09375 414.792969 460.785156 C 415.742188 460.476562 416.714844 460.246094 417.703125 460.089844 C 418.691406 459.933594 419.6875 459.855469 420.6875 459.855469 C 421.6875 459.855469 422.683594 459.933594 423.671875 460.089844 C 424.660156 460.246094 425.628906 460.476562 426.582031 460.785156 C 427.535156 461.09375 428.457031 461.472656 429.347656 461.925781 C 430.242188 462.378906 431.089844 462.902344 431.902344 463.488281 C 432.714844 464.074219 433.472656 464.722656 434.183594 465.425781 C 434.890625 466.132812 435.542969 466.890625 436.132812 467.699219 C 436.722656 468.507812 437.246094 469.355469 437.703125 470.246094 C 438.160156 471.136719 438.542969 472.058594 438.855469 473.007812 L 450.214844 507.949219 C 450.34375 508.355469 450.535156 508.730469 450.78125 509.074219 C 451.03125 509.417969 451.328125 509.714844 451.671875 509.964844 C 452.015625 510.214844 452.390625 510.40625 452.796875 510.539062 C 453.199219 510.667969 453.613281 510.734375 454.039062 510.730469 L 490.820312 510.730469 C 491.824219 510.734375 492.816406 510.816406 493.804688 510.976562 C 494.792969 511.136719 495.761719 511.371094 496.710938 511.683594 C 497.664062 511.996094 498.582031 512.378906 499.472656 512.835938 C 500.363281 513.292969 501.214844 513.816406 502.023438 514.40625 C 502.832031 514.996094 503.589844 515.644531 504.292969 516.351562 C 505 517.0625 505.648438 517.820312 506.234375 518.632812 C 506.824219 519.441406 507.34375 520.292969 507.796875 521.183594 C 508.25 522.074219 508.632812 522.996094 508.941406 523.949219 C 509.25 524.902344 509.484375 525.871094 509.640625 526.859375 C 509.796875 527.847656 509.875 528.839844 509.878906 529.84375 C 509.878906 530.84375 509.800781 531.835938 509.644531 532.824219 C 509.488281 533.8125 509.257812 534.785156 508.949219 535.738281 C 508.644531 536.6875 508.261719 537.613281 507.8125 538.503906 C 507.359375 539.398438 506.839844 540.25 506.253906 541.058594 C 505.667969 541.871094 505.023438 542.628906 504.316406 543.339844 C 503.613281 544.050781 502.855469 544.699219 502.046875 545.292969 L 472.328125 566.890625 C 471.980469 567.136719 471.683594 567.429688 471.433594 567.773438 C 471.179688 568.117188 470.988281 568.488281 470.855469 568.890625 C 470.722656 569.296875 470.65625 569.710938 470.65625 570.136719 C 470.65625 570.558594 470.722656 570.972656 470.855469 571.378906 L 482.199219 606.320312 C 482.425781 607.035156 482.609375 607.757812 482.75 608.496094 C 482.890625 609.230469 482.988281 609.972656 483.039062 610.71875 C 483.09375 611.464844 483.105469 612.214844 483.070312 612.960938 C 483.039062 613.710938 482.960938 614.453125 482.839844 615.191406 C 482.71875 615.933594 482.558594 616.660156 482.351562 617.382812 C 482.144531 618.101562 481.898438 618.808594 481.609375 619.5 C 481.324219 620.191406 480.996094 620.863281 480.628906 621.515625 C 480.261719 622.167969 479.859375 622.796875 479.417969 623.40625 C 478.976562 624.011719 478.503906 624.589844 477.996094 625.140625 C 477.488281 625.691406 476.949219 626.210938 476.382812 626.695312 C 475.8125 627.183594 475.21875 627.636719 474.597656 628.054688 C 473.976562 628.472656 473.332031 628.855469 472.667969 629.199219 C 472 629.539062 471.316406 629.84375 470.617188 630.105469 C 469.914062 630.371094 469.199219 630.589844 468.472656 630.769531 C 467.746094 630.949219 467.011719 631.085938 466.269531 631.179688 C 465.523438 631.273438 464.777344 631.324219 464.03125 631.332031 C 461.996094 631.34375 460.015625 631.039062 458.082031 630.414062 C 456.148438 629.789062 454.359375 628.878906 452.714844 627.683594 Z M 453.980469 525.8125 C 452.976562 525.8125 451.980469 525.730469 450.988281 525.570312 C 450 525.414062 449.027344 525.179688 448.074219 524.867188 C 447.117188 524.554688 446.195312 524.171875 445.300781 523.714844 C 444.410156 523.257812 443.554688 522.734375 442.746094 522.144531 C 441.933594 521.550781 441.175781 520.902344 440.464844 520.191406 C 439.757812 519.480469 439.109375 518.71875 438.519531 517.90625 C 437.929688 517.09375 437.410156 516.238281 436.957031 515.34375 C 436.5 514.449219 436.121094 513.527344 435.8125 512.570312 L 424.453125 477.628906 C 424.324219 477.222656 424.132812 476.847656 423.882812 476.503906 C 423.636719 476.15625 423.339844 475.859375 422.996094 475.609375 C 422.652344 475.359375 422.277344 475.167969 421.871094 475.035156 C 421.46875 474.902344 421.054688 474.835938 420.628906 474.835938 C 420.203125 474.835938 419.785156 474.902344 419.382812 475.035156 C 418.976562 475.167969 418.601562 475.359375 418.257812 475.609375 C 417.914062 475.859375 417.621094 476.15625 417.371094 476.503906 C 417.121094 476.847656 416.933594 477.222656 416.800781 477.628906 L 405.445312 512.570312 C 405.136719 513.527344 404.753906 514.449219 404.300781 515.34375 C 403.84375 516.238281 403.324219 517.09375 402.734375 517.90625 C 402.144531 518.71875 401.496094 519.480469 400.789062 520.191406 C 400.082031 520.902344 399.320312 521.550781 398.511719 522.144531 C 397.699219 522.734375 396.847656 523.257812 395.953125 523.714844 C 395.058594 524.171875 394.136719 524.554688 393.183594 524.867188 C 392.230469 525.179688 391.257812 525.414062 390.265625 525.570312 C 389.273438 525.730469 388.277344 525.8125 387.273438 525.8125 L 350.492188 525.8125 C 350.066406 525.8125 349.652344 525.878906 349.25 526.011719 C 348.847656 526.144531 348.476562 526.335938 348.132812 526.585938 C 347.789062 526.835938 347.492188 527.132812 347.242188 527.476562 C 346.996094 527.820312 346.804688 528.191406 346.671875 528.597656 C 346.542969 529 346.476562 529.414062 346.476562 529.839844 C 346.476562 530.261719 346.539062 530.675781 346.667969 531.082031 C 346.800781 531.484375 346.988281 531.859375 347.238281 532.203125 C 347.484375 532.546875 347.78125 532.84375 348.125 533.09375 L 377.871094 554.679688 C 378.683594 555.269531 379.441406 555.917969 380.148438 556.628906 C 380.855469 557.335938 381.503906 558.097656 382.09375 558.910156 C 382.683594 559.71875 383.203125 560.574219 383.65625 561.464844 C 384.113281 562.359375 384.492188 563.28125 384.804688 564.234375 C 385.113281 565.1875 385.34375 566.160156 385.5 567.148438 C 385.65625 568.140625 385.738281 569.136719 385.734375 570.136719 C 385.734375 571.140625 385.65625 572.136719 385.5 573.125 C 385.34375 574.117188 385.113281 575.089844 384.800781 576.042969 L 373.457031 610.984375 C 373.324219 611.386719 373.257812 611.800781 373.257812 612.226562 C 373.257812 612.652344 373.320312 613.066406 373.453125 613.46875 C 373.582031 613.875 373.769531 614.25 374.019531 614.59375 C 374.269531 614.9375 374.566406 615.234375 374.910156 615.484375 C 375.253906 615.734375 375.625 615.925781 376.03125 616.058594 C 376.433594 616.1875 376.847656 616.253906 377.273438 616.253906 C 377.699219 616.253906 378.113281 616.191406 378.515625 616.058594 C 378.921875 615.925781 379.292969 615.734375 379.636719 615.484375 L 409.371094 593.886719 C 410.183594 593.296875 411.035156 592.773438 411.925781 592.316406 C 412.816406 591.859375 413.742188 591.476562 414.695312 591.164062 C 415.648438 590.855469 416.617188 590.621094 417.609375 590.460938 C 418.597656 590.304688 419.59375 590.226562 420.597656 590.226562 C 421.601562 590.226562 422.597656 590.304688 423.585938 590.460938 C 424.578125 590.621094 425.550781 590.855469 426.503906 591.164062 C 427.457031 591.476562 428.378906 591.859375 429.269531 592.316406 C 430.164062 592.773438 431.015625 593.296875 431.824219 593.886719 L 461.558594 615.484375 C 461.902344 615.734375 462.277344 615.925781 462.679688 616.058594 C 463.082031 616.191406 463.5 616.253906 463.921875 616.253906 C 464.347656 616.253906 464.761719 616.1875 465.167969 616.058594 C 465.570312 615.925781 465.945312 615.734375 466.289062 615.484375 C 466.628906 615.234375 466.925781 614.9375 467.175781 614.59375 C 467.425781 614.25 467.613281 613.875 467.746094 613.46875 C 467.875 613.066406 467.941406 612.652344 467.9375 612.226562 C 467.9375 611.800781 467.871094 611.386719 467.738281 610.984375 L 456.394531 576.042969 C 456.085938 575.089844 455.851562 574.117188 455.695312 573.125 C 455.539062 572.136719 455.460938 571.140625 455.460938 570.136719 C 455.460938 569.136719 455.539062 568.140625 455.695312 567.152344 C 455.851562 566.160156 456.085938 565.1875 456.394531 564.234375 C 456.703125 563.28125 457.085938 562.359375 457.539062 561.464844 C 457.992188 560.574219 458.515625 559.71875 459.101562 558.910156 C 459.691406 558.097656 460.339844 557.335938 461.046875 556.628906 C 461.753906 555.917969 462.515625 555.269531 463.324219 554.679688 L 493.058594 533.09375 C 493.402344 532.84375 493.695312 532.546875 493.945312 532.203125 C 494.191406 531.859375 494.382812 531.484375 494.511719 531.082031 C 494.640625 530.675781 494.707031 530.261719 494.707031 529.839844 C 494.707031 529.414062 494.640625 529 494.507812 528.597656 C 494.378906 528.191406 494.1875 527.820312 493.9375 527.476562 C 493.6875 527.132812 493.394531 526.835938 493.050781 526.585938 C 492.707031 526.335938 492.335938 526.144531 491.929688 526.011719 C 491.527344 525.878906 491.113281 525.8125 490.6875 525.8125 Z M 453.980469 525.8125 " fill-opacity="1" fill-rule="nonzero"/><path fill="#ffffff" d="M 263.023438 547.144531 C 262.292969 546.625 261.605469 546.046875 260.964844 545.414062 C 260.324219 544.785156 259.738281 544.105469 259.203125 543.382812 C 258.671875 542.65625 258.199219 541.894531 257.789062 541.09375 C 257.378906 540.292969 257.035156 539.464844 256.753906 538.609375 C 256.476562 537.753906 256.265625 536.882812 256.125 535.996094 C 255.988281 535.105469 255.917969 534.210938 255.921875 533.3125 C 255.921875 532.414062 255.996094 531.519531 256.144531 530.632812 C 256.289062 529.742188 256.503906 528.871094 256.789062 528.019531 L 266.21875 499.003906 C 266.359375 498.578125 266.363281 498.152344 266.222656 497.726562 C 266.085938 497.300781 265.832031 496.957031 265.46875 496.695312 L 240.792969 478.671875 C 240.066406 478.144531 239.382812 477.5625 238.746094 476.925781 C 238.109375 476.289062 237.527344 475.609375 236.996094 474.878906 C 236.46875 474.152344 236 473.386719 235.589844 472.585938 C 235.183594 471.785156 234.839844 470.957031 234.558594 470.101562 C 234.28125 469.246094 234.070312 468.371094 233.929688 467.484375 C 233.789062 466.59375 233.71875 465.703125 233.71875 464.800781 C 233.71875 463.902344 233.789062 463.007812 233.929688 462.117188 C 234.070312 461.230469 234.28125 460.355469 234.558594 459.5 C 234.835938 458.644531 235.179688 457.816406 235.589844 457.015625 C 235.996094 456.214844 236.464844 455.449219 236.996094 454.722656 C 237.523438 453.992188 238.105469 453.3125 238.742188 452.675781 C 239.378906 452.039062 240.0625 451.457031 240.789062 450.929688 C 241.519531 450.398438 242.285156 449.929688 243.085938 449.523438 C 243.886719 449.113281 244.714844 448.773438 245.574219 448.492188 C 246.429688 448.214844 247.300781 448.007812 248.191406 447.867188 C 249.078125 447.726562 249.972656 447.65625 250.871094 447.660156 L 281.371094 447.660156 C 281.824219 447.65625 282.234375 447.519531 282.59375 447.246094 C 282.957031 446.976562 283.203125 446.621094 283.328125 446.1875 L 292.757812 417.171875 C 293.039062 416.320312 293.382812 415.492188 293.792969 414.691406 C 294.199219 413.890625 294.667969 413.125 295.199219 412.398438 C 295.726562 411.671875 296.3125 410.992188 296.949219 410.355469 C 297.582031 409.71875 298.265625 409.136719 298.992188 408.609375 C 299.722656 408.082031 300.484375 407.613281 301.289062 407.207031 C 302.089844 406.796875 302.917969 406.453125 303.773438 406.175781 C 304.628906 405.898438 305.5 405.691406 306.386719 405.550781 C 307.277344 405.410156 308.167969 405.339844 309.070312 405.339844 C 309.96875 405.339844 310.863281 405.410156 311.75 405.550781 C 312.636719 405.691406 313.507812 405.898438 314.363281 406.175781 C 315.21875 406.453125 316.046875 406.796875 316.851562 407.207031 C 317.652344 407.613281 318.417969 408.082031 319.144531 408.609375 C 319.871094 409.136719 320.554688 409.71875 321.191406 410.355469 C 321.828125 410.992188 322.410156 411.671875 322.9375 412.398438 C 323.46875 413.125 323.9375 413.890625 324.347656 414.691406 C 324.753906 415.492188 325.097656 416.320312 325.378906 417.171875 L 334.808594 446.1875 C 334.9375 446.621094 335.179688 446.976562 335.542969 447.246094 C 335.90625 447.519531 336.3125 447.65625 336.765625 447.660156 L 367.265625 447.660156 C 368.164062 447.65625 369.058594 447.726562 369.949219 447.867188 C 370.835938 448.007812 371.710938 448.214844 372.566406 448.492188 C 373.421875 448.773438 374.25 449.113281 375.050781 449.523438 C 375.855469 449.929688 376.617188 450.398438 377.347656 450.929688 C 378.074219 451.457031 378.757812 452.039062 379.394531 452.675781 C 380.03125 453.3125 380.613281 453.992188 381.144531 454.722656 C 381.671875 455.449219 382.140625 456.214844 382.550781 457.015625 C 382.957031 457.816406 383.300781 458.644531 383.578125 459.5 C 383.859375 460.355469 384.066406 461.230469 384.207031 462.117188 C 384.347656 463.007812 384.417969 463.902344 384.417969 464.800781 C 384.417969 465.703125 384.347656 466.59375 384.207031 467.484375 C 384.066406 468.371094 383.855469 469.246094 383.578125 470.101562 C 383.300781 470.957031 382.957031 471.785156 382.546875 472.585938 C 382.136719 473.386719 381.667969 474.152344 381.140625 474.878906 C 380.609375 475.609375 380.027344 476.289062 379.390625 476.925781 C 378.753906 477.5625 378.070312 478.144531 377.34375 478.671875 L 352.667969 496.59375 C 352.304688 496.855469 352.054688 497.199219 351.914062 497.625 C 351.777344 498.050781 351.777344 498.476562 351.917969 498.902344 L 357.453125 515.96875 C 357.542969 516.25 357.617188 516.53125 357.675781 516.820312 C 357.734375 517.105469 357.773438 517.394531 357.800781 517.6875 C 357.824219 517.980469 357.832031 518.273438 357.820312 518.566406 C 357.808594 518.859375 357.785156 519.152344 357.738281 519.441406 C 357.695312 519.730469 357.632812 520.015625 357.554688 520.300781 C 357.480469 520.582031 357.386719 520.859375 357.273438 521.132812 C 357.164062 521.402344 357.039062 521.667969 356.898438 521.925781 C 356.757812 522.183594 356.601562 522.429688 356.429688 522.671875 C 356.261719 522.910156 356.078125 523.136719 355.882812 523.355469 C 355.683594 523.570312 355.476562 523.777344 355.253906 523.96875 C 355.035156 524.164062 354.800781 524.34375 354.558594 524.507812 C 354.320312 524.675781 354.066406 524.824219 353.808594 524.960938 C 353.546875 525.097656 353.28125 525.21875 353.007812 525.324219 C 352.734375 525.429688 352.457031 525.519531 352.171875 525.59375 C 351.886719 525.664062 351.601562 525.722656 351.308594 525.761719 C 351.019531 525.800781 350.726562 525.820312 350.433594 525.828125 C 350.015625 525.839844 349.609375 525.914062 349.214844 526.050781 C 348.820312 526.191406 348.453125 526.386719 348.121094 526.640625 C 347.785156 526.890625 347.5 527.1875 347.257812 527.53125 C 347.015625 527.875 346.835938 528.246094 346.710938 528.644531 C 346.585938 529.042969 346.523438 529.453125 346.527344 529.871094 C 346.53125 530.289062 346.597656 530.699219 346.726562 531.097656 C 346.859375 531.492188 347.046875 531.863281 347.292969 532.199219 C 347.539062 532.539062 347.832031 532.832031 348.167969 533.082031 L 352.582031 536.242188 C 353.140625 536.648438 353.636719 537.121094 354.070312 537.660156 C 354.5 538.199219 354.847656 538.789062 355.117188 539.425781 C 355.386719 540.0625 355.566406 540.722656 355.652344 541.410156 C 355.738281 542.097656 355.730469 542.78125 355.628906 543.464844 C 355.527344 544.148438 355.335938 544.804688 355.050781 545.4375 C 354.769531 546.066406 354.40625 546.648438 353.964844 547.179688 C 353.519531 547.710938 353.015625 548.171875 352.445312 548.5625 C 351.875 548.953125 351.265625 549.261719 350.609375 549.484375 C 349.308594 549.945312 347.972656 550.242188 346.597656 550.375 C 345.226562 550.507812 343.855469 550.46875 342.492188 550.265625 C 341.125 550.0625 339.808594 549.695312 338.53125 549.167969 C 337.257812 548.640625 336.066406 547.964844 334.957031 547.144531 L 310.28125 529.152344 C 309.921875 528.886719 309.515625 528.757812 309.070312 528.757812 C 308.621094 528.757812 308.214844 528.886719 307.855469 529.152344 L 283.167969 547.144531 C 282.445312 547.683594 281.683594 548.160156 280.882812 548.578125 C 280.085938 548.992188 279.257812 549.34375 278.402344 549.628906 C 277.546875 549.910156 276.671875 550.125 275.78125 550.269531 C 274.894531 550.410156 273.996094 550.484375 273.097656 550.484375 C 272.195312 550.484375 271.300781 550.410156 270.410156 550.269531 C 269.519531 550.125 268.648438 549.910156 267.792969 549.628906 C 266.9375 549.34375 266.109375 548.992188 265.308594 548.578125 C 264.507812 548.160156 263.75 547.683594 263.023438 547.144531 Z M 319.140625 517.015625 L 331.792969 526.195312 C 331.929688 525.519531 332.101562 524.851562 332.308594 524.195312 C 332.984375 521.914062 334.050781 519.835938 335.507812 517.957031 C 336.964844 516.078125 338.710938 514.527344 340.753906 513.304688 L 337.574219 503.507812 C 337.296875 502.652344 337.085938 501.785156 336.945312 500.898438 C 336.804688 500.011719 336.734375 499.117188 336.734375 498.21875 C 336.734375 497.320312 336.804688 496.429688 336.945312 495.542969 C 337.085938 494.65625 337.292969 493.785156 337.574219 492.929688 C 337.851562 492.078125 338.195312 491.25 338.601562 490.449219 C 339.011719 489.652344 339.476562 488.886719 340.007812 488.164062 C 340.535156 487.4375 341.117188 486.757812 341.753906 486.121094 C 342.390625 485.488281 343.070312 484.90625 343.796875 484.382812 L 368.484375 466.445312 C 368.847656 466.183594 369.09375 465.839844 369.230469 465.414062 C 369.367188 464.988281 369.367188 464.566406 369.226562 464.140625 C 369.089844 463.71875 368.835938 463.375 368.476562 463.113281 C 368.113281 462.851562 367.710938 462.722656 367.265625 462.722656 L 336.765625 462.722656 C 335.867188 462.726562 334.976562 462.660156 334.089844 462.523438 C 333.203125 462.382812 332.332031 462.179688 331.476562 461.902344 C 330.621094 461.628906 329.792969 461.289062 328.992188 460.882812 C 328.191406 460.480469 327.429688 460.015625 326.703125 459.488281 C 325.972656 458.964844 325.292969 458.382812 324.65625 457.75 C 324.019531 457.117188 323.4375 456.441406 322.90625 455.714844 C 322.375 454.992188 321.90625 454.230469 321.496094 453.429688 C 321.085938 452.632812 320.742188 451.808594 320.464844 450.953125 L 311.03125 421.941406 C 310.898438 421.511719 310.648438 421.164062 310.285156 420.898438 C 309.925781 420.632812 309.519531 420.5 309.070312 420.5 C 308.621094 420.5 308.214844 420.632812 307.851562 420.898438 C 307.488281 421.164062 307.238281 421.511719 307.105469 421.941406 L 297.671875 450.953125 C 297.394531 451.808594 297.050781 452.632812 296.640625 453.429688 C 296.230469 454.230469 295.761719 454.992188 295.230469 455.714844 C 294.703125 456.441406 294.117188 457.117188 293.480469 457.75 C 292.847656 458.382812 292.164062 458.964844 291.4375 459.488281 C 290.707031 460.015625 289.945312 460.480469 289.144531 460.882812 C 288.34375 461.289062 287.515625 461.628906 286.660156 461.902344 C 285.804688 462.179688 284.933594 462.382812 284.046875 462.523438 C 283.160156 462.660156 282.269531 462.726562 281.371094 462.722656 L 250.871094 462.722656 C 250.425781 462.722656 250.023438 462.851562 249.660156 463.113281 C 249.300781 463.375 249.050781 463.71875 248.910156 464.140625 C 248.769531 464.566406 248.769531 464.988281 248.90625 465.414062 C 249.042969 465.839844 249.292969 466.183594 249.652344 466.445312 L 274.339844 484.382812 C 275.066406 484.90625 275.75 485.488281 276.382812 486.121094 C 277.019531 486.757812 277.601562 487.4375 278.128906 488.164062 C 278.660156 488.886719 279.128906 489.652344 279.535156 490.449219 C 279.945312 491.25 280.285156 492.078125 280.566406 492.929688 C 280.84375 493.785156 281.050781 494.65625 281.191406 495.542969 C 281.332031 496.429688 281.402344 497.320312 281.402344 498.21875 C 281.402344 499.117188 281.332031 500.011719 281.191406 500.898438 C 281.050781 501.785156 280.839844 502.652344 280.5625 503.507812 L 271.132812 532.578125 C 270.988281 533.007812 270.988281 533.433594 271.125 533.863281 C 271.261719 534.289062 271.511719 534.636719 271.875 534.898438 C 272.238281 535.164062 272.644531 535.296875 273.09375 535.292969 C 273.542969 535.292969 273.949219 535.15625 274.308594 534.890625 L 298.996094 516.957031 C 299.722656 516.425781 300.488281 515.957031 301.289062 515.546875 C 302.089844 515.136719 302.917969 514.792969 303.773438 514.515625 C 304.628906 514.238281 305.5 514.027344 306.386719 513.886719 C 307.277344 513.746094 308.167969 513.675781 309.070312 513.675781 C 309.96875 513.675781 310.863281 513.746094 311.75 513.886719 C 312.636719 514.027344 313.507812 514.238281 314.363281 514.515625 C 315.21875 514.792969 316.046875 515.136719 316.847656 515.546875 C 317.648438 515.957031 318.414062 516.425781 319.140625 516.957031 Z M 319.140625 517.015625 " fill-opacity="1" fill-rule="nonzero"/><path fill="#ffffff" d="M 558.089844 547.144531 L 533.398438 529.210938 C 533.039062 528.945312 532.632812 528.816406 532.1875 528.816406 C 531.738281 528.816406 531.335938 528.945312 530.972656 529.210938 L 506.300781 547.144531 C 505.195312 547.964844 504.011719 548.636719 502.742188 549.164062 C 501.476562 549.695312 500.164062 550.0625 498.804688 550.269531 C 497.445312 550.476562 496.085938 550.519531 494.714844 550.394531 C 493.347656 550.269531 492.015625 549.980469 490.71875 549.527344 C 490.066406 549.304688 489.453125 549 488.882812 548.605469 C 488.3125 548.214844 487.808594 547.753906 487.363281 547.222656 C 486.921875 546.691406 486.558594 546.109375 486.277344 545.480469 C 485.992188 544.851562 485.800781 544.191406 485.699219 543.507812 C 485.597656 542.824219 485.589844 542.140625 485.675781 541.453125 C 485.765625 540.769531 485.941406 540.109375 486.210938 539.46875 C 486.480469 538.832031 486.828125 538.246094 487.261719 537.703125 C 487.691406 537.164062 488.1875 536.691406 488.746094 536.289062 L 493.085938 533.140625 C 493.429688 532.890625 493.722656 532.597656 493.972656 532.261719 C 494.21875 531.921875 494.410156 531.550781 494.542969 531.152344 C 494.675781 530.753906 494.742188 530.34375 494.746094 529.921875 C 494.75 529.503906 494.691406 529.09375 494.566406 528.691406 C 494.441406 528.289062 494.257812 527.917969 494.015625 527.574219 C 493.773438 527.230469 493.484375 526.929688 493.148438 526.679688 C 492.8125 526.425781 492.445312 526.230469 492.046875 526.09375 C 491.652344 525.953125 491.242188 525.878906 490.820312 525.871094 C 490.527344 525.867188 490.238281 525.84375 489.945312 525.804688 C 489.65625 525.765625 489.367188 525.710938 489.082031 525.636719 C 488.800781 525.5625 488.519531 525.476562 488.246094 525.371094 C 487.972656 525.265625 487.707031 525.144531 487.445312 525.007812 C 487.1875 524.871094 486.9375 524.71875 486.695312 524.554688 C 486.453125 524.386719 486.222656 524.207031 486 524.015625 C 485.78125 523.820312 485.570312 523.617188 485.375 523.398438 C 485.175781 523.179688 484.992188 522.953125 484.824219 522.714844 C 484.652344 522.476562 484.5 522.226562 484.355469 521.96875 C 484.214844 521.714844 484.089844 521.449219 483.980469 521.175781 C 483.871094 520.90625 483.777344 520.628906 483.699219 520.34375 C 483.621094 520.0625 483.558594 519.773438 483.515625 519.484375 C 483.472656 519.195312 483.445312 518.902344 483.433594 518.609375 C 483.425781 518.316406 483.433594 518.023438 483.457031 517.734375 C 483.480469 517.441406 483.519531 517.148438 483.578125 516.863281 C 483.636719 516.574219 483.710938 516.292969 483.804688 516.011719 L 489.335938 498.945312 C 489.480469 498.523438 489.480469 498.097656 489.34375 497.675781 C 489.203125 497.25 488.953125 496.910156 488.585938 496.652344 L 463.914062 478.71875 C 463.183594 478.1875 462.5 477.605469 461.863281 476.96875 C 461.226562 476.335938 460.644531 475.652344 460.117188 474.925781 C 459.585938 474.195312 459.117188 473.433594 458.707031 472.632812 C 458.300781 471.828125 457.957031 471 457.675781 470.144531 C 457.398438 469.289062 457.191406 468.417969 457.046875 467.527344 C 456.90625 466.640625 456.835938 465.746094 456.835938 464.84375 C 456.835938 463.945312 456.90625 463.050781 457.046875 462.164062 C 457.1875 461.273438 457.398438 460.402344 457.675781 459.546875 C 457.953125 458.691406 458.296875 457.859375 458.707031 457.058594 C 459.113281 456.257812 459.582031 455.492188 460.113281 454.765625 C 460.640625 454.035156 461.222656 453.355469 461.859375 452.71875 C 462.496094 452.082031 463.179688 451.5 463.90625 450.972656 C 464.636719 450.441406 465.402344 449.976562 466.203125 449.566406 C 467.003906 449.160156 467.835938 448.816406 468.691406 448.539062 C 469.546875 448.261719 470.417969 448.050781 471.308594 447.910156 C 472.195312 447.769531 473.089844 447.703125 473.992188 447.703125 L 504.488281 447.703125 C 504.945312 447.699219 505.351562 447.5625 505.71875 447.289062 C 506.082031 447.019531 506.328125 446.664062 506.460938 446.230469 L 515.878906 417.21875 C 516.15625 416.363281 516.5 415.535156 516.910156 414.734375 C 517.320312 413.933594 517.789062 413.167969 518.316406 412.441406 C 518.847656 411.714844 519.429688 411.035156 520.066406 410.398438 C 520.703125 409.765625 521.382812 409.183594 522.113281 408.652344 C 522.839844 408.125 523.605469 407.65625 524.40625 407.25 C 525.207031 406.84375 526.035156 406.5 526.890625 406.222656 C 527.746094 405.945312 528.617188 405.734375 529.503906 405.59375 C 530.394531 405.453125 531.289062 405.382812 532.1875 405.382812 C 533.085938 405.382812 533.980469 405.453125 534.867188 405.59375 C 535.753906 405.734375 536.628906 405.945312 537.484375 406.222656 C 538.339844 406.5 539.167969 406.84375 539.96875 407.25 C 540.769531 407.65625 541.535156 408.125 542.261719 408.652344 C 542.988281 409.183594 543.671875 409.765625 544.308594 410.398438 C 544.945312 411.035156 545.527344 411.714844 546.054688 412.441406 C 546.585938 413.167969 547.054688 413.933594 547.464844 414.734375 C 547.871094 415.535156 548.214844 416.363281 548.496094 417.21875 L 557.925781 446.230469 C 558.054688 446.667969 558.296875 447.019531 558.660156 447.292969 C 559.023438 447.5625 559.429688 447.699219 559.882812 447.703125 L 590.382812 447.703125 C 591.28125 447.703125 592.175781 447.773438 593.066406 447.910156 C 593.953125 448.050781 594.828125 448.261719 595.683594 448.539062 C 596.539062 448.816406 597.367188 449.160156 598.167969 449.566406 C 598.972656 449.976562 599.738281 450.441406 600.464844 450.972656 C 601.191406 451.5 601.875 452.082031 602.511719 452.71875 C 603.148438 453.355469 603.730469 454.035156 604.261719 454.765625 C 604.789062 455.492188 605.257812 456.257812 605.667969 457.058594 C 606.074219 457.859375 606.417969 458.691406 606.695312 459.546875 C 606.976562 460.402344 607.183594 461.273438 607.324219 462.164062 C 607.464844 463.050781 607.535156 463.945312 607.535156 464.84375 C 607.535156 465.746094 607.464844 466.640625 607.324219 467.527344 C 607.183594 468.417969 606.972656 469.289062 606.695312 470.144531 C 606.417969 471 606.074219 471.828125 605.664062 472.632812 C 605.253906 473.433594 604.785156 474.195312 604.257812 474.925781 C 603.726562 475.652344 603.144531 476.335938 602.507812 476.96875 C 601.871094 477.605469 601.1875 478.1875 600.460938 478.71875 L 575.789062 496.652344 C 575.421875 496.910156 575.167969 497.25 575.03125 497.675781 C 574.890625 498.097656 574.894531 498.523438 575.039062 498.945312 L 584.46875 527.960938 C 584.753906 528.8125 584.96875 529.683594 585.117188 530.570312 C 585.261719 531.460938 585.335938 532.355469 585.339844 533.253906 C 585.34375 534.152344 585.273438 535.046875 585.136719 535.9375 C 584.996094 536.824219 584.785156 537.699219 584.507812 538.554688 C 584.226562 539.410156 583.882812 540.238281 583.472656 541.039062 C 583.058594 541.835938 582.589844 542.601562 582.054688 543.324219 C 581.523438 544.050781 580.933594 544.726562 580.292969 545.359375 C 579.652344 545.988281 578.964844 546.566406 578.230469 547.085938 C 577.507812 547.625 576.746094 548.101562 575.945312 548.519531 C 575.148438 548.933594 574.320312 549.285156 573.464844 549.570312 C 572.609375 549.851562 571.734375 550.066406 570.847656 550.210938 C 569.957031 550.351562 569.058594 550.425781 568.160156 550.425781 C 567.257812 550.425781 566.363281 550.351562 565.472656 550.210938 C 564.582031 550.066406 563.710938 549.851562 562.855469 549.570312 C 562 549.285156 561.171875 548.933594 560.371094 548.519531 C 559.570312 548.101562 558.8125 547.625 558.089844 547.085938 Z M 559.882812 462.796875 C 558.984375 462.800781 558.089844 462.730469 557.199219 462.589844 C 556.308594 462.449219 555.4375 462.242188 554.582031 461.964844 C 553.726562 461.6875 552.894531 461.34375 552.09375 460.9375 C 551.292969 460.527344 550.527344 460.058594 549.796875 459.53125 C 549.070312 459.003906 548.386719 458.421875 547.75 457.785156 C 547.113281 457.148438 546.53125 456.464844 546 455.738281 C 545.472656 455.007812 545.003906 454.242188 544.597656 453.441406 C 544.1875 452.640625 543.84375 451.808594 543.566406 450.953125 L 534.152344 421.941406 C 534.015625 421.511719 533.765625 421.164062 533.402344 420.898438 C 533.042969 420.632812 532.636719 420.5 532.1875 420.5 C 531.738281 420.5 531.332031 420.632812 530.96875 420.898438 C 530.605469 421.164062 530.359375 421.511719 530.222656 421.941406 L 520.804688 450.953125 C 520.527344 451.808594 520.1875 452.640625 519.777344 453.441406 C 519.367188 454.242188 518.902344 455.007812 518.371094 455.738281 C 517.84375 456.464844 517.257812 457.148438 516.625 457.785156 C 515.988281 458.421875 515.304688 459.003906 514.574219 459.53125 C 513.847656 460.058594 513.082031 460.527344 512.28125 460.9375 C 511.476562 461.34375 510.648438 461.6875 509.792969 461.964844 C 508.9375 462.242188 508.0625 462.449219 507.171875 462.589844 C 506.285156 462.730469 505.390625 462.800781 504.488281 462.796875 L 473.992188 462.796875 C 473.542969 462.796875 473.140625 462.925781 472.777344 463.1875 C 472.417969 463.449219 472.167969 463.792969 472.027344 464.214844 C 471.890625 464.640625 471.886719 465.0625 472.023438 465.488281 C 472.160156 465.914062 472.410156 466.257812 472.769531 466.519531 L 497.457031 484.453125 C 498.183594 484.980469 498.867188 485.5625 499.5 486.195312 C 500.136719 486.828125 500.71875 487.511719 501.25 488.234375 C 501.777344 488.960938 502.246094 489.726562 502.652344 490.523438 C 503.0625 491.324219 503.40625 492.152344 503.683594 493.003906 C 503.960938 493.859375 504.167969 494.730469 504.308594 495.617188 C 504.449219 496.503906 504.519531 497.394531 504.519531 498.292969 C 504.519531 499.191406 504.449219 500.082031 504.308594 500.96875 C 504.167969 501.855469 503.957031 502.726562 503.679688 503.582031 L 500.503906 513.304688 C 502.53125 514.511719 504.273438 516.046875 505.730469 517.902344 C 507.1875 519.761719 508.257812 521.816406 508.949219 524.074219 C 509.152344 524.734375 509.324219 525.402344 509.460938 526.078125 L 522.117188 516.894531 C 522.84375 516.367188 523.605469 515.894531 524.40625 515.484375 C 525.207031 515.074219 526.035156 514.730469 526.890625 514.449219 C 527.746094 514.171875 528.617188 513.960938 529.503906 513.820312 C 530.394531 513.679688 531.285156 513.609375 532.1875 513.609375 C 533.085938 513.609375 533.980469 513.679688 534.867188 513.820312 C 535.757812 513.960938 536.628906 514.171875 537.484375 514.449219 C 538.339844 514.730469 539.167969 515.074219 539.96875 515.484375 C 540.769531 515.894531 541.53125 516.367188 542.257812 516.894531 L 566.945312 534.832031 C 567.304688 535.097656 567.710938 535.234375 568.160156 535.234375 C 568.609375 535.238281 569.015625 535.105469 569.382812 534.839844 C 569.746094 534.578125 569.996094 534.230469 570.132812 533.800781 C 570.269531 533.375 570.265625 532.949219 570.125 532.519531 L 560.691406 503.507812 C 560.414062 502.652344 560.203125 501.785156 560.0625 500.898438 C 559.921875 500.011719 559.851562 499.117188 559.851562 498.21875 C 559.851562 497.320312 559.921875 496.429688 560.0625 495.542969 C 560.203125 494.65625 560.414062 493.785156 560.691406 492.929688 C 560.96875 492.078125 561.3125 491.25 561.71875 490.449219 C 562.128906 489.652344 562.597656 488.886719 563.125 488.164062 C 563.652344 487.4375 564.234375 486.757812 564.871094 486.121094 C 565.507812 485.488281 566.1875 484.90625 566.914062 484.382812 L 591.605469 466.445312 C 591.964844 466.183594 592.210938 465.839844 592.347656 465.414062 C 592.484375 464.988281 592.484375 464.566406 592.34375 464.140625 C 592.207031 463.71875 591.957031 463.375 591.59375 463.113281 C 591.230469 462.851562 590.828125 462.722656 590.382812 462.722656 Z M 559.882812 462.796875 " fill-opacity="1" fill-rule="nonzero"/><path fill="#ffffff" d="M 281.003906 391.191406 C 280.554688 391.191406 280.109375 391.148438 279.667969 391.066406 C 279.226562 390.988281 278.796875 390.867188 278.375 390.710938 C 277.953125 390.554688 277.550781 390.359375 277.164062 390.128906 C 276.777344 389.902344 276.414062 389.640625 276.074219 389.347656 C 275.738281 389.050781 275.425781 388.730469 275.144531 388.378906 C 274.863281 388.03125 274.613281 387.660156 274.394531 387.265625 C 274.179688 386.871094 274 386.460938 273.859375 386.039062 C 273.714844 385.613281 273.609375 385.175781 273.546875 384.730469 C 272.542969 377.699219 272.054688 370.632812 272.074219 363.53125 C 272.074219 360.539062 272.167969 357.546875 272.351562 354.558594 C 272.539062 351.570312 272.816406 348.589844 273.183594 345.617188 C 273.554688 342.648438 274.011719 339.691406 274.5625 336.746094 C 275.113281 333.804688 275.753906 330.878906 276.484375 327.976562 C 277.214844 325.074219 278.035156 322.195312 278.945312 319.339844 C 279.851562 316.488281 280.847656 313.664062 281.929688 310.875 C 283.007812 308.082031 284.175781 305.324219 285.425781 302.605469 C 286.679688 299.886719 288.011719 297.207031 289.429688 294.570312 C 290.84375 291.929688 292.339844 289.339844 293.917969 286.792969 C 295.492188 284.246094 297.144531 281.75 298.875 279.308594 C 300.601562 276.863281 302.40625 274.476562 304.28125 272.140625 C 306.160156 269.808594 308.105469 267.535156 310.121094 265.320312 C 312.136719 263.109375 314.21875 260.957031 316.367188 258.875 C 318.515625 256.789062 320.726562 254.769531 323 252.820312 C 325.273438 250.871094 327.605469 248.996094 329.992188 247.191406 C 332.378906 245.382812 334.820312 243.652344 337.316406 242 C 339.8125 240.34375 342.355469 238.765625 344.949219 237.265625 C 347.539062 235.769531 350.175781 234.351562 352.855469 233.015625 C 355.535156 231.675781 358.25 230.425781 361.007812 229.253906 C 363.765625 228.085938 366.554688 227.003906 369.375 226.003906 C 372.199219 225.007812 375.050781 224.097656 377.929688 223.273438 C 380.808594 222.453125 383.710938 221.71875 386.632812 221.078125 C 389.558594 220.433594 392.5 219.878906 395.457031 219.417969 C 398.414062 218.957031 401.386719 218.585938 404.367188 218.304688 C 407.347656 218.023438 410.335938 217.835938 413.328125 217.742188 C 416.320312 217.644531 419.3125 217.640625 422.304688 217.730469 C 425.296875 217.820312 428.285156 218 431.265625 218.273438 C 434.25 218.542969 437.21875 218.910156 440.179688 219.363281 C 443.136719 219.820312 446.078125 220.363281 449.003906 221 C 451.929688 221.636719 454.835938 222.363281 457.714844 223.175781 C 460.597656 223.992188 463.449219 224.894531 466.277344 225.886719 C 469.101562 226.878906 471.894531 227.953125 474.652344 229.117188 C 475.109375 229.308594 475.542969 229.546875 475.949219 229.824219 C 476.359375 230.101562 476.738281 230.417969 477.085938 230.769531 C 477.433594 231.125 477.742188 231.507812 478.015625 231.921875 C 478.285156 232.335938 478.515625 232.773438 478.699219 233.230469 C 478.886719 233.691406 479.027344 234.164062 479.117188 234.648438 C 479.210938 235.136719 479.253906 235.625 479.25 236.121094 C 479.246094 236.617188 479.195312 237.105469 479.09375 237.589844 C 478.996094 238.078125 478.847656 238.546875 478.65625 239.003906 C 478.460938 239.460938 478.226562 239.890625 477.945312 240.300781 C 477.667969 240.710938 477.351562 241.089844 477 241.4375 C 476.648438 241.785156 476.261719 242.09375 475.847656 242.367188 C 475.433594 242.636719 475 242.867188 474.539062 243.050781 C 474.082031 243.238281 473.609375 243.375 473.121094 243.46875 C 472.636719 243.5625 472.144531 243.605469 471.648438 243.601562 C 471.152344 243.597656 470.664062 243.546875 470.179688 243.445312 C 469.695312 243.34375 469.222656 243.199219 468.765625 243.003906 C 466.292969 241.960938 463.789062 240.996094 461.257812 240.109375 C 458.722656 239.222656 456.164062 238.410156 453.582031 237.679688 C 450.996094 236.949219 448.394531 236.300781 445.769531 235.730469 C 443.148438 235.160156 440.507812 234.671875 437.855469 234.261719 C 435.203125 233.855469 432.539062 233.527344 429.863281 233.285156 C 427.191406 233.039062 424.511719 232.878906 421.828125 232.796875 C 419.144531 232.71875 416.460938 232.722656 413.777344 232.808594 C 411.09375 232.894531 408.417969 233.0625 405.746094 233.3125 C 403.070312 233.5625 400.410156 233.898438 397.757812 234.3125 C 395.105469 234.726562 392.464844 235.222656 389.84375 235.796875 C 387.222656 236.375 384.621094 237.03125 382.039062 237.769531 C 379.457031 238.507812 376.902344 239.320312 374.371094 240.214844 C 371.839844 241.109375 369.335938 242.082031 366.867188 243.128906 C 364.394531 244.179688 361.957031 245.300781 359.554688 246.5 C 357.152344 247.699219 354.789062 248.96875 352.464844 250.3125 C 350.140625 251.65625 347.859375 253.070312 345.621094 254.554688 C 343.386719 256.039062 341.195312 257.589844 339.054688 259.207031 C 336.910156 260.828125 334.820312 262.511719 332.785156 264.257812 C 330.746094 266.003906 328.761719 267.8125 326.835938 269.683594 C 324.910156 271.550781 323.042969 273.480469 321.234375 275.464844 C 319.425781 277.449219 317.679688 279.488281 315.996094 281.578125 C 314.3125 283.667969 312.695312 285.8125 311.144531 288.003906 C 309.59375 290.195312 308.113281 292.429688 306.699219 294.714844 C 305.285156 296.996094 303.945312 299.320312 302.675781 301.683594 C 301.402344 304.050781 300.207031 306.453125 299.085938 308.890625 C 297.960938 311.328125 296.914062 313.800781 295.945312 316.304688 C 294.972656 318.804688 294.082031 321.335938 293.265625 323.894531 C 292.453125 326.453125 291.71875 329.035156 291.0625 331.636719 C 290.40625 334.242188 289.828125 336.863281 289.335938 339.5 C 288.839844 342.140625 288.429688 344.789062 288.097656 347.453125 C 287.765625 350.117188 287.515625 352.789062 287.347656 355.46875 C 287.183594 358.148438 287.097656 360.832031 287.09375 363.515625 C 287.097656 369.890625 287.558594 376.230469 288.476562 382.539062 C 288.550781 383.03125 288.574219 383.523438 288.546875 384.019531 C 288.523438 384.511719 288.449219 385 288.328125 385.480469 C 288.207031 385.960938 288.039062 386.425781 287.824219 386.871094 C 287.613281 387.320312 287.355469 387.742188 287.058594 388.140625 C 286.761719 388.535156 286.429688 388.902344 286.0625 389.230469 C 285.695312 389.5625 285.296875 389.855469 284.871094 390.109375 C 284.445312 390.363281 283.996094 390.570312 283.53125 390.734375 C 283.0625 390.898438 282.582031 391.019531 282.09375 391.089844 C 281.734375 391.152344 281.371094 391.183594 281.003906 391.191406 Z M 281.003906 391.191406 " fill-opacity="1" fill-rule="nonzero"/><path fill="#ffffff" d="M 554.761719 391.191406 C 554.394531 391.191406 554.023438 391.160156 553.660156 391.101562 C 553.167969 391.03125 552.691406 390.914062 552.226562 390.746094 C 551.757812 390.582031 551.3125 390.375 550.886719 390.121094 C 550.460938 389.867188 550.066406 389.574219 549.699219 389.242188 C 549.328125 388.910156 548.996094 388.546875 548.703125 388.148438 C 548.40625 387.753906 548.152344 387.332031 547.941406 386.882812 C 547.726562 386.4375 547.558594 385.972656 547.4375 385.492188 C 547.316406 385.011719 547.246094 384.527344 547.21875 384.03125 C 547.195312 383.535156 547.21875 383.042969 547.289062 382.554688 C 548.203125 376.246094 548.660156 369.90625 548.65625 363.53125 C 548.664062 350.265625 546.703125 337.300781 542.773438 324.632812 C 542.601562 324.152344 542.480469 323.660156 542.410156 323.15625 C 542.339844 322.652344 542.316406 322.148438 542.347656 321.640625 C 542.378906 321.132812 542.460938 320.632812 542.59375 320.140625 C 542.726562 319.648438 542.90625 319.175781 543.136719 318.722656 C 543.363281 318.265625 543.636719 317.839844 543.953125 317.441406 C 544.265625 317.039062 544.617188 316.675781 545.007812 316.347656 C 545.394531 316.019531 545.8125 315.734375 546.257812 315.488281 C 546.707031 315.246094 547.171875 315.050781 547.660156 314.902344 C 548.144531 314.75 548.640625 314.652344 549.148438 314.605469 C 549.65625 314.554688 550.160156 314.558594 550.667969 314.613281 C 551.171875 314.664062 551.667969 314.769531 552.152344 314.925781 C 552.636719 315.078125 553.101562 315.28125 553.546875 315.527344 C 553.988281 315.777344 554.40625 316.066406 554.789062 316.398438 C 555.175781 316.730469 555.523438 317.101562 555.832031 317.503906 C 556.144531 317.90625 556.410156 318.335938 556.636719 318.792969 C 556.859375 319.25 557.035156 319.722656 557.160156 320.21875 C 561.546875 334.347656 563.734375 348.808594 563.722656 363.605469 C 563.742188 370.707031 563.253906 377.773438 562.25 384.804688 C 562.183594 385.25 562.074219 385.679688 561.929688 386.105469 C 561.785156 386.527344 561.601562 386.933594 561.382812 387.324219 C 561.164062 387.71875 560.914062 388.085938 560.628906 388.433594 C 560.34375 388.777344 560.03125 389.097656 559.691406 389.386719 C 559.351562 389.675781 558.988281 389.9375 558.601562 390.160156 C 558.214844 390.386719 557.808594 390.578125 557.390625 390.730469 C 556.96875 390.886719 556.539062 391 556.097656 391.078125 C 555.65625 391.15625 555.210938 391.191406 554.761719 391.191406 Z M 554.761719 391.191406 " fill-opacity="1" fill-rule="nonzero"/><path fill="#ffffff" d="M 417.875 434.0625 C 416.09375 434.066406 414.328125 433.902344 412.578125 433.574219 C 410.824219 433.246094 409.121094 432.761719 407.460938 432.113281 C 405.800781 431.464844 404.214844 430.671875 402.703125 429.726562 C 401.191406 428.785156 399.78125 427.707031 398.46875 426.5 L 321.273438 355.070312 C 320.578125 354.4375 319.917969 353.769531 319.289062 353.070312 C 318.660156 352.371094 318.066406 351.640625 317.511719 350.882812 C 316.957031 350.125 316.4375 349.339844 315.957031 348.53125 C 315.480469 347.722656 315.039062 346.890625 314.644531 346.039062 C 314.246094 345.183594 313.890625 344.316406 313.582031 343.425781 C 313.269531 342.539062 313.003906 341.640625 312.78125 340.726562 C 312.558594 339.8125 312.378906 338.890625 312.246094 337.957031 C 312.117188 337.027344 312.03125 336.089844 311.992188 335.152344 C 311.953125 334.210938 311.957031 333.273438 312.011719 332.332031 C 312.066406 331.394531 312.164062 330.460938 312.308594 329.53125 C 312.457031 328.601562 312.644531 327.679688 312.882812 326.769531 C 313.117188 325.859375 313.398438 324.964844 313.722656 324.082031 C 314.046875 323.199219 314.414062 322.332031 314.824219 321.488281 C 315.234375 320.640625 315.683594 319.816406 316.175781 319.011719 C 316.667969 318.210938 317.195312 317.433594 317.761719 316.683594 C 318.332031 315.933594 318.933594 315.214844 319.574219 314.523438 C 320.210938 313.832031 320.882812 313.175781 321.585938 312.550781 C 322.289062 311.925781 323.019531 311.339844 323.78125 310.785156 C 324.542969 310.234375 325.332031 309.722656 326.144531 309.246094 C 326.953125 308.773438 327.789062 308.339844 328.644531 307.945312 C 329.5 307.554688 330.371094 307.203125 331.257812 306.898438 C 332.148438 306.589844 333.050781 306.328125 333.964844 306.113281 C 334.882812 305.894531 335.804688 305.722656 336.738281 305.59375 C 337.667969 305.46875 338.605469 305.390625 339.542969 305.355469 C 340.484375 305.320312 341.425781 305.332031 342.363281 305.390625 C 343.300781 305.449219 344.234375 305.554688 345.164062 305.703125 C 346.09375 305.855469 347.011719 306.050781 347.921875 306.292969 C 348.828125 306.535156 349.722656 306.820312 350.605469 307.148438 C 351.484375 307.476562 352.347656 307.851562 353.191406 308.265625 C 354.039062 308.679688 354.859375 309.132812 355.660156 309.628906 C 356.457031 310.125 357.230469 310.660156 357.976562 311.230469 C 358.726562 311.800781 359.441406 312.410156 360.128906 313.050781 L 414.375 363.238281 L 523.101562 222.789062 C 523.683594 222.070312 524.296875 221.378906 524.945312 220.714844 C 525.59375 220.054688 526.273438 219.425781 526.980469 218.832031 C 527.691406 218.234375 528.425781 217.675781 529.191406 217.152344 C 529.953125 216.628906 530.738281 216.140625 531.550781 215.695312 C 532.359375 215.246094 533.191406 214.839844 534.042969 214.472656 C 534.890625 214.105469 535.757812 213.777344 536.640625 213.496094 C 537.519531 213.210938 538.414062 212.972656 539.320312 212.777344 C 540.222656 212.582031 541.136719 212.429688 542.054688 212.320312 C 542.976562 212.210938 543.898438 212.148438 544.824219 212.128906 C 545.75 212.113281 546.675781 212.136719 547.597656 212.210938 C 548.519531 212.28125 549.4375 212.398438 550.351562 212.558594 C 551.261719 212.71875 552.164062 212.921875 553.058594 213.167969 C 553.949219 213.417969 554.828125 213.707031 555.691406 214.039062 C 556.554688 214.375 557.402344 214.746094 558.230469 215.164062 C 559.058594 215.578125 559.863281 216.03125 560.644531 216.527344 C 561.429688 217.019531 562.1875 217.550781 562.921875 218.117188 C 563.652344 218.683594 564.355469 219.285156 565.027344 219.917969 C 565.703125 220.554688 566.34375 221.21875 566.953125 221.917969 C 567.5625 222.613281 568.136719 223.339844 568.675781 224.09375 C 569.214844 224.84375 569.714844 225.621094 570.179688 226.425781 C 570.644531 227.226562 571.066406 228.046875 571.449219 228.890625 C 571.835938 229.734375 572.175781 230.59375 572.476562 231.46875 C 572.777344 232.34375 573.035156 233.234375 573.25 234.132812 C 573.460938 235.035156 573.632812 235.945312 573.757812 236.863281 C 573.882812 237.78125 573.964844 238.699219 574.003906 239.625 C 574.039062 240.550781 574.03125 241.476562 573.976562 242.402344 C 573.925781 243.324219 573.828125 244.246094 573.683594 245.160156 C 573.542969 246.074219 573.355469 246.980469 573.125 247.878906 C 572.894531 248.773438 572.621094 249.65625 572.304688 250.527344 C 571.988281 251.398438 571.632812 252.25 571.234375 253.085938 C 570.832031 253.921875 570.394531 254.738281 569.917969 255.53125 C 569.441406 256.324219 568.925781 257.09375 568.371094 257.835938 L 440.503906 422.96875 C 439.289062 424.535156 437.921875 425.960938 436.410156 427.246094 C 434.898438 428.527344 433.269531 429.644531 431.527344 430.589844 C 429.785156 431.535156 427.960938 432.292969 426.0625 432.859375 C 424.160156 433.429688 422.222656 433.796875 420.246094 433.960938 C 419.464844 434.035156 418.671875 434.0625 417.875 434.0625 Z M 340.707031 320.570312 L 340.164062 320.570312 C 338.820312 320.617188 337.507812 320.855469 336.234375 321.292969 C 334.960938 321.730469 333.78125 322.34375 332.6875 323.128906 C 331.597656 323.917969 330.644531 324.851562 329.832031 325.925781 C 329.019531 326.996094 328.382812 328.164062 327.917969 329.429688 C 327.453125 330.691406 327.183594 331.996094 327.105469 333.339844 C 327.03125 334.683594 327.152344 336.011719 327.472656 337.320312 C 327.792969 338.625 328.300781 339.859375 328.988281 341.015625 C 329.675781 342.171875 330.515625 343.203125 331.511719 344.109375 L 408.769531 415.378906 C 410.160156 416.671875 411.75 417.625 413.542969 418.246094 C 415.335938 418.867188 417.175781 419.097656 419.066406 418.9375 C 420.960938 418.777344 422.738281 418.242188 424.40625 417.335938 C 426.074219 416.429688 427.492188 415.226562 428.660156 413.730469 L 556.515625 248.582031 C 557.074219 247.878906 557.558594 247.128906 557.96875 246.332031 C 558.378906 245.535156 558.707031 244.703125 558.949219 243.839844 C 559.195312 242.980469 559.351562 242.101562 559.421875 241.207031 C 559.492188 240.3125 559.476562 239.417969 559.367188 238.527344 C 559.261719 237.636719 559.066406 236.765625 558.789062 235.914062 C 558.507812 235.0625 558.144531 234.246094 557.703125 233.464844 C 557.261719 232.6875 556.746094 231.957031 556.160156 231.28125 C 555.570312 230.601562 554.921875 229.988281 554.214844 229.441406 C 553.503906 228.890625 552.746094 228.417969 551.945312 228.019531 C 551.140625 227.621094 550.304688 227.304688 549.441406 227.070312 C 548.574219 226.839844 547.691406 226.695312 546.796875 226.636719 C 545.902344 226.578125 545.011719 226.609375 544.121094 226.730469 C 543.234375 226.847656 542.363281 227.054688 541.515625 227.347656 C 540.667969 227.640625 539.859375 228.011719 539.082031 228.46875 C 538.308594 228.921875 537.589844 229.445312 536.917969 230.042969 C 536.25 230.640625 535.644531 231.296875 535.105469 232.015625 L 421.332031 378.964844 C 421.011719 379.378906 420.65625 379.753906 420.257812 380.09375 C 419.859375 380.429688 419.429688 380.722656 418.96875 380.972656 C 418.511719 381.222656 418.03125 381.421875 417.53125 381.570312 C 417.03125 381.722656 416.519531 381.816406 416 381.863281 C 415.476562 381.90625 414.957031 381.894531 414.4375 381.832031 C 413.921875 381.765625 413.414062 381.648438 412.917969 381.480469 C 412.425781 381.308594 411.953125 381.089844 411.503906 380.824219 C 411.054688 380.554688 410.640625 380.246094 410.253906 379.890625 L 349.917969 324.117188 C 348.664062 322.964844 347.238281 322.082031 345.648438 321.472656 C 344.058594 320.859375 342.414062 320.558594 340.707031 320.570312 Z M 340.707031 320.570312 " fill-opacity="1" fill-rule="nonzero"/></svg>