<?xml version="1.0" encoding="UTF-8"?>
<!DOCTYPE svg PUBLIC "-//W3C//DTD SVG 1.1//EN" "http://www.w3.org/Graphics/SVG/1.1/DTD/svg11.dtd">
<!-- Creator: CorelDRAW X7 -->
<svg xmlns="http://www.w3.org/2000/svg" xml:space="preserve" width="10.2114mm" height="10.01mm" version="1.1" style="shape-rendering:geometricPrecision; text-rendering:geometricPrecision; image-rendering:optimizeQuality; fill-rule:evenodd; clip-rule:evenodd"
viewBox="0 0 410 402"
 xmlns:xlink="http://www.w3.org/1999/xlink">
 <defs>
  <style type="text/css">
   <![CDATA[
    .str0 {stroke:#FF712B;stroke-width:0.397753}
    .fil0 {fill:#FF712B}
    .fil1 {fill:#FEFEFE;fill-rule:nonzero}
   ]]>
  </style>
 </defs>
 <g id="Layer_x0020_1">
  <metadata id="CorelCorpID_0Corel-Layer"/>
  <ellipse class="fil0 str0" cx="205" cy="201" rx="205" ry="201"/>
  <g id="_2191256795856">
   <path class="fil1" d="M138 202c7,-5 15,-12 25,-20 9,-9 23,-21 40,-39 18,-17 29,-28 34,-34 5,-6 8,-10 9,-12 1,-2 1,-4 1,-7l0 -4 2 -2c4,1 8,1 11,1 16,0 29,0 41,-1l1 2 -1 9 -2 2c-7,0 -12,0 -15,1 -2,0 -5,2 -8,4 -3,2 -11,8 -22,18 -12,10 -24,21 -37,33l-37 35 64 92c9,13 15,21 18,23 3,2 9,3 17,4l2 1 -1 8 -2 2 -5 0c-15,-1 -26,-1 -34,-1 -6,0 -13,0 -21,1 -15,-24 -28,-43 -38,-57 -10,-15 -24,-34 -42,-57l-8 48c-3,15 -4,26 -5,32 -1,6 -1,10 -1,12 0,3 1,6 3,7 2,2 6,3 10,3l18 1 1 1 -1 8 -2 2c-13,-1 -31,-1 -54,-1 -18,0 -35,0 -52,1l-1 -2 1 -8 2 -1c1,0 3,-1 7,-1 10,0 15,-1 17,-2 2,-1 3,-4 5,-7 1,-4 4,-18 8,-43l16 -88c5,-33 8,-53 8,-60 0,-2 0,-4 -1,-5 -1,-1 -2,-2 -3,-3 -2,0 -5,-1 -11,-1l-15 -1 -1 -1 1 -9 2 -2c15,1 32,1 52,1 8,0 26,0 53,-1l1 2 -1 9 -2 1c-12,0 -19,1 -20,1 -2,1 -4,1 -5,3 -2,1 -3,4 -4,8 -2,4 -4,16 -8,35l-10 59z"/>
   <path class="fil1" d="M295 149l-4 23 -3 0c-1,-12 -5,-17 -14,-17 -4,0 -8,1 -11,4 -3,3 -4,7 -4,12 0,2 1,5 2,8 1,3 5,8 12,15 6,7 11,13 13,17 1,4 2,8 2,12 0,7 -2,12 -8,16 -5,5 -12,7 -22,7 -4,0 -8,-1 -13,-1 -5,-1 -7,-2 -8,-2 -2,0 -4,1 -5,3l-3 0 5 -23 3 0c2,12 8,17 18,17 4,0 8,-1 11,-4 2,-2 4,-5 4,-9 0,-3 -1,-6 -2,-9 -2,-3 -6,-8 -12,-14 -6,-7 -10,-13 -11,-16 -2,-4 -3,-8 -3,-11 0,-8 3,-14 9,-20 5,-5 12,-8 20,-8 2,0 5,1 9,1 5,1 7,2 7,2 2,0 4,-1 5,-3l3 0z"/>
   <path class="fil1" d="M380 149l-3 25 -2 0c-1,-6 -3,-10 -6,-13 -4,-4 -8,-5 -12,-5 -9,0 -17,5 -23,15 -7,10 -10,22 -10,35 0,10 2,17 7,23 4,6 10,8 17,8 9,0 17,-5 24,-15l2 1c-4,8 -9,14 -14,17 -5,4 -12,6 -20,6 -11,0 -19,-4 -26,-11 -6,-7 -9,-16 -9,-28 0,-17 5,-30 15,-41 10,-10 21,-16 34,-16 4,0 7,1 10,1 4,1 6,2 8,2 3,0 4,-2 6,-4l2 0z"/>
  </g>
 </g>
</svg>
