<?xml version="1.0" encoding="UTF-8"?>
<!DOCTYPE svg PUBLIC "-//W3C//DTD SVG 1.1//EN" "http://www.w3.org/Graphics/SVG/1.1/DTD/svg11.dtd">
<!-- Creator: CorelDRAW X7 -->
<svg xmlns="http://www.w3.org/2000/svg" xml:space="preserve" width="10.2014mm" height="10mm" version="1.1" style="shape-rendering:geometricPrecision; text-rendering:geometricPrecision; image-rendering:optimizeQuality; fill-rule:evenodd; clip-rule:evenodd"
viewBox="0 0 4615 4524"
 xmlns:xlink="http://www.w3.org/1999/xlink">
 <defs>
  <style type="text/css">
   <![CDATA[
    .fil0 {fill:#FEFEFE}
    .fil1 {fill:#FF712B;fill-rule:nonzero}
   ]]>
  </style>
 </defs>
 <g id="Layer_x0020_1">
  <metadata id="CorelCorpID_0Corel-Layer"/>
  <ellipse class="fil0" cx="2308" cy="2262" rx="2308" ry="2262"/>
  <g id="_2191515646768">
   <path class="fil1" d="M1555 2272c78,-55 171,-130 277,-225 106,-96 258,-241 456,-435 197,-195 325,-325 382,-390 58,-64 91,-107 100,-128 8,-22 12,-48 12,-82l0 -46 15 -17c55,8 100,12 133,12 176,0 327,-4 454,-12l15 17 -17 104 -16 14c-83,3 -138,8 -165,16 -27,7 -59,22 -96,44 -36,22 -120,90 -251,203 -131,112 -267,236 -409,371l-424 400 728 1036c101,144 168,228 203,254 34,25 98,40 191,43l13 15 -9 95 -20 16 -56 -1c-163,-9 -292,-13 -387,-13 -64,0 -141,5 -231,14 -173,-266 -316,-482 -429,-645 -113,-163 -272,-376 -475,-636l-91 541c-29,167 -47,286 -56,356 -8,70 -12,116 -12,138 0,39 13,67 39,84 27,15 64,25 112,27l197 9 12 15 -10 93 -17 17c-143,-9 -347,-13 -610,-13 -202,0 -396,4 -581,13l-13 -15 11 -93 17 -17c11,-1 39,-3 85,-5 104,-4 166,-12 186,-26 20,-14 39,-40 55,-80 16,-39 49,-202 98,-487l172 -985c64,-372 97,-598 97,-678 0,-22 -5,-40 -12,-54 -9,-13 -22,-24 -40,-31 -19,-7 -57,-13 -115,-17l-171 -9 -13 -15 15 -100 17 -17c168,9 363,14 585,14 91,0 291,-5 600,-14l11 15 -16 102 -17 15c-136,5 -213,9 -234,14 -19,4 -38,14 -54,27 -16,15 -32,45 -46,91 -15,47 -41,180 -81,401l-114 660z"/>
   <path class="fil1" d="M3318 1678l-45 252 -37 0c-3,-127 -56,-191 -157,-191 -45,0 -84,18 -117,53 -33,35 -50,77 -50,127 0,27 9,57 25,90 17,33 61,91 134,172 73,82 120,146 142,193 21,47 32,90 32,129 0,80 -30,143 -91,191 -61,47 -143,71 -246,71 -46,0 -95,-4 -149,-13 -54,-9 -85,-14 -94,-14 -24,0 -41,9 -53,27l-31 0 53 -254 31 0c21,128 88,192 200,192 50,0 90,-14 123,-42 32,-28 48,-65 48,-108 0,-30 -8,-61 -25,-96 -16,-35 -59,-90 -127,-167 -68,-76 -112,-136 -131,-180 -20,-44 -30,-85 -30,-124 0,-85 32,-158 96,-218 64,-60 141,-90 231,-90 20,0 55,4 103,13 50,9 76,14 80,14 24,0 42,-9 54,-27l31 0z"/>
   <path class="fil1" d="M4277 1677l-35 282 -26 0c-9,-65 -32,-116 -68,-152 -36,-36 -80,-54 -132,-54 -99,0 -185,56 -259,167 -73,112 -110,246 -110,402 0,105 25,190 74,254 49,64 113,96 192,96 104,0 197,-57 278,-172l24 14c-51,85 -105,148 -164,189 -59,42 -135,62 -227,62 -122,0 -217,-39 -286,-117 -70,-78 -104,-185 -104,-322 0,-184 55,-336 167,-455 112,-120 240,-179 384,-179 42,0 81,4 117,12 36,7 64,11 84,11 29,0 50,-12 64,-38l27 0z"/>
  </g>
 </g>
</svg>
