<svg width="234" height="54" viewBox="0 0 234 54" fill="none" xmlns="http://www.w3.org/2000/svg">
<path d="M14.2501 15.6217C15.337 15.0255 16.6654 14.1311 18.1146 13.0381C19.5637 11.945 21.6167 10.3551 24.3943 8.16899C27.0511 5.88351 28.8625 4.49234 29.5871 3.69739C30.4325 3.0018 30.7947 2.50496 30.9155 2.30622C31.0363 2.00811 31.157 1.71 31.157 1.31253V0.815682L31.3986 0.616943C32.1231 0.716312 32.727 0.716312 33.21 0.716312C35.6253 0.716312 37.6783 0.716312 39.4897 0.616943L39.6105 0.815682L39.369 2.00811L39.1274 2.10748C38.0406 2.20685 37.316 2.20685 36.9537 2.30622C36.5914 2.40559 36.1084 2.60433 35.6253 2.80306C35.1422 3.10117 33.9346 3.79675 32.1231 5.08855C30.3117 6.38035 28.5002 7.77152 26.568 9.36142L20.6506 13.833L30.674 25.5586C32.1231 27.2479 32.9685 28.1422 33.4516 28.4403C33.9346 28.7384 34.78 28.9371 36.1084 28.9371L36.3499 29.1359L36.1084 30.2289L35.8668 30.4277L35.1422 30.3283C32.8477 30.2289 31.157 30.2289 29.8286 30.2289C28.8625 30.2289 27.8964 30.2289 26.568 30.4277C24.2735 27.3472 22.2205 24.9624 20.6506 23.0744C19.2014 21.1863 17.0277 18.8015 14.1294 15.8204L12.9217 21.9813C12.5594 23.8693 12.3179 25.2605 12.1971 26.0554C12.0764 26.8504 11.9556 27.3472 11.9556 27.6453C11.9556 28.0428 12.1971 28.3409 12.5594 28.5397C12.9217 28.7384 13.4048 28.8378 14.0086 28.8378L16.7862 28.9371L16.9069 29.1359L16.7862 30.1296L16.5446 30.3283C14.6124 30.2289 11.8348 30.2289 8.21193 30.2289C5.43437 30.2289 2.77757 30.2289 0.120764 30.3283L0 30.2289L0.120764 29.1359L0.362291 28.9371C0.483055 28.9371 0.96611 28.9371 1.56993 28.9371C3.01909 28.8378 3.86444 28.7384 4.10597 28.639C4.34749 28.4403 4.58902 28.1422 4.83055 27.7447C5.07208 27.2479 5.55513 25.4592 6.27971 22.18L8.57422 11.0507C9.41957 6.77783 9.90262 4.2936 9.90262 3.29991C9.90262 3.10117 9.90262 2.90243 9.78186 2.70369C9.6611 2.60433 9.41957 2.50496 9.17804 2.40559C8.93652 2.30622 8.45346 2.20685 7.60811 2.20685L5.3136 2.10748L5.07208 1.90874L5.3136 0.815682L5.55513 0.616943C7.84964 0.716312 10.5064 0.716312 13.6463 0.716312C14.8539 0.716312 17.6315 0.716312 21.8582 0.616943L21.979 0.815682L21.7375 1.90874L21.4959 2.10748C19.6845 2.10748 18.5976 2.20685 18.3561 2.20685C17.9938 2.30622 17.7523 2.40559 17.6315 2.60433C17.39 2.70369 17.1484 3.10117 16.9069 3.59802C16.7862 4.09486 16.4239 5.5854 15.82 8.16899L14.2501 15.6217Z" fill="#FF712B"/>
<path d="M36.1086 30.4277L35.9878 30.2289L36.1086 29.1359L36.3501 28.9371C37.6785 28.8378 38.4031 28.8378 38.6446 28.7384C38.8861 28.7384 39.0069 28.639 39.2484 28.5397C39.4899 28.3409 39.6107 28.2416 39.8522 27.9434C40.0938 27.7447 40.6976 26.8504 41.7845 25.2605L44.8035 21.087L52.0494 10.852L56.3969 4.79045C57.7253 3.0018 58.6914 1.61063 59.2952 0.616943H64.2465L65.3334 6.8772L66.541 13.833L67.5071 19.4971L68.2317 23.6706L68.8355 26.2542C68.9563 27.3472 69.3186 28.1422 69.6809 28.4403C70.0432 28.7384 71.2508 28.9371 73.3038 28.9371L73.4245 29.1359L73.3038 30.2289L73.0623 30.4277C69.1978 30.2289 66.6618 30.2289 65.3334 30.2289C64.2465 30.2289 61.8312 30.2289 57.9668 30.4277L57.7253 30.2289L57.9668 29.1359L58.2083 28.9371C59.899 28.9371 60.8651 28.8378 61.3482 28.639C61.8312 28.4403 62.0728 28.0428 62.0728 27.6453C62.0728 26.6516 61.5897 23.6706 60.8651 18.8015C59.2952 18.8015 58.2083 18.8015 57.846 18.8015H53.8608H49.2718C48.3057 20.1927 47.2188 21.7826 46.1319 23.5712C45.0451 25.3598 44.3205 26.5523 44.079 26.9498C43.8374 27.4466 43.8374 27.8441 43.8374 27.9434C43.8374 28.2416 43.9582 28.4403 44.3205 28.639C44.6828 28.7384 45.8904 28.9371 48.0642 28.9371L48.3057 29.1359L48.0642 30.2289L47.8226 30.4277C47.8226 30.4277 47.2188 30.3283 46.0112 30.3283C44.3205 30.2289 43.1129 30.2289 42.2675 30.2289C41.7845 30.2289 39.7315 30.2289 36.1086 30.4277ZM50.4794 16.9135C51.3248 16.9135 51.8078 16.9135 52.0494 16.9135C57.2422 16.9135 60.1405 16.9135 60.5028 16.9135L58.5706 5.48603L50.4794 16.9135Z" fill="#FF712B"/>
<path d="M81.5158 0.616943C83.448 0.716312 85.9841 0.716312 89.0032 0.716312C91.4185 0.716312 93.8337 0.716312 96.249 0.616943C97.6982 0.616943 98.9058 0.616943 99.9927 0.616943C102.408 0.616943 104.34 0.915051 105.669 1.4119C107.118 1.90874 108.325 2.80306 109.171 3.89612C110.016 4.98918 110.378 6.28098 110.378 7.77152C110.378 10.6532 109.171 13.1375 106.514 15.1248C103.978 17.1122 100.959 18.1059 97.4566 18.1059C95.8867 18.1059 94.0753 17.8078 92.2638 17.311L92.143 16.0192L92.2638 15.8204C93.5922 16.2179 94.7998 16.4166 95.8867 16.4166C97.4566 16.4166 98.785 16.0192 99.9927 15.2242C101.08 14.4292 102.046 13.3362 102.529 12.0444C103.133 10.6532 103.495 9.36142 103.495 7.97026C103.495 6.18161 102.891 4.88981 101.804 3.99549C100.717 3.0018 99.0266 2.60433 96.8528 2.60433C96.0075 2.60433 94.7998 2.70369 92.9884 2.90243C92.3846 5.48603 91.7807 7.87089 91.2977 10.1564L89.607 18.1059C89.0032 21.087 88.3994 23.9687 88.0371 26.751C87.9163 27.0491 87.9163 27.3472 87.9163 27.6453C87.9163 27.9434 88.0371 28.2416 88.2786 28.4403C88.6409 28.639 89.1239 28.8378 89.9693 28.8378L92.7469 28.9371L92.8676 29.1359L92.7469 30.1296L92.5053 30.3283C89.9693 30.2289 87.4332 30.2289 84.6557 30.2289C81.3951 30.2289 78.6175 30.2289 76.0815 30.3283L75.9607 30.2289L76.0815 29.1359L76.323 28.9371C76.4437 28.9371 76.806 28.9371 77.5306 28.9371C78.859 28.8378 79.8251 28.7384 80.0667 28.639C80.3082 28.4403 80.5497 28.1422 80.7912 27.7447C81.0328 27.2479 81.5158 25.4592 82.1196 22.0807L84.5349 10.9513C85.3803 6.77783 85.8633 4.2936 85.8633 3.29991C85.8633 3.10117 85.7426 2.90243 85.6218 2.70369C85.6218 2.60433 85.3803 2.50496 85.1387 2.40559C84.8972 2.30622 84.2934 2.20685 83.5688 2.20685L81.1535 2.10748L81.0328 1.90874L81.2743 0.815682L81.5158 0.616943Z" fill="#FF712B"/>
<path d="M114.122 19.0996C114.122 18.0066 114.243 16.516 114.605 14.7274C114.967 12.8394 115.813 10.9513 117.02 9.06334C118.107 7.17532 119.677 5.58542 121.489 4.19425C123.421 2.80308 125.474 1.80939 127.889 1.11381C130.184 0.418224 132.72 0.120117 135.497 0.120117C137.671 0.120117 139.724 0.318855 141.777 0.815701C143.709 1.31255 145.521 2.1075 147.091 3.20056C148.66 4.39299 149.747 5.78416 150.351 7.27469C151.076 8.8646 151.317 10.6532 151.317 12.6406C151.317 17.8078 149.385 22.1801 145.521 25.7573C141.535 29.3346 136.343 31.1233 129.701 31.1233C126.44 31.1233 123.542 30.6264 121.247 29.7321C118.832 28.7384 117.02 27.3473 115.813 25.658C114.726 23.8693 114.122 21.6832 114.122 19.0996ZM121.247 20.3914C121.247 22.1801 121.609 23.77 122.213 25.1611C122.817 26.4529 124.025 27.4466 125.595 28.1422C127.165 28.8378 128.976 29.2353 130.787 29.2353C133.565 29.2353 135.86 28.5397 137.55 27.2479C139.362 25.9561 140.932 23.5712 142.26 20.3914C143.588 17.1122 144.192 13.9324 144.192 11.0507C144.192 7.77154 143.347 5.48605 141.535 4.09488C139.845 2.80308 137.55 2.1075 134.773 2.1075C132.237 2.1075 130.063 2.60434 128.493 3.59804C126.802 4.59173 125.474 6.08226 124.266 8.16901C123.179 10.3551 122.334 12.5413 121.851 14.7274C121.489 17.0129 121.247 18.9009 121.247 20.3914Z" fill="#FF712B"/>
<path d="M157.597 19.0996C157.597 18.0066 157.717 16.516 158.08 14.7274C158.563 12.8394 159.287 10.9513 160.495 9.06334C161.582 7.17532 163.152 5.58542 164.963 4.19425C166.895 2.80308 168.948 1.80939 171.364 1.11381C173.658 0.418224 176.194 0.120117 179.093 0.120117C181.146 0.120117 183.199 0.318855 185.252 0.815701C187.184 1.31255 188.995 2.1075 190.565 3.20056C192.135 4.39299 193.222 5.78416 193.826 7.27469C194.55 8.8646 194.792 10.6532 194.792 12.6406C194.792 17.8078 192.86 22.1801 188.995 25.7573C185.01 29.3346 179.817 31.1233 173.175 31.1233C169.915 31.1233 167.016 30.6264 164.722 29.7321C162.306 28.7384 160.495 27.3473 159.287 25.658C158.2 23.8693 157.597 21.6832 157.597 19.0996ZM164.722 20.3914C164.722 22.1801 165.084 23.77 165.688 25.1611C166.292 26.4529 167.499 27.4466 169.069 28.1422C170.639 28.8378 172.451 29.2353 174.262 29.2353C177.04 29.2353 179.334 28.5397 181.025 27.2479C182.836 25.9561 184.406 23.5712 185.735 20.3914C187.063 17.1122 187.667 13.9324 187.667 11.0507C187.667 7.77154 186.822 5.48605 185.01 4.09488C183.319 2.80308 181.025 2.1075 178.247 2.1075C175.711 2.1075 173.658 2.60434 171.968 3.59804C170.277 4.59173 168.948 6.08226 167.741 8.16901C166.654 10.3551 165.809 12.5413 165.326 14.7274C164.963 17.0129 164.722 18.9009 164.722 20.3914Z" fill="#FF712B"/>
<path d="M227.639 24.3662C228.968 26.2542 229.813 27.4466 230.176 27.8441C230.538 28.2416 230.9 28.5397 231.262 28.639C231.504 28.8378 232.229 28.9371 233.436 28.9371L233.557 29.1359L233.436 30.1296L233.195 30.3283C231.987 30.2289 230.538 30.2289 228.847 30.2289C227.277 30.2289 225.707 30.2289 224.017 30.3283C219.307 23.0744 215.805 17.9072 213.389 14.8267L213.51 14.1311C213.993 14.1311 214.597 14.2305 215.08 14.2305C217.978 14.2305 220.394 13.5349 222.084 12.3425C223.775 11.1501 224.62 9.36142 224.62 7.07593C224.62 3.99549 222.447 2.50496 218.341 2.50496C216.529 2.50496 215.08 2.60433 214.235 2.80306L210.733 19.0002C209.766 23.7699 209.283 26.4529 209.283 27.1485V27.6453C209.283 28.0428 209.404 28.3409 209.646 28.4403C209.887 28.639 210.491 28.8378 211.457 28.8378L214.114 28.9371L214.235 29.1359L214.114 30.1296L213.872 30.3283C211.095 30.2289 208.197 30.2289 205.419 30.2289C202.641 30.2289 199.985 30.2289 197.449 30.3283L197.207 30.2289L197.449 29.1359L197.69 28.9371H198.898C199.864 28.8378 200.588 28.8378 201.071 28.7384C201.555 28.639 202.038 28.0428 202.4 26.9498C202.762 25.7573 203.124 24.1674 203.487 22.18L205.902 11.0507C206.747 6.97657 207.23 4.39297 207.23 3.39928C207.23 2.90243 206.989 2.60433 206.747 2.50496C206.506 2.30622 205.781 2.30622 204.936 2.20685L202.641 2.10748L202.4 1.90874L202.641 0.815682L202.883 0.616943C205.057 0.716312 207.713 0.716312 210.853 0.716312L220.997 0.616943C225.345 0.616943 228.243 1.21316 229.572 2.50496C230.9 3.69739 231.504 5.18792 231.504 6.67846C231.504 8.56647 230.659 10.1564 229.089 11.6469C227.519 13.1375 224.741 14.2305 220.756 14.8267L227.639 24.3662Z" fill="#FF712B"/>
<path d="M11.9155 34.4243L11.1909 37.6041H10.5871C10.5871 35.9149 9.74177 35.1199 8.17184 35.1199C7.56802 35.1199 6.9642 35.418 6.36038 35.8155C5.87733 36.213 5.6358 36.8092 5.6358 37.4054C5.6358 37.7035 5.75656 38.101 5.99809 38.4984C6.23962 38.9953 6.9642 39.6909 8.05107 40.6846C9.25871 41.7776 9.86253 42.5726 10.2248 43.1688C10.5871 43.765 10.7079 44.2619 10.7079 44.7587C10.7079 45.7524 10.2248 46.5473 9.37947 47.1436C8.41336 47.7398 7.20573 48.0379 5.6358 48.0379C4.91122 48.0379 4.18663 48.0379 3.34129 47.8391C2.49594 47.7398 2.01289 47.7398 1.89212 47.7398C1.52983 47.7398 1.2883 47.8391 1.04678 48.0379H0.563721L1.40907 44.8581H1.89212C2.25441 46.448 3.22052 47.2429 4.91122 47.2429C5.6358 47.2429 6.36038 47.1436 6.84344 46.7461C7.32649 46.3486 7.56802 45.9511 7.56802 45.3549C7.56802 45.0568 7.44725 44.6593 7.20573 44.1625C6.9642 43.765 6.23962 43.0694 5.27351 42.0757C4.18663 41.082 3.46205 40.3865 3.22052 39.7902C2.85823 39.2934 2.73747 38.6972 2.73747 38.2997C2.73747 37.2067 3.22052 36.3123 4.18663 35.5174C5.15274 34.7224 6.36038 34.4243 7.80955 34.4243C8.05107 34.4243 8.65489 34.4243 9.37947 34.5237C10.1041 34.6231 10.4663 34.7224 10.5871 34.7224C10.9494 34.7224 11.1909 34.6231 11.4325 34.4243H11.9155Z" fill="#345C7F"/>
<path d="M21.9389 45.5535L22.3012 45.8516C20.852 47.3421 19.2821 48.0377 17.3499 48.0377C16.263 48.0377 15.1761 47.7396 14.4515 47.1434C13.6062 46.4478 13.2439 45.6528 13.2439 44.7585C13.2439 43.3673 13.9685 42.0755 15.4176 40.9825C16.8668 39.8894 18.5575 39.2932 20.369 39.2932C21.0935 39.2932 21.6974 39.3926 22.0596 39.6907C22.5427 39.9888 22.7842 40.3863 22.7842 40.7837C22.7842 41.5787 22.0596 42.2743 20.7312 42.8705C19.4028 43.4667 17.7122 43.8642 15.9007 44.0629C15.9007 44.2617 15.7799 44.361 15.7799 44.5598C15.7799 45.156 16.1422 45.7522 16.6253 46.1497C17.2291 46.6465 17.8329 46.8453 18.5575 46.8453C19.7651 46.8453 20.852 46.4478 21.9389 45.5535ZM16.0215 43.5661C17.2291 43.4667 18.1952 43.1686 19.0406 42.5724C19.8859 42.0755 20.2482 41.5787 20.2482 41.0819C20.2482 40.7837 20.1274 40.585 19.8859 40.3863C19.7651 40.1875 19.5236 40.0882 19.1613 40.0882C18.4367 40.0882 17.8329 40.4856 17.1083 41.0819C16.5045 41.6781 16.1422 42.5724 16.0215 43.5661Z" fill="#345C7F"/>
<path d="M35.8268 39.2932L34.4984 45.4541C34.3776 45.6528 34.3776 45.9509 34.3776 46.1497C34.3776 46.8453 34.8607 47.1434 35.9476 47.2427L35.8268 47.5408L31.117 48.0377L31.6001 46.4478L31.4793 46.3484C30.3924 47.5408 29.064 48.0377 27.6149 48.0377C26.6488 48.0377 25.9242 47.7396 25.3204 47.2427C24.5958 46.7459 24.3542 46.0503 24.3542 45.2554C24.3542 43.7648 25.1996 42.3737 26.8903 41.1812C28.581 39.8894 31.117 39.2932 34.4984 39.2932H35.8268ZM31.8416 45.2554L33.17 40.1875H31.8416C30.2717 40.1875 29.064 40.6844 28.2187 41.7774C27.3733 42.7711 27.0111 43.8642 27.0111 44.8579C27.0111 45.4541 27.2526 45.8516 27.6149 46.2491C27.9772 46.6465 28.4602 46.8453 29.064 46.8453C29.3056 46.8453 29.6679 46.7459 29.9094 46.6465C30.2717 46.5472 30.634 46.2491 31.117 45.8516C31.6001 45.5535 31.8416 45.2554 31.8416 45.2554Z" fill="#345C7F"/>
<path d="M39.2082 45.3547L40.1743 41.9762C40.1743 41.6781 40.1743 41.4793 40.1743 41.2806C40.1743 40.585 39.6912 40.1875 38.4836 40.1875L38.6044 39.7901L43.1934 39.2932H43.4349L43.0726 40.6844C44.1595 39.7901 45.3671 39.2932 46.6955 39.2932C48.1447 39.2932 48.99 39.7901 49.3523 40.6844C50.56 39.7901 51.8884 39.2932 53.096 39.2932C53.8206 39.2932 54.5452 39.492 55.0282 39.7901C55.5113 40.0882 55.632 40.585 55.632 41.1812C55.632 41.38 55.632 41.5787 55.632 41.7774L54.5452 45.8516C54.5452 46.0503 54.5452 46.1497 54.5452 46.3484C54.5452 46.9446 54.9075 47.2427 55.7528 47.3421L55.632 47.7396H50.1977V47.3421C50.9223 47.1434 51.2846 46.9446 51.5261 46.7459C51.7676 46.5472 52.0091 46.0503 52.1299 45.3547L52.9752 42.3737C52.9752 42.1749 52.9752 41.9762 52.9752 41.7774C52.9752 40.8831 52.613 40.4856 51.6468 40.4856C50.9223 40.4856 50.0769 40.8831 49.2316 41.5787L48.1447 45.8516C48.1447 46.0503 48.1447 46.1497 48.1447 46.249C48.1447 46.8453 48.507 47.2427 49.2316 47.3421V47.7396H43.7972L43.918 47.3421C44.5218 47.2427 44.8841 47.044 45.1256 46.7459C45.3671 46.4478 45.4879 45.9509 45.7294 45.3547L46.454 42.3737C46.5748 42.0755 46.5748 41.8768 46.5748 41.6781C46.5748 40.8831 46.2125 40.4856 45.4879 40.4856C44.6426 40.4856 43.7972 40.9825 42.7103 41.9762L41.7442 45.8516C41.7442 46.0503 41.6235 46.249 41.6235 46.3484C41.6235 46.8453 42.1065 47.1434 42.8311 47.3421L42.7103 47.7396H37.3967L37.5175 47.3421C37.8798 47.2427 38.2421 47.1434 38.6044 46.8453C38.8459 46.6465 39.0874 46.1497 39.2082 45.3547Z" fill="#345C7F"/>
<path d="M65.1722 34.2266L62.1531 45.654C62.0324 45.9521 62.0324 46.1509 62.0324 46.3496C62.0324 46.9458 62.6362 47.3433 63.6023 47.3433L63.4815 47.7408H57.4434L57.5641 47.3433C58.2887 47.2439 58.7718 47.0452 59.0133 46.8464C59.2548 46.5483 59.4963 45.9521 59.7379 45.1572L61.6701 37.307C61.7909 36.9095 61.9116 36.5121 61.9116 36.2139C61.9116 35.419 61.3078 35.0215 60.1002 35.1209L60.2209 34.7234L64.9307 34.2266H65.1722Z" fill="#345C7F"/>
<path d="M74.8334 45.5535L75.1957 45.8516C73.8673 47.3421 72.1766 48.0377 70.3652 48.0377C69.1575 48.0377 68.1914 47.7396 67.3461 47.1434C66.6215 46.4478 66.1384 45.6528 66.1384 44.7585C66.1384 43.3673 66.863 42.0755 68.3122 40.9825C69.7613 39.8894 71.452 39.2932 73.3843 39.2932C74.1088 39.2932 74.5919 39.3926 75.0749 39.6907C75.558 39.9888 75.7995 40.3863 75.7995 40.7837C75.7995 41.5787 75.0749 42.2743 73.7465 42.8705C72.2974 43.4667 70.7274 43.8642 68.916 44.0629C68.7952 44.2617 68.7952 44.361 68.7952 44.5598C68.7952 45.156 69.0368 45.7522 69.6406 46.1497C70.2444 46.6465 70.8482 46.8453 71.5728 46.8453C72.6597 46.8453 73.7465 46.4478 74.8334 45.5535ZM68.916 43.5661C70.2444 43.4667 71.2105 43.1686 72.0559 42.5724C72.7804 42.0755 73.1427 41.5787 73.1427 41.0819C73.1427 40.7837 73.1427 40.585 72.9012 40.3863C72.6597 40.1875 72.4181 40.0882 72.1766 40.0882C71.452 40.0882 70.7274 40.4856 70.1236 41.0819C69.5198 41.6781 69.1575 42.5724 68.916 43.5661Z" fill="#345C7F"/>
<path d="M85.4606 39.2932L84.8568 41.8768H84.3737C84.3737 41.2806 84.0114 40.7837 83.6492 40.3863C83.1661 40.0882 82.683 39.8894 82.0792 39.8894C81.5962 39.8894 81.2339 39.9888 80.9924 40.1875C80.7508 40.3863 80.5093 40.585 80.5093 40.7837C80.5093 41.0819 80.9924 41.6781 82.0792 42.5724C83.0453 43.3673 83.6492 43.9636 83.8907 44.4604C84.253 44.9573 84.3737 45.3547 84.3737 45.7522C84.3737 46.4478 84.0114 46.9446 83.2869 47.4415C82.683 47.839 81.8377 48.0377 80.7508 48.0377C80.2678 48.0377 79.664 48.0377 79.0601 47.9383C78.5771 47.839 78.2148 47.7396 78.094 47.7396C77.7317 47.7396 77.3694 47.839 77.2487 48.0377H76.7656L77.611 45.156H77.9733C78.2148 46.6465 78.9394 47.4415 80.2678 47.4415C80.7508 47.4415 81.1131 47.3421 81.4754 47.1434C81.7169 46.9446 81.8377 46.6465 81.8377 46.3484C81.8377 46.1497 81.8377 45.8516 81.5962 45.5535C81.3546 45.2554 80.8716 44.7585 80.147 44.1623C79.4224 43.4667 78.9394 42.9699 78.6978 42.6718C78.4563 42.3737 78.3356 42.0755 78.3356 41.7774C78.3356 41.0819 78.6978 40.4856 79.4224 39.9888C80.147 39.492 80.9924 39.2932 82.0792 39.2932C82.5623 39.2932 83.0453 39.2932 83.5284 39.3926C84.1322 39.492 84.3737 39.492 84.3737 39.492C84.6153 39.492 84.8568 39.3926 85.0983 39.2932H85.4606Z" fill="#345C7F"/>
<path d="M95.1217 39.2932L94.3972 41.8768H94.0349C93.9141 41.2806 93.5518 40.7837 93.1895 40.3863C92.7065 40.0882 92.2234 39.8894 91.6196 39.8894C91.2573 39.8894 90.895 39.9888 90.5327 40.1875C90.2912 40.3863 90.1704 40.585 90.1704 40.7837C90.1704 41.0819 90.6535 41.6781 91.6196 42.5724C92.5857 43.3673 93.1895 43.9636 93.4311 44.4604C93.7933 44.9573 93.9141 45.3547 93.9141 45.7522C93.9141 46.4478 93.5518 46.9446 92.948 47.4415C92.2234 47.839 91.3781 48.0377 90.2912 48.0377C89.8081 48.0377 89.2043 48.0377 88.7213 47.9383C88.1175 47.839 87.7552 47.7396 87.6344 47.7396C87.2721 47.7396 87.0306 47.839 86.789 48.0377H86.4268L87.1513 45.156H87.6344C87.7552 46.6465 88.4797 47.4415 89.8081 47.4415C90.2912 47.4415 90.6535 47.3421 91.0158 47.1434C91.2573 46.9446 91.4988 46.6465 91.4988 46.3484C91.4988 46.1497 91.3781 45.8516 91.1365 45.5535C91.0158 45.2554 90.5327 44.7585 89.6874 44.1623C88.9628 43.4667 88.4797 42.9699 88.2382 42.6718C88.1175 42.3737 87.9967 42.0755 87.9967 41.7774C87.9967 41.0819 88.359 40.4856 88.9628 39.9888C89.6874 39.492 90.6535 39.2932 91.7404 39.2932C92.1027 39.2932 92.5857 39.2932 93.1895 39.3926C93.6726 39.492 93.9141 39.492 93.9141 39.492C94.1556 39.492 94.5179 39.3926 94.6387 39.2932H95.1217Z" fill="#345C7F"/>
<path d="M116.739 34.2266L116.135 37.8039H115.772C115.652 36.9095 115.289 36.3133 114.686 35.8165C114.202 35.419 113.478 35.1209 112.633 35.1209C111.183 35.1209 109.734 35.9158 108.647 37.307C107.56 38.6982 106.957 40.3874 106.957 42.3748C106.957 43.766 107.319 44.8591 108.044 45.654C108.889 46.449 109.855 46.8464 111.063 46.8464C112.633 46.8464 114.082 46.1509 115.41 44.6603L115.772 44.8591C114.927 45.9521 114.082 46.7471 113.236 47.2439C112.27 47.8401 111.063 48.0389 109.734 48.0389C107.802 48.0389 106.353 47.542 105.266 46.5483C104.179 45.5546 103.696 44.1635 103.696 42.4742C103.696 40.0893 104.541 38.2013 106.232 36.6114C107.923 35.1209 109.976 34.4253 112.15 34.4253C112.874 34.4253 113.478 34.4253 113.961 34.5247C114.565 34.624 114.927 34.7234 115.289 34.7234C115.772 34.7234 116.135 34.5247 116.255 34.2266H116.739Z" fill="#345C7F"/>
<path d="M121.086 48.0377C119.878 48.0377 118.912 47.7396 118.188 47.1434C117.463 46.5472 117.101 45.8516 117.101 44.9573C117.101 43.5661 117.825 42.3737 119.154 41.0819C120.603 39.8894 122.294 39.2932 124.226 39.2932C125.192 39.2932 126.037 39.5913 126.762 40.1875C127.487 40.7837 127.849 41.4793 127.849 42.2743C127.849 43.6655 127.124 44.9573 125.675 46.2491C124.226 47.4415 122.656 48.0377 121.086 48.0377ZM123.381 39.9888C122.294 39.9888 121.448 40.585 120.845 41.6781C120.12 42.7711 119.758 43.9636 119.758 45.2554C119.758 45.8516 119.878 46.3484 120.241 46.7459C120.603 47.1434 120.965 47.3421 121.448 47.3421C122.656 47.3421 123.501 46.7459 124.226 45.6528C124.83 44.5598 125.192 43.3673 125.192 41.9762C125.192 41.38 125.071 40.8831 124.709 40.585C124.347 40.1875 123.984 39.9888 123.381 39.9888Z" fill="#345C7F"/>
<path d="M130.385 45.4541L131.23 41.9762C131.351 41.6781 131.351 41.38 131.351 41.1812C131.351 40.585 130.747 40.1875 129.539 40.1875L129.66 39.7901L134.249 39.2932H134.491L134.128 40.7837H134.249C135.336 39.7901 136.423 39.2932 137.751 39.2932C138.597 39.2932 139.321 39.492 139.925 39.9888C140.529 40.3863 140.891 40.9825 140.891 41.6781C140.891 41.8768 140.77 42.0755 140.77 42.2743L139.925 45.7522C139.804 45.9509 139.804 46.0503 139.804 46.249C139.804 46.8453 140.167 47.1434 140.891 47.3421L140.77 47.7396H135.578L135.698 47.3421C136.181 47.2427 136.664 47.044 136.785 46.7459C137.027 46.4478 137.268 46.0503 137.389 45.4541L137.993 42.7711C138.114 42.473 138.114 42.1749 138.114 41.9762C138.114 40.9825 137.631 40.4856 136.544 40.4856C135.94 40.4856 135.336 40.7837 134.732 41.1812C134.128 41.5787 133.887 41.7774 133.887 41.8768L132.8 45.8516C132.8 46.0503 132.8 46.1497 132.8 46.249C132.8 46.8453 133.162 47.1434 134.128 47.3421L134.008 47.7396H128.573L128.694 47.3421C129.177 47.2427 129.539 47.044 129.781 46.7459C130.022 46.4478 130.143 46.0503 130.385 45.4541Z" fill="#345C7F"/>
<path d="M151.639 39.2932L151.035 41.8768H150.552C150.552 41.2806 150.19 40.7837 149.828 40.3863C149.345 40.0882 148.862 39.8894 148.258 39.8894C147.775 39.8894 147.412 39.9888 147.171 40.1875C146.929 40.3863 146.688 40.585 146.688 40.7837C146.688 41.0819 147.171 41.6781 148.258 42.5724C149.224 43.3673 149.828 43.9636 150.069 44.4604C150.431 44.9573 150.552 45.3547 150.552 45.7522C150.552 46.4478 150.19 46.9446 149.465 47.4415C148.862 47.839 148.016 48.0377 146.929 48.0377C146.446 48.0377 145.842 48.0377 145.239 47.9383C144.756 47.839 144.393 47.7396 144.272 47.7396C143.91 47.7396 143.548 47.839 143.427 48.0377H142.944L143.789 45.156H144.272C144.393 46.6465 145.118 47.4415 146.446 47.4415C146.929 47.4415 147.292 47.3421 147.654 47.1434C147.895 46.9446 148.137 46.6465 148.137 46.3484C148.137 46.1497 148.016 45.8516 147.775 45.5535C147.533 45.2554 147.05 44.7585 146.325 44.1623C145.601 43.4667 145.118 42.9699 144.876 42.6718C144.635 42.3737 144.635 42.0755 144.635 41.7774C144.635 41.0819 144.876 40.4856 145.601 39.9888C146.325 39.492 147.171 39.2932 148.258 39.2932C148.741 39.2932 149.224 39.2932 149.707 39.3926C150.311 39.492 150.552 39.492 150.552 39.492C150.794 39.492 151.035 39.3926 151.277 39.2932H151.639Z" fill="#345C7F"/>
<path d="M154.296 44.5598L155.02 41.8768C155.02 41.5787 155.02 41.38 155.02 41.2806C155.02 40.585 154.537 40.1875 153.33 40.1875L153.45 39.7901L158.039 39.2932H158.281L156.711 45.2554C156.711 45.3547 156.711 45.4541 156.711 45.5535C156.711 45.9509 156.832 46.2491 157.073 46.4478C157.315 46.7459 157.677 46.8453 158.16 46.8453C158.764 46.8453 159.368 46.5472 159.972 46.0503C160.696 45.5535 161.058 45.2554 161.058 45.156L161.904 41.8768C162.025 41.5787 162.025 41.38 162.025 41.1812C162.025 40.4856 161.542 40.1875 160.455 40.1875V39.7901L164.923 39.2932H165.285L163.595 45.5535C163.595 45.7522 163.474 45.9509 163.474 46.1497C163.474 46.7459 164.078 47.1434 165.164 47.1434L165.044 47.5408L160.575 48.0377H160.334L160.817 46.4478H160.696C159.609 47.5408 158.281 48.0377 156.953 48.0377C156.107 48.0377 155.503 47.839 154.9 47.3421C154.416 46.9446 154.175 46.3484 154.175 45.5535C154.175 45.2554 154.175 44.8579 154.296 44.5598Z" fill="#345C7F"/>
<path d="M174.101 34.2266L171.203 45.654C171.082 45.9521 171.082 46.1509 171.082 46.3496C171.082 46.9458 171.565 47.3433 172.652 47.3433L172.532 47.7408H166.373L166.493 47.3433C167.339 47.2439 167.822 47.0452 168.063 46.8464C168.305 46.5483 168.546 45.9521 168.667 45.1572L170.72 37.307C170.841 36.9095 170.962 36.5121 170.962 36.2139C170.962 35.419 170.358 35.0215 169.15 35.1209V34.7234L173.86 34.2266H174.101Z" fill="#345C7F"/>
<path d="M183.279 39.5919L183.037 40.4862H180.018L178.69 45.3553C178.69 45.554 178.69 45.6534 178.69 45.8522C178.69 46.4484 179.052 46.8458 179.656 46.8458C180.139 46.8458 180.984 46.5477 181.951 45.9515L182.313 46.1503C180.984 47.4421 179.535 48.0383 177.965 48.0383C176.637 48.0383 175.912 47.5414 175.912 46.349C175.912 46.1503 175.912 45.9515 176.033 45.6534L177.362 40.4862H175.309L175.429 39.9894C177.12 39.5919 178.69 38.4988 180.381 36.9089H180.864L180.139 39.5919H183.279Z" fill="#345C7F"/>
<path d="M195.839 39.2932L194.39 45.4541C194.39 45.6528 194.269 45.9509 194.269 46.1497C194.269 46.8453 194.873 47.1434 195.839 47.2427V47.5408L191.129 48.0377L191.491 46.4478V46.3484C190.284 47.5408 188.955 48.0377 187.506 48.0377C186.661 48.0377 185.816 47.7396 185.212 47.2427C184.608 46.7459 184.246 46.0503 184.246 45.2554C184.246 43.7648 185.091 42.3737 186.782 41.1812C188.472 39.8894 191.008 39.2932 194.39 39.2932H195.839ZM191.854 45.2554L193.182 40.1875H191.733C190.284 40.1875 189.076 40.6844 188.231 41.7774C187.385 42.7711 186.902 43.8642 186.902 44.8579C186.902 45.4541 187.144 45.8516 187.506 46.2491C187.989 46.6465 188.472 46.8453 188.955 46.8453C189.318 46.8453 189.68 46.7459 189.922 46.6465C190.284 46.5472 190.646 46.2491 191.129 45.8516C191.612 45.5535 191.854 45.2554 191.854 45.2554Z" fill="#345C7F"/>
<path d="M199.22 45.4541L200.065 41.9762C200.186 41.6781 200.186 41.38 200.186 41.1812C200.186 40.585 199.582 40.1875 198.375 40.1875L198.496 39.7901L203.085 39.2932H203.326L202.964 40.7837H203.085C204.171 39.7901 205.379 39.2932 206.587 39.2932C207.553 39.2932 208.277 39.492 208.76 39.9888C209.364 40.3863 209.727 40.9825 209.727 41.6781C209.727 41.8768 209.727 42.0755 209.606 42.2743L208.76 45.7522C208.76 45.9509 208.64 46.0503 208.64 46.249C208.64 46.8453 209.002 47.1434 209.727 47.3421V47.7396H204.534V47.3421C205.138 47.2427 205.5 47.044 205.741 46.7459C205.862 46.4478 206.104 46.0503 206.224 45.4541L206.949 42.7711C206.949 42.473 207.07 42.1749 207.07 41.9762C207.07 40.9825 206.466 40.4856 205.379 40.4856C204.775 40.4856 204.171 40.7837 203.568 41.1812C203.085 41.5787 202.722 41.7774 202.722 41.8768L201.756 45.8516C201.635 46.0503 201.635 46.1497 201.635 46.249C201.635 46.8453 202.118 47.1434 202.964 47.3421L202.843 47.7396H197.409L197.529 47.3421C198.133 47.2427 198.496 47.044 198.616 46.7459C198.858 46.4478 199.099 46.0503 199.22 45.4541Z" fill="#345C7F"/>
<path d="M220.837 39.2932L220.474 41.8768H219.991C219.87 40.6844 219.387 39.9888 218.421 39.9888C217.455 39.9888 216.731 40.585 216.006 41.5787C215.402 42.6718 215.161 43.6655 215.161 44.7585C215.161 45.3547 215.281 45.7522 215.765 46.1497C216.127 46.5472 216.61 46.7459 217.214 46.7459C217.938 46.7459 218.904 46.4478 219.87 45.7522L220.233 46.0503C218.663 47.3421 217.334 48.0377 216.006 48.0377C214.919 48.0377 214.074 47.7396 213.47 47.1434C212.745 46.5472 212.504 45.8516 212.504 44.9573C212.504 43.3673 213.108 41.9762 214.315 40.8831C215.523 39.7901 216.851 39.2932 218.059 39.2932C218.421 39.2932 218.784 39.2932 219.025 39.3926C219.387 39.3926 219.508 39.3926 219.629 39.3926C219.87 39.3926 219.991 39.3926 220.233 39.3926L220.474 39.2932H220.837Z" fill="#345C7F"/>
<path d="M231.464 41.9764L225.668 50.1247C225.064 50.9196 224.218 51.7146 223.252 52.4102C222.286 53.1058 221.441 53.6026 220.716 53.702C219.871 53.9007 218.905 54.0001 217.818 54.0001L218.422 52.4102C219.992 52.3108 221.32 52.1121 222.407 51.6152C223.615 51.2177 224.701 50.1247 225.909 48.5348L224.46 41.877C224.218 40.6846 223.735 40.0884 222.769 39.989L222.89 39.5916H228.204L228.083 39.989C227.237 40.0884 226.875 40.4859 226.875 41.0821C226.875 41.3802 226.875 41.5789 226.875 41.877L227.72 45.9512L230.86 41.6783C231.102 41.2808 231.223 40.9827 231.223 40.784C231.223 40.5852 231.102 40.3865 230.981 40.1878C230.74 40.0884 230.377 39.989 230.136 39.989L230.257 39.5916H234L233.879 39.989C233.155 40.1878 232.31 40.8834 231.464 41.9764Z" fill="#345C7F"/>
</svg>
